<svg width="361" height="442" viewBox="0 0 361 442" fill="none" xmlns="http://www.w3.org/2000/svg">
<path d="M41.1837 350.474C38.8751 350.474 36.8185 349.976 35.0138 348.98C33.2208 347.984 31.8204 346.572 30.8126 344.744C29.8048 342.916 29.3009 340.818 29.3009 338.451C29.3009 336.095 29.799 334.009 30.795 332.193C31.7911 330.365 33.1857 328.953 34.9786 327.957C36.7833 326.96 38.8517 326.462 41.1837 326.462C43.1056 326.462 44.8634 326.791 46.4572 327.447C48.0509 328.103 49.3693 329.052 50.4122 330.294C51.4552 331.525 52.1232 332.955 52.4161 334.583H47.7228C47.3595 333.341 46.5861 332.328 45.4025 331.542C44.2189 330.746 42.8009 330.347 41.1486 330.347C39.6603 330.347 38.3478 330.681 37.2111 331.349C36.0861 332.017 35.2189 332.972 34.6095 334.214C34.0001 335.445 33.6954 336.869 33.6954 338.486C33.6954 340.115 34.006 341.544 34.6271 342.775C35.2482 343.994 36.1212 344.925 37.2462 345.57C38.3829 346.214 39.6837 346.537 41.1486 346.537C42.754 346.537 44.1544 346.15 45.3497 345.376C46.5568 344.591 47.3478 343.554 47.7228 342.265H52.4161C52.1466 343.871 51.4962 345.3 50.465 346.554C49.4337 347.796 48.1212 348.763 46.5275 349.455C44.9337 350.134 43.1525 350.474 41.1837 350.474ZM54.3673 341.966C54.3673 340.337 54.7365 338.878 55.4747 337.589C56.2247 336.289 57.2618 335.275 58.5861 334.548C59.922 333.81 61.4396 333.441 63.1388 333.441C64.838 333.441 66.3556 333.81 67.6915 334.548C69.0275 335.275 70.0646 336.289 70.8029 337.589C71.5529 338.878 71.9279 340.337 71.9279 341.966C71.9279 343.572 71.5529 345.025 70.8029 346.326C70.0646 347.626 69.0275 348.646 67.6915 349.384C66.3673 350.111 64.8497 350.474 63.1388 350.474C61.4396 350.474 59.922 350.111 58.5861 349.384C57.2618 348.646 56.2247 347.632 55.4747 346.343C54.7365 345.042 54.3673 343.583 54.3673 341.966ZM58.4982 341.931C58.4982 343.373 58.9318 344.556 59.799 345.482C60.6661 346.408 61.7794 346.871 63.1388 346.871C64.5333 346.871 65.6642 346.408 66.5314 345.482C67.3986 344.556 67.8322 343.373 67.8322 341.931C67.8322 340.49 67.3986 339.312 66.5314 338.398C65.6642 337.472 64.5333 337.009 63.1388 337.009C61.7677 337.009 60.6486 337.472 59.7814 338.398C58.9259 339.312 58.4982 340.49 58.4982 341.931ZM84.1622 333.441C86.0255 333.441 87.4962 334.033 88.5743 335.216C89.6642 336.388 90.2091 338.005 90.2091 340.068V350H86.1661V341C86.1661 338.386 85.0997 337.08 82.9669 337.08C81.8185 337.08 80.9279 337.414 80.295 338.082C79.674 338.75 79.3634 339.652 79.3634 340.789V350H75.3732V333.951H78.713L79.0118 335.884C79.5157 335.146 80.2306 334.554 81.1564 334.109C82.0822 333.664 83.0841 333.441 84.1622 333.441ZM103.024 337.255H99.965V350H95.9396V337.255H92.881V333.951H95.9396V329.732H99.965V333.951H103.024V337.255ZM121.99 333.951V350H118.141V347.732C117.59 348.576 116.799 349.244 115.768 349.736C114.748 350.228 113.606 350.474 112.34 350.474C110.852 350.474 109.527 350.128 108.367 349.437C107.219 348.734 106.328 347.75 105.695 346.484C105.063 345.207 104.746 343.724 104.746 342.037C104.746 340.337 105.08 338.837 105.748 337.537C106.416 336.224 107.348 335.216 108.543 334.513C109.75 333.798 111.133 333.441 112.692 333.441C113.91 333.441 115.006 333.664 115.979 334.109C116.963 334.554 117.742 335.181 118.317 335.99L118.633 333.951H121.99ZM113.342 346.835C114.69 346.835 115.785 346.378 116.629 345.464C117.484 344.55 117.912 343.361 117.912 341.896C117.912 340.431 117.496 339.259 116.664 338.38C115.844 337.49 114.748 337.044 113.377 337.044C112.006 337.044 110.904 337.496 110.072 338.398C109.252 339.289 108.842 340.466 108.842 341.931C108.842 343.396 109.258 344.58 110.09 345.482C110.922 346.384 112.006 346.835 113.342 346.835ZM128.442 330.804C127.621 330.804 126.947 330.546 126.42 330.031C125.893 329.515 125.629 328.876 125.629 328.115C125.629 327.341 125.893 326.703 126.42 326.199C126.947 325.695 127.621 325.443 128.442 325.443C129.262 325.443 129.924 325.695 130.428 326.199C130.943 326.703 131.201 327.341 131.201 328.115C131.201 328.853 130.938 329.486 130.41 330.013C129.883 330.541 129.227 330.804 128.442 330.804ZM126.42 333.951H130.445V350H126.42V333.951ZM143.717 333.441C145.58 333.441 147.051 334.033 148.129 335.216C149.219 336.388 149.764 338.005 149.764 340.068V350H145.721V341C145.721 338.386 144.654 337.08 142.522 337.08C141.373 337.08 140.483 337.414 139.85 338.082C139.229 338.75 138.918 339.652 138.918 340.789V350H134.928V333.951H138.268L138.567 335.884C139.07 335.146 139.785 334.554 140.711 334.109C141.637 333.664 142.639 333.441 143.717 333.441ZM162.578 337.255H159.52V350H155.494V337.255H152.436V333.951H155.494V329.732H159.52V333.951H162.578V337.255ZM180.49 344.99C180.139 346.63 179.242 347.955 177.801 348.962C176.359 349.97 174.643 350.474 172.651 350.474C170.998 350.474 169.539 350.117 168.274 349.402C167.02 348.675 166.041 347.667 165.338 346.378C164.647 345.078 164.301 343.583 164.301 341.896C164.301 340.197 164.652 338.714 165.356 337.449C166.07 336.171 167.049 335.187 168.291 334.496C169.545 333.792 170.963 333.441 172.545 333.441C174.104 333.441 175.481 333.775 176.676 334.443C177.883 335.099 178.815 336.001 179.471 337.15C180.127 338.298 180.455 339.617 180.455 341.105C180.455 341.902 180.397 342.564 180.279 343.091H168.256C168.303 344.31 168.725 345.294 169.522 346.044C170.33 346.783 171.373 347.152 172.651 347.152C173.611 347.152 174.438 346.964 175.129 346.589C175.832 346.203 176.313 345.669 176.57 344.99H180.49ZM176.359 340.384C176.336 339.259 175.961 338.375 175.234 337.73C174.52 337.074 173.588 336.746 172.44 336.746C171.268 336.746 170.301 337.08 169.539 337.748C168.777 338.404 168.373 339.283 168.326 340.384H176.359ZM200.108 325.302V350H196.75L196.469 347.662C195.942 348.529 195.168 349.214 194.149 349.718C193.129 350.222 191.981 350.474 190.703 350.474C189.192 350.474 187.838 350.123 186.643 349.419C185.459 348.705 184.533 347.703 183.865 346.414C183.197 345.113 182.863 343.619 182.863 341.931C182.863 340.255 183.197 338.779 183.865 337.501C184.533 336.212 185.459 335.216 186.643 334.513C187.838 333.798 189.192 333.441 190.703 333.441C191.875 333.441 192.924 333.634 193.85 334.021C194.776 334.396 195.526 334.935 196.1 335.638V325.302H200.108ZM191.459 346.835C192.807 346.835 193.902 346.378 194.746 345.464C195.602 344.55 196.029 343.361 196.029 341.896C196.029 340.431 195.613 339.259 194.781 338.38C193.961 337.49 192.865 337.044 191.494 337.044C190.123 337.044 189.022 337.496 188.19 338.398C187.369 339.289 186.959 340.466 186.959 341.931C186.959 343.396 187.375 344.58 188.207 345.482C189.039 346.384 190.123 346.835 191.459 346.835ZM236.371 338.451C236.371 340.771 235.844 342.845 234.789 344.673C233.734 346.501 232.276 347.925 230.412 348.945C228.561 349.964 226.481 350.474 224.172 350.474C221.863 350.474 219.783 349.97 217.932 348.962C216.092 347.955 214.651 346.537 213.608 344.708C212.565 342.88 212.043 340.806 212.043 338.486C212.043 336.154 212.565 334.08 213.608 332.263C214.651 330.435 216.092 329.011 217.932 327.992C219.783 326.972 221.875 326.462 224.207 326.462C226.516 326.462 228.59 326.972 230.43 327.992C232.281 329.011 233.734 330.429 234.789 332.246C235.844 334.05 236.371 336.119 236.371 338.451ZM231.906 338.451C231.906 336.88 231.578 335.486 230.922 334.267C230.266 333.048 229.346 332.099 228.162 331.419C226.99 330.728 225.672 330.382 224.207 330.382C222.719 330.382 221.383 330.728 220.199 331.419C219.027 332.099 218.108 333.048 217.44 334.267C216.772 335.486 216.438 336.892 216.438 338.486C216.438 340.044 216.772 341.439 217.44 342.669C218.108 343.888 219.027 344.837 220.199 345.517C221.383 346.197 222.719 346.537 224.207 346.537C225.672 346.537 226.99 346.197 228.162 345.517C229.346 344.837 230.266 343.888 230.922 342.669C231.578 341.439 231.906 340.033 231.906 338.451ZM249.151 333.441C250.697 333.441 252.063 333.798 253.246 334.513C254.43 335.216 255.356 336.212 256.024 337.501C256.703 338.779 257.043 340.255 257.043 341.931C257.043 343.607 256.703 345.095 256.024 346.396C255.356 347.697 254.43 348.705 253.246 349.419C252.063 350.123 250.715 350.474 249.203 350.474C247.961 350.474 246.818 350.222 245.776 349.718C244.744 349.214 243.953 348.529 243.402 347.662L243.104 350H239.799V325.302H243.789V335.638C244.34 334.947 245.084 334.408 246.022 334.021C246.959 333.634 248.002 333.441 249.151 333.441ZM248.43 346.835C249.777 346.835 250.861 346.384 251.682 345.482C252.514 344.58 252.93 343.396 252.93 341.931C252.93 340.466 252.514 339.289 251.682 338.398C250.861 337.496 249.766 337.044 248.395 337.044C247.047 337.044 245.957 337.49 245.125 338.38C244.305 339.259 243.895 340.431 243.895 341.896C243.895 343.384 244.311 344.58 245.143 345.482C245.975 346.384 247.07 346.835 248.43 346.835ZM262.633 330.804C261.813 330.804 261.139 330.546 260.611 330.031C260.084 329.515 259.82 328.876 259.82 328.115C259.82 327.341 260.084 326.703 260.611 326.199C261.139 325.695 261.813 325.443 262.633 325.443C263.453 325.443 264.115 325.695 264.619 326.199C265.135 326.703 265.393 327.341 265.393 328.115C265.393 328.853 265.129 329.486 264.602 330.013C264.074 330.541 263.418 330.804 262.633 330.804ZM260.611 333.951H264.637V357.382H260.611V333.951ZM284.377 344.99C284.026 346.63 283.129 347.955 281.688 348.962C280.246 349.97 278.529 350.474 276.537 350.474C274.885 350.474 273.426 350.117 272.16 349.402C270.906 348.675 269.928 347.667 269.225 346.378C268.533 345.078 268.188 343.583 268.188 341.896C268.188 340.197 268.539 338.714 269.242 337.449C269.957 336.171 270.936 335.187 272.178 334.496C273.432 333.792 274.85 333.441 276.432 333.441C277.99 333.441 279.367 333.775 280.563 334.443C281.77 335.099 282.701 336.001 283.358 337.15C284.014 338.298 284.342 339.617 284.342 341.105C284.342 341.902 284.283 342.564 284.166 343.091H272.143C272.19 344.31 272.611 345.294 273.408 346.044C274.217 346.783 275.26 347.152 276.537 347.152C277.498 347.152 278.324 346.964 279.016 346.589C279.719 346.203 280.199 345.669 280.457 344.99H284.377ZM280.246 340.384C280.223 339.259 279.848 338.375 279.121 337.73C278.406 337.074 277.475 336.746 276.326 336.746C275.154 336.746 274.188 337.08 273.426 337.748C272.664 338.404 272.26 339.283 272.213 340.384H280.246ZM286.75 341.931C286.75 340.255 287.102 338.779 287.805 337.501C288.52 336.212 289.522 335.216 290.811 334.513C292.111 333.798 293.588 333.441 295.24 333.441C297.443 333.441 299.277 334.021 300.742 335.181C302.207 336.33 303.051 337.871 303.274 339.804H299.16C298.926 338.89 298.457 338.193 297.754 337.712C297.063 337.22 296.213 336.974 295.205 336.974C293.881 336.974 292.815 337.425 292.006 338.328C291.209 339.218 290.811 340.431 290.811 341.966C290.811 343.455 291.197 344.65 291.971 345.552C292.756 346.455 293.822 346.906 295.17 346.906C296.225 346.906 297.104 346.648 297.807 346.132C298.522 345.617 298.973 344.949 299.16 344.128H303.274C303.039 346.027 302.184 347.562 300.707 348.734C299.242 349.894 297.432 350.474 295.276 350.474C293.6 350.474 292.111 350.123 290.811 349.419C289.522 348.705 288.52 347.703 287.805 346.414C287.102 345.113 286.75 343.619 286.75 341.931ZM315.367 337.255H312.309V350H308.283V337.255H305.225V333.951H308.283V329.732H312.309V333.951H315.367V337.255ZM324.666 350.474C322.674 350.474 321.051 350.005 319.797 349.068C318.555 348.13 317.887 346.871 317.793 345.289H321.748C321.795 345.98 322.082 346.513 322.609 346.888C323.137 347.263 323.811 347.451 324.631 347.451C325.451 347.451 326.084 347.292 326.529 346.976C326.986 346.66 327.215 346.203 327.215 345.605C327.215 345.054 327.033 344.656 326.67 344.41C326.318 344.152 325.856 343.964 325.281 343.847L322.574 343.197C321.063 342.857 319.949 342.289 319.234 341.492C318.531 340.683 318.18 339.716 318.18 338.591C318.18 337.033 318.772 335.785 319.955 334.847C321.151 333.91 322.697 333.441 324.596 333.441C326.494 333.441 328.029 333.91 329.201 334.847C330.373 335.785 330.983 337.021 331.029 338.556H327.074C327.074 337.912 326.84 337.402 326.371 337.027C325.902 336.652 325.287 336.464 324.526 336.464C323.834 336.464 323.283 336.617 322.873 336.921C322.463 337.214 322.258 337.636 322.258 338.187C322.258 338.738 322.416 339.125 322.733 339.347C323.061 339.558 323.535 339.74 324.156 339.892L327.25 340.595C328.645 340.935 329.676 341.515 330.344 342.335C331.024 343.144 331.363 344.117 331.363 345.253C331.363 346.835 330.754 348.101 329.535 349.05C328.328 350 326.705 350.474 324.666 350.474Z" fill="#035755"/>
<path d="M3.0929 387.459H4.68372V394.93C4.68372 395.938 4.9679 396.665 5.53625 397.11C6.10461 397.555 6.80774 397.778 7.64563 397.778C8.52454 397.778 9.24231 397.541 9.79895 397.066C10.3556 396.591 10.6339 395.879 10.6339 394.93V387.459H12.2072V394.983C12.2072 395.92 12.005 396.706 11.6007 397.338C11.1964 397.965 10.6486 398.437 9.95715 398.753C9.27161 399.064 8.5011 399.219 7.64563 399.219C6.80774 399.219 6.04602 399.07 5.36047 398.771C4.68079 398.466 4.13293 397.998 3.71692 397.365C3.3009 396.726 3.0929 395.932 3.0929 394.983V387.459ZM17.3663 399.219C16.4406 399.219 15.6788 398.997 15.0812 398.551C14.4894 398.106 14.17 397.517 14.1232 396.785H15.5822C15.6173 397.195 15.7931 397.511 16.1095 397.734C16.4259 397.957 16.8448 398.068 17.3663 398.068C17.882 398.068 18.2833 397.965 18.5704 397.76C18.8575 397.555 19.0011 397.265 19.0011 396.89C19.0011 396.521 18.8868 396.257 18.6583 396.099C18.4298 395.935 18.1368 395.815 17.7794 395.739L16.3732 395.414C15.6759 395.255 15.1603 394.989 14.8263 394.614C14.4982 394.239 14.3341 393.782 14.3341 393.243C14.3341 392.51 14.6095 391.924 15.1603 391.485C15.7169 391.045 16.4376 390.826 17.3224 390.826C18.2247 390.826 18.9542 391.051 19.5109 391.502C20.0734 391.954 20.3663 392.551 20.3898 393.295H18.9308C18.9191 392.885 18.7609 392.563 18.4562 392.329C18.1573 392.094 17.7736 391.977 17.3048 391.977C16.8595 391.977 16.505 392.077 16.2413 392.276C15.9835 392.475 15.8546 392.753 15.8546 393.111C15.8546 393.445 15.9572 393.688 16.1622 393.84C16.3732 393.993 16.6486 394.104 16.9884 394.174L18.588 394.535C19.2501 394.681 19.7423 394.951 20.0646 395.343C20.3868 395.73 20.548 396.199 20.548 396.75C20.548 397.505 20.2579 398.106 19.6779 398.551C19.1036 398.997 18.3331 399.219 17.3663 399.219ZM29.7238 396.626C29.5421 397.406 29.1027 398.033 28.4054 398.507C27.7081 398.982 26.8937 399.219 25.962 399.219C25.1593 399.219 24.4503 399.043 23.8351 398.692C23.2257 398.334 22.7511 397.839 22.4113 397.207C22.0773 396.568 21.9103 395.833 21.9103 395C21.9103 394.174 22.0802 393.445 22.42 392.812C22.7657 392.173 23.2404 391.684 23.8439 391.344C24.4532 390.999 25.1417 390.826 25.9093 390.826C26.6652 390.826 27.3273 390.987 27.8956 391.309C28.464 391.625 28.9064 392.068 29.2228 392.636C29.545 393.205 29.7062 393.855 29.7062 394.587C29.7062 394.986 29.6827 395.288 29.6359 395.493H23.3868C23.4103 396.249 23.6593 396.855 24.1339 397.312C24.6085 397.763 25.2179 397.989 25.962 397.989C26.5128 397.989 26.9933 397.866 27.4034 397.62C27.8195 397.374 28.1066 397.042 28.2648 396.626H29.7238ZM28.1945 394.412C28.1827 393.703 27.9659 393.14 27.5441 392.724C27.1222 392.302 26.5714 392.091 25.8917 392.091C25.171 392.091 24.5822 392.302 24.1251 392.724C23.6681 393.14 23.4279 393.703 23.4044 394.412H28.1945ZM43.5841 388.901H40.0333V399H38.4689V388.901H34.8917V387.459H43.5841V388.901ZM45.1398 386.651H46.6339V392.144C46.8741 391.734 47.2257 391.412 47.6886 391.177C48.1515 390.943 48.6525 390.826 49.1915 390.826C50.0939 390.826 50.8087 391.113 51.3361 391.687C51.8634 392.255 52.1271 393.055 52.1271 394.086V399H50.6329V394.429C50.6329 393.615 50.4601 393.038 50.1144 392.698C49.7745 392.352 49.3409 392.179 48.8136 392.179C48.2159 392.179 47.7032 392.364 47.2755 392.733C46.8478 393.096 46.6339 393.618 46.6339 394.297V399H45.1398V386.651ZM61.839 396.626C61.6573 397.406 61.2179 398.033 60.5206 398.507C59.8234 398.982 59.0089 399.219 58.0773 399.219C57.2745 399.219 56.5656 399.043 55.9503 398.692C55.3409 398.334 54.8663 397.839 54.5265 397.207C54.1925 396.568 54.0255 395.833 54.0255 395C54.0255 394.174 54.1954 393.445 54.5353 392.812C54.881 392.173 55.3556 391.684 55.9591 391.344C56.5685 390.999 57.257 390.826 58.0245 390.826C58.7804 390.826 59.4425 390.987 60.0109 391.309C60.5792 391.625 61.0216 392.068 61.338 392.636C61.6603 393.205 61.8214 393.855 61.8214 394.587C61.8214 394.986 61.798 395.288 61.7511 395.493H55.5021C55.5255 396.249 55.7745 396.855 56.2491 397.312C56.7238 397.763 57.3331 397.989 58.0773 397.989C58.6281 397.989 59.1085 397.866 59.5187 397.62C59.9347 397.374 60.2218 397.042 60.38 396.626H61.839ZM60.3097 394.412C60.298 393.703 60.0812 393.14 59.6593 392.724C59.2374 392.302 58.6866 392.091 58.007 392.091C57.2863 392.091 56.6974 392.302 56.2404 392.724C55.7833 393.14 55.5431 393.703 55.5197 394.412H60.3097ZM75.6993 388.901H72.1486V399H70.5841V388.901H67.007V387.459H75.6993V388.901ZM77.7472 389.121C77.4366 389.121 77.1759 389.015 76.965 388.804C76.754 388.593 76.6486 388.333 76.6486 388.022C76.6486 387.723 76.754 387.471 76.965 387.266C77.1759 387.061 77.4366 386.958 77.7472 386.958C78.0695 386.958 78.3331 387.061 78.5382 387.266C78.7433 387.471 78.8458 387.723 78.8458 388.022C78.8458 388.321 78.7433 388.579 78.5382 388.795C78.339 389.012 78.0753 389.121 77.7472 389.121ZM77.0089 391.063H78.5031V399H77.0089V391.063ZM83.6534 399.219C82.7277 399.219 81.9659 398.997 81.3683 398.551C80.7765 398.106 80.4572 397.517 80.4103 396.785H81.8693C81.9044 397.195 82.0802 397.511 82.3966 397.734C82.713 397.957 83.132 398.068 83.6534 398.068C84.1691 398.068 84.5704 397.965 84.8575 397.76C85.1447 397.555 85.2882 397.265 85.2882 396.89C85.2882 396.521 85.174 396.257 84.9454 396.099C84.7169 395.935 84.424 395.815 84.0665 395.739L82.6603 395.414C81.963 395.255 81.4474 394.989 81.1134 394.614C80.7853 394.239 80.6212 393.782 80.6212 393.243C80.6212 392.51 80.8966 391.924 81.4474 391.485C82.004 391.045 82.7247 390.826 83.6095 390.826C84.5118 390.826 85.2413 391.051 85.798 391.502C86.3605 391.954 86.6534 392.551 86.6769 393.295H85.2179C85.2062 392.885 85.048 392.563 84.7433 392.329C84.4445 392.094 84.0607 391.977 83.5919 391.977C83.1466 391.977 82.7921 392.077 82.5284 392.276C82.2706 392.475 82.1417 392.753 82.1417 393.111C82.1417 393.445 82.2443 393.688 82.4493 393.84C82.6603 393.993 82.9357 394.104 83.2755 394.174L84.8751 394.535C85.5372 394.681 86.0294 394.951 86.3517 395.343C86.674 395.73 86.8351 396.199 86.8351 396.75C86.8351 397.505 86.545 398.106 85.965 398.551C85.3907 398.997 84.6202 399.219 83.6534 399.219ZM91.5109 399.219C90.5851 399.219 89.8234 398.997 89.2257 398.551C88.6339 398.106 88.3146 397.517 88.2677 396.785H89.7267C89.7618 397.195 89.9376 397.511 90.254 397.734C90.5704 397.957 90.9894 398.068 91.5109 398.068C92.0265 398.068 92.4279 397.965 92.715 397.76C93.0021 397.555 93.1456 397.265 93.1456 396.89C93.1456 396.521 93.0314 396.257 92.8029 396.099C92.5743 395.935 92.2814 395.815 91.924 395.739L90.5177 395.414C89.8204 395.255 89.3048 394.989 88.9708 394.614C88.6427 394.239 88.4786 393.782 88.4786 393.243C88.4786 392.51 88.754 391.924 89.3048 391.485C89.8615 391.045 90.5822 390.826 91.4669 390.826C92.3693 390.826 93.0988 391.051 93.6554 391.502C94.2179 391.954 94.5109 392.551 94.5343 393.295H93.0753C93.0636 392.885 92.9054 392.563 92.6007 392.329C92.3019 392.094 91.9181 391.977 91.4493 391.977C91.004 391.977 90.6495 392.077 90.3859 392.276C90.1281 392.475 89.9991 392.753 89.9991 393.111C89.9991 393.445 90.1017 393.688 90.3068 393.84C90.5177 393.993 90.7931 394.104 91.1329 394.174L92.7325 394.535C93.3947 394.681 93.8868 394.951 94.2091 395.343C94.5314 395.73 94.6925 396.199 94.6925 396.75C94.6925 397.505 94.4025 398.106 93.8224 398.551C93.2482 398.997 92.4777 399.219 91.5109 399.219ZM103.341 391.063V399H102.119L101.979 397.848C101.727 398.305 101.378 398.648 100.933 398.876C100.487 399.105 99.9777 399.219 99.4034 399.219C98.4777 399.219 97.7599 398.944 97.2501 398.393C96.7404 397.836 96.4855 397.089 96.4855 396.152V391.063H97.9796V395.871C97.9796 396.603 98.1437 397.125 98.4718 397.435C98.8058 397.746 99.2716 397.901 99.8693 397.901C100.467 397.901 100.944 397.696 101.302 397.286C101.665 396.87 101.847 396.319 101.847 395.633V391.063H103.341ZM112.974 396.626C112.792 397.406 112.353 398.033 111.655 398.507C110.958 398.982 110.144 399.219 109.212 399.219C108.409 399.219 107.7 399.043 107.085 398.692C106.476 398.334 106.001 397.839 105.661 397.207C105.327 396.568 105.16 395.833 105.16 395C105.16 394.174 105.33 393.445 105.67 392.812C106.016 392.173 106.49 391.684 107.094 391.344C107.703 390.999 108.392 390.826 109.159 390.826C109.915 390.826 110.577 390.987 111.146 391.309C111.714 391.625 112.156 392.068 112.473 392.636C112.795 393.205 112.956 393.855 112.956 394.587C112.956 394.986 112.933 395.288 112.886 395.493H106.637C106.66 396.249 106.909 396.855 107.384 397.312C107.859 397.763 108.468 397.989 109.212 397.989C109.763 397.989 110.243 397.866 110.653 397.62C111.069 397.374 111.357 397.042 111.515 396.626H112.974ZM111.444 394.412C111.433 393.703 111.216 393.14 110.794 392.724C110.372 392.302 109.821 392.091 109.142 392.091C108.421 392.091 107.832 392.302 107.375 392.724C106.918 393.14 106.678 393.703 106.654 394.412H111.444ZM119.812 387.459L121.411 392.882C121.698 393.843 121.933 394.664 122.114 395.343C122.296 396.017 122.404 396.439 122.44 396.609C122.955 395.003 123.447 393.442 123.916 391.924L125.234 387.767H126.904C127.291 388.945 127.748 390.386 128.276 392.091C128.803 393.791 129.263 395.296 129.655 396.609C129.702 396.427 129.822 395.985 130.016 395.282C130.209 394.579 130.443 393.767 130.719 392.847L132.301 387.459H133.962L130.411 399H128.917L128.223 396.75C128.176 396.58 128.097 396.331 127.985 396.002C127.874 395.674 127.742 395.252 127.59 394.737C127.244 393.659 126.925 392.663 126.632 391.749C126.345 390.834 126.154 390.21 126.061 389.876L123.899 396.75L123.195 399H121.684L118.159 387.459H119.812ZM135.491 386.651H136.985V392.144C137.226 391.734 137.577 391.412 138.04 391.177C138.503 390.943 139.004 390.826 139.543 390.826C140.445 390.826 141.16 391.113 141.688 391.687C142.215 392.255 142.479 393.055 142.479 394.086V399H140.984V394.429C140.984 393.615 140.812 393.038 140.466 392.698C140.126 392.352 139.693 392.179 139.165 392.179C138.568 392.179 138.055 392.364 137.627 392.733C137.199 393.096 136.985 393.618 136.985 394.297V399H135.491V386.651ZM145.687 389.121C145.376 389.121 145.115 389.015 144.904 388.804C144.693 388.593 144.588 388.333 144.588 388.022C144.588 387.723 144.693 387.471 144.904 387.266C145.115 387.061 145.376 386.958 145.687 386.958C146.009 386.958 146.273 387.061 146.478 387.266C146.683 387.471 146.785 387.723 146.785 388.022C146.785 388.321 146.683 388.579 146.478 388.795C146.278 389.012 146.015 389.121 145.687 389.121ZM144.948 391.063H146.443V399H144.948V391.063ZM148.974 386.651H150.468V399H148.974V386.651ZM160.259 396.626C160.077 397.406 159.638 398.033 158.941 398.507C158.243 398.982 157.429 399.219 156.497 399.219C155.694 399.219 154.985 399.043 154.37 398.692C153.761 398.334 153.286 397.839 152.946 397.207C152.612 396.568 152.445 395.833 152.445 395C152.445 394.174 152.615 393.445 152.955 392.812C153.301 392.173 153.776 391.684 154.379 391.344C154.988 390.999 155.677 390.826 156.444 390.826C157.2 390.826 157.862 390.987 158.431 391.309C158.999 391.625 159.442 392.068 159.758 392.636C160.08 393.205 160.241 393.855 160.241 394.587C160.241 394.986 160.218 395.288 160.171 395.493H153.922C153.945 396.249 154.194 396.855 154.669 397.312C155.144 397.763 155.753 397.989 156.497 397.989C157.048 397.989 157.528 397.866 157.939 397.62C158.355 397.374 158.642 397.042 158.8 396.626H160.259ZM158.73 394.412C158.718 393.703 158.501 393.14 158.079 392.724C157.657 392.302 157.107 392.091 156.427 392.091C155.706 392.091 155.117 392.302 154.66 392.724C154.203 393.14 153.963 393.703 153.94 394.412H158.73ZM166.104 390.615C166.104 389.595 166.464 388.778 167.185 388.163C167.905 387.542 168.855 387.231 170.032 387.231C170.8 387.231 171.48 387.369 172.071 387.644C172.669 387.919 173.132 388.306 173.46 388.804C173.788 389.302 173.952 389.874 173.952 390.518H172.353C172.341 389.932 172.118 389.463 171.685 389.112C171.257 388.754 170.689 388.576 169.98 388.576C169.294 388.576 168.746 388.749 168.336 389.094C167.932 389.434 167.73 389.879 167.73 390.43C167.73 390.993 167.902 391.397 168.248 391.643C168.6 391.889 169.045 392.08 169.584 392.214L171.526 392.733C172.259 392.915 172.895 393.254 173.434 393.752C173.973 394.25 174.242 394.945 174.242 395.835C174.242 396.867 173.864 397.69 173.109 398.305C172.353 398.915 171.345 399.219 170.085 399.219C168.872 399.219 167.882 398.926 167.114 398.34C166.347 397.749 165.928 396.937 165.858 395.906H167.492C167.504 396.527 167.756 397.016 168.248 397.374C168.74 397.725 169.37 397.901 170.138 397.901C170.905 397.901 171.512 397.728 171.957 397.382C172.402 397.031 172.625 396.562 172.625 395.976C172.625 395.437 172.461 395.042 172.133 394.79C171.811 394.538 171.403 394.338 170.911 394.192L168.951 393.691C168.137 393.486 167.457 393.137 166.912 392.645C166.373 392.153 166.104 391.476 166.104 390.615ZM180.131 390.826C181.033 390.826 181.754 391.113 182.293 391.687C182.832 392.255 183.102 393.055 183.102 394.086V399H181.59V394.429C181.59 392.929 180.984 392.179 179.771 392.179C179.109 392.179 178.584 392.378 178.197 392.777C177.817 393.169 177.626 393.676 177.626 394.297V398.982H176.132V391.063H177.38L177.521 392.179C177.761 391.769 178.118 391.441 178.593 391.195C179.068 390.949 179.58 390.826 180.131 390.826ZM192.796 396.626C192.614 397.406 192.175 398.033 191.478 398.507C190.78 398.982 189.966 399.219 189.034 399.219C188.232 399.219 187.523 399.043 186.907 398.692C186.298 398.334 185.823 397.839 185.484 397.207C185.15 396.568 184.983 395.833 184.983 395C184.983 394.174 185.152 393.445 185.492 392.812C185.838 392.173 186.313 391.684 186.916 391.344C187.526 390.999 188.214 390.826 188.982 390.826C189.737 390.826 190.4 390.987 190.968 391.309C191.536 391.625 191.979 392.068 192.295 392.636C192.617 393.205 192.778 393.855 192.778 394.587C192.778 394.986 192.755 395.288 192.708 395.493H186.459C186.483 396.249 186.732 396.855 187.206 397.312C187.681 397.763 188.29 397.989 189.034 397.989C189.585 397.989 190.066 397.866 190.476 397.62C190.892 397.374 191.179 397.042 191.337 396.626H192.796ZM191.267 394.412C191.255 393.703 191.038 393.14 190.616 392.724C190.194 392.302 189.644 392.091 188.964 392.091C188.243 392.091 187.654 392.302 187.197 392.724C186.74 393.14 186.5 393.703 186.477 394.412H191.267ZM201.954 396.626C201.773 397.406 201.333 398.033 200.636 398.507C199.939 398.982 199.124 399.219 198.193 399.219C197.39 399.219 196.681 399.043 196.066 398.692C195.456 398.334 194.982 397.839 194.642 397.207C194.308 396.568 194.141 395.833 194.141 395C194.141 394.174 194.311 393.445 194.651 392.812C194.996 392.173 195.471 391.684 196.074 391.344C196.684 390.999 197.372 390.826 198.14 390.826C198.896 390.826 199.558 390.987 200.126 391.309C200.694 391.625 201.137 392.068 201.453 392.636C201.776 393.205 201.937 393.855 201.937 394.587C201.937 394.986 201.913 395.288 201.866 395.493H195.617C195.641 396.249 195.89 396.855 196.364 397.312C196.839 397.763 197.448 397.989 198.193 397.989C198.743 397.989 199.224 397.866 199.634 397.62C200.05 397.374 200.337 397.042 200.495 396.626H201.954ZM200.425 394.412C200.413 393.703 200.196 393.14 199.775 392.724C199.353 392.302 198.802 392.091 198.122 392.091C197.401 392.091 196.813 392.302 196.356 392.724C195.899 393.14 195.658 393.703 195.635 394.412H200.425ZM203.44 397.725L207.781 392.373H203.44V391.063H209.601V392.373L205.224 397.664H209.601V399H203.44V397.725ZM212.519 389.121C212.208 389.121 211.947 389.015 211.736 388.804C211.526 388.593 211.42 388.333 211.42 388.022C211.42 387.723 211.526 387.471 211.736 387.266C211.947 387.061 212.208 386.958 212.519 386.958C212.841 386.958 213.105 387.061 213.31 387.266C213.515 387.471 213.617 387.723 213.617 388.022C213.617 388.321 213.515 388.579 213.31 388.795C213.11 389.012 212.847 389.121 212.519 389.121ZM211.78 391.063H213.275V399H211.78V391.063ZM219.805 390.826C220.707 390.826 221.428 391.113 221.967 391.687C222.506 392.255 222.776 393.055 222.776 394.086V399H221.264V394.429C221.264 392.929 220.657 392.179 219.444 392.179C218.782 392.179 218.258 392.378 217.871 392.777C217.49 393.169 217.3 393.676 217.3 394.297V398.982H215.806V391.063H217.054L217.194 392.179C217.435 391.769 217.792 391.441 218.267 391.195C218.741 390.949 219.254 390.826 219.805 390.826ZM232.795 391.063V398.964C232.795 400.119 232.429 401.042 231.696 401.733C230.964 402.43 229.98 402.779 228.743 402.779C227.665 402.779 226.772 402.5 226.063 401.944C225.354 401.387 224.932 400.623 224.797 399.65H226.274C226.391 400.224 226.669 400.669 227.109 400.986C227.548 401.308 228.093 401.469 228.743 401.469C229.558 401.469 230.188 401.247 230.633 400.801C231.078 400.356 231.301 399.755 231.301 399V397.33C231.026 397.787 230.633 398.144 230.123 398.402C229.619 398.654 229.045 398.78 228.401 398.78C227.656 398.78 226.997 398.61 226.423 398.27C225.855 397.93 225.418 397.461 225.113 396.864C224.809 396.26 224.656 395.586 224.656 394.842C224.656 394.086 224.812 393.404 225.122 392.794C225.433 392.179 225.875 391.699 226.449 391.353C227.029 391.001 227.697 390.826 228.453 390.826C229.115 390.826 229.695 390.96 230.193 391.23C230.692 391.5 231.078 391.875 231.354 392.355L231.442 391.063H232.795ZM228.655 397.47C229.411 397.47 230.024 397.215 230.492 396.706C230.967 396.196 231.204 395.563 231.204 394.807C231.204 394.051 230.97 393.418 230.501 392.909C230.038 392.399 229.423 392.144 228.655 392.144C227.9 392.144 227.299 392.399 226.854 392.909C226.408 393.418 226.186 394.057 226.186 394.825C226.186 395.592 226.411 396.225 226.862 396.723C227.314 397.221 227.911 397.47 228.655 397.47ZM235.81 396.802C236.185 396.802 236.501 396.94 236.759 397.215C237.017 397.491 237.146 397.869 237.146 398.349C237.146 399.07 236.908 399.685 236.434 400.195C235.959 400.705 235.338 401.003 234.57 401.091V400.529C235.051 400.447 235.426 400.259 235.695 399.966C235.965 399.679 236.088 399.351 236.065 398.982C235.947 399.041 235.81 399.07 235.651 399.07C235.353 399.07 235.101 398.976 234.896 398.789C234.691 398.595 234.588 398.329 234.588 397.989C234.588 397.643 234.702 397.359 234.931 397.136C235.159 396.914 235.452 396.802 235.81 396.802ZM239.281 399V387.459H240.846V399H239.281ZM247.402 390.826C248.305 390.826 249.026 391.113 249.565 391.687C250.104 392.255 250.373 393.055 250.373 394.086V399H248.861V394.429C248.861 392.929 248.255 392.179 247.042 392.179C246.38 392.179 245.856 392.378 245.469 392.777C245.088 393.169 244.898 393.676 244.898 394.297V398.982H243.403V391.063H244.651L244.792 392.179C245.032 391.769 245.39 391.441 245.864 391.195C246.339 390.949 246.852 390.826 247.402 390.826ZM264.77 388.901H261.219V399H259.654V388.901H256.077V387.459H264.77V388.901ZM266.325 386.651H267.819V392.144C268.06 391.734 268.411 391.412 268.874 391.177C269.337 390.943 269.838 390.826 270.377 390.826C271.279 390.826 271.994 391.113 272.522 391.687C273.049 392.255 273.313 393.055 273.313 394.086V399H271.818V394.429C271.818 393.615 271.646 393.038 271.3 392.698C270.96 392.352 270.526 392.179 269.999 392.179C269.401 392.179 268.889 392.364 268.461 392.733C268.033 393.096 267.819 393.618 267.819 394.297V399H266.325V386.651ZM276.521 389.121C276.21 389.121 275.949 389.015 275.738 388.804C275.527 388.593 275.422 388.333 275.422 388.022C275.422 387.723 275.527 387.471 275.738 387.266C275.949 387.061 276.21 386.958 276.521 386.958C276.843 386.958 277.107 387.061 277.312 387.266C277.517 387.471 277.619 387.723 277.619 388.022C277.619 388.321 277.517 388.579 277.312 388.795C277.112 389.012 276.849 389.121 276.521 389.121ZM275.782 391.063H277.276V399H275.782V391.063ZM282.427 399.219C281.501 399.219 280.739 398.997 280.142 398.551C279.55 398.106 279.231 397.517 279.184 396.785H280.643C280.678 397.195 280.854 397.511 281.17 397.734C281.486 397.957 281.905 398.068 282.427 398.068C282.943 398.068 283.344 397.965 283.631 397.76C283.918 397.555 284.062 397.265 284.062 396.89C284.062 396.521 283.947 396.257 283.719 396.099C283.49 395.935 283.197 395.815 282.84 395.739L281.434 395.414C280.736 395.255 280.221 394.989 279.887 394.614C279.559 394.239 279.395 393.782 279.395 393.243C279.395 392.51 279.67 391.924 280.221 391.485C280.777 391.045 281.498 390.826 282.383 390.826C283.285 390.826 284.015 391.051 284.571 391.502C285.134 391.954 285.427 392.551 285.45 393.295H283.991C283.98 392.885 283.821 392.563 283.517 392.329C283.218 392.094 282.834 391.977 282.365 391.977C281.92 391.977 281.566 392.077 281.302 392.276C281.044 392.475 280.915 392.753 280.915 393.111C280.915 393.445 281.018 393.688 281.223 393.84C281.434 393.993 281.709 394.104 282.049 394.174L283.649 394.535C284.311 394.681 284.803 394.951 285.125 395.343C285.447 395.73 285.609 396.199 285.609 396.75C285.609 397.505 285.318 398.106 284.738 398.551C284.164 398.997 283.394 399.219 282.427 399.219ZM292.534 387.459L294.134 392.882C294.421 393.843 294.655 394.664 294.837 395.343C295.019 396.017 295.127 396.439 295.162 396.609C295.678 395.003 296.17 393.442 296.639 391.924L297.957 387.767H299.627C300.014 388.945 300.471 390.386 300.998 392.091C301.526 393.791 301.985 395.296 302.378 396.609C302.425 396.427 302.545 395.985 302.738 395.282C302.932 394.579 303.166 393.767 303.442 392.847L305.024 387.459H306.685L303.134 399H301.64L300.945 396.75C300.899 396.58 300.819 396.331 300.708 396.002C300.597 395.674 300.465 395.252 300.313 394.737C299.967 393.659 299.648 392.663 299.355 391.749C299.068 390.834 298.877 390.21 298.783 389.876L296.621 396.75L295.918 399H294.406L290.882 387.459H292.534ZM315.307 391.063V399H313.901V397.593C313.637 398.085 313.233 398.481 312.688 398.78C312.143 399.073 311.527 399.219 310.842 399.219C310.109 399.219 309.456 399.046 308.882 398.701C308.314 398.349 307.871 397.86 307.555 397.233C307.238 396.6 307.08 395.874 307.08 395.053C307.08 394.215 307.244 393.477 307.572 392.838C307.906 392.194 308.363 391.699 308.943 391.353C309.524 391.001 310.192 390.826 310.947 390.826C311.621 390.826 312.216 390.96 312.732 391.23C313.247 391.5 313.649 391.869 313.936 392.337L314.068 391.063H315.307ZM311.167 397.866C311.946 397.866 312.576 397.605 313.057 397.083C313.537 396.562 313.777 395.862 313.777 394.983C313.777 394.133 313.54 393.454 313.066 392.944C312.591 392.434 311.97 392.179 311.202 392.179C310.411 392.179 309.781 392.44 309.313 392.961C308.844 393.483 308.609 394.168 308.609 395.018C308.609 395.868 308.844 396.556 309.313 397.083C309.781 397.605 310.4 397.866 311.167 397.866ZM324.869 391.063L321.239 400.546C320.952 401.255 320.592 401.789 320.158 402.146C319.725 402.509 319.13 402.691 318.374 402.691C317.976 402.691 317.563 402.629 317.135 402.506V401.285C317.182 401.296 317.299 401.32 317.486 401.355C317.68 401.39 317.897 401.408 318.137 401.408C318.652 401.408 319.03 401.305 319.271 401.1C319.511 400.901 319.71 400.59 319.868 400.168L320.158 399.413L316.757 391.063H318.357L320.861 397.541L323.287 391.063H324.869ZM325.212 396.802C325.587 396.802 325.903 396.94 326.161 397.215C326.419 397.491 326.548 397.869 326.548 398.349C326.548 399.07 326.311 399.685 325.836 400.195C325.361 400.705 324.74 401.003 323.973 401.091V400.529C324.453 400.447 324.828 400.259 325.098 399.966C325.367 399.679 325.49 399.351 325.467 398.982C325.35 399.041 325.212 399.07 325.054 399.07C324.755 399.07 324.503 398.976 324.298 398.789C324.093 398.595 323.99 398.329 323.99 397.989C323.99 397.643 324.105 397.359 324.333 397.136C324.562 396.914 324.855 396.802 325.212 396.802ZM333.614 387.459L335.17 390.158C335.516 390.744 335.823 391.294 336.093 391.81C336.362 392.32 336.532 392.645 336.603 392.786C336.685 392.639 336.855 392.332 337.112 391.863C337.376 391.388 337.698 390.82 338.079 390.158L339.626 387.459H341.375L337.394 394.245V399H335.829V394.245L331.804 387.459H333.614ZM340.76 395.036C340.76 394.245 340.939 393.533 341.296 392.9C341.659 392.261 342.163 391.757 342.808 391.388C343.458 391.013 344.196 390.826 345.023 390.826C345.849 390.826 346.59 391.013 347.246 391.388C347.902 391.757 348.409 392.261 348.767 392.9C349.13 393.533 349.312 394.245 349.312 395.036C349.312 395.815 349.127 396.524 348.758 397.163C348.395 397.801 347.888 398.305 347.237 398.674C346.593 399.038 345.855 399.219 345.023 399.219C344.208 399.219 343.476 399.038 342.825 398.674C342.181 398.305 341.674 397.804 341.305 397.171C340.942 396.533 340.76 395.821 340.76 395.036ZM342.307 395.036C342.307 395.856 342.562 396.536 343.071 397.075C343.581 397.614 344.232 397.883 345.023 397.883C345.837 397.883 346.499 397.614 347.009 397.075C347.525 396.536 347.782 395.856 347.782 395.036C347.782 394.209 347.527 393.524 347.018 392.979C346.508 392.434 345.843 392.162 345.023 392.162C344.232 392.162 343.581 392.434 343.071 392.979C342.562 393.524 342.307 394.209 342.307 395.036ZM357.978 391.063V399H356.756L356.615 397.848C356.363 398.305 356.015 398.648 355.569 398.876C355.124 399.105 354.614 399.219 354.04 399.219C353.114 399.219 352.397 398.944 351.887 398.393C351.377 397.836 351.122 397.089 351.122 396.152V391.063H352.616V395.871C352.616 396.603 352.78 397.125 353.109 397.435C353.443 397.746 353.908 397.901 354.506 397.901C355.104 397.901 355.581 397.696 355.939 397.286C356.302 396.87 356.484 396.319 356.484 395.633V391.063H357.978ZM86.5978 432.219C85.4611 432.219 84.4503 431.967 83.5656 431.463C82.6866 430.959 82.0011 430.253 81.5089 429.345C81.0167 428.437 80.7706 427.397 80.7706 426.225C80.7706 425.047 81.0138 424.007 81.5001 423.105C81.9865 422.197 82.672 421.491 83.5568 420.987C84.4474 420.483 85.4611 420.231 86.5978 420.231C87.5001 420.231 88.3322 420.386 89.0939 420.697C89.8556 421.007 90.4913 421.453 91.0011 422.033C91.5109 422.607 91.8507 423.278 92.0206 424.045H90.2892C90.0724 423.348 89.6241 422.78 88.9445 422.34C88.2706 421.901 87.4767 421.681 86.5626 421.681C85.7482 421.681 85.0245 421.872 84.3917 422.252C83.7648 422.633 83.2755 423.167 82.924 423.852C82.5782 424.532 82.4054 425.329 82.4054 426.243C82.4054 427.157 82.5782 427.957 82.924 428.642C83.2755 429.322 83.7648 429.846 84.3917 430.215C85.0245 430.579 85.7482 430.76 86.5626 430.76C87.465 430.76 88.2531 430.546 88.9269 430.119C89.6066 429.691 90.0607 429.117 90.2892 428.396H92.0206C91.8624 429.152 91.5314 429.82 91.0275 430.4C90.5236 430.974 89.8878 431.422 89.1202 431.745C88.3527 432.061 87.5118 432.219 86.5978 432.219ZM101.355 424.063V432H99.9484V430.593C99.6847 431.085 99.2804 431.481 98.7355 431.78C98.1906 432.073 97.5753 432.219 96.8898 432.219C96.1573 432.219 95.504 432.046 94.9298 431.701C94.3615 431.349 93.9191 430.86 93.6027 430.233C93.2863 429.6 93.1281 428.874 93.1281 428.053C93.1281 427.215 93.2921 426.477 93.6202 425.838C93.9542 425.194 94.4113 424.699 94.9913 424.353C95.5714 424.001 96.2394 423.826 96.9952 423.826C97.6691 423.826 98.2638 423.96 98.7794 424.23C99.295 424.5 99.6964 424.869 99.9835 425.337L100.115 424.063H101.355ZM97.215 430.866C97.9943 430.866 98.6241 430.605 99.1046 430.083C99.5851 429.562 99.8253 428.862 99.8253 427.983C99.8253 427.133 99.588 426.454 99.1134 425.944C98.6388 425.434 98.0177 425.179 97.2501 425.179C96.4591 425.179 95.8292 425.44 95.3605 425.961C94.8917 426.483 94.6573 427.168 94.6573 428.018C94.6573 428.868 94.8917 429.556 95.3605 430.083C95.8292 430.605 96.4474 430.866 97.215 430.866ZM107.823 423.826C108.726 423.826 109.446 424.113 109.985 424.687C110.525 425.255 110.794 426.055 110.794 427.086V432H109.282V427.429C109.282 425.929 108.676 425.179 107.463 425.179C106.801 425.179 106.276 425.378 105.89 425.777C105.509 426.169 105.318 426.676 105.318 427.297V431.982H103.824V424.063H105.072L105.213 425.179C105.453 424.769 105.811 424.441 106.285 424.195C106.76 423.949 107.273 423.826 107.823 423.826ZM122.167 420.459C123.316 420.459 124.227 420.796 124.901 421.47C125.574 422.144 125.911 423.043 125.911 424.168C125.911 424.877 125.756 425.513 125.445 426.076C125.141 426.638 124.704 427.081 124.136 427.403C123.568 427.719 122.9 427.877 122.132 427.877H119.179V432H117.614V420.459H122.167ZM121.859 426.506C122.627 426.506 123.222 426.284 123.644 425.838C124.071 425.387 124.285 424.813 124.285 424.116C124.285 423.454 124.077 422.915 123.661 422.499C123.251 422.077 122.674 421.866 121.93 421.866H119.179V426.506H121.859ZM131.053 423.993C131.317 423.993 131.568 424.016 131.809 424.063V425.337C131.674 425.314 131.486 425.302 131.246 425.302C130.526 425.302 129.969 425.516 129.576 425.944C129.19 426.372 128.996 426.963 128.996 427.719V432H127.502V424.063H128.82L128.996 425.267C129.131 424.857 129.383 424.543 129.752 424.327C130.127 424.104 130.561 423.993 131.053 423.993ZM132.732 428.036C132.732 427.245 132.91 426.533 133.268 425.9C133.631 425.261 134.135 424.757 134.779 424.388C135.43 424.013 136.168 423.826 136.994 423.826C137.82 423.826 138.562 424.013 139.218 424.388C139.874 424.757 140.381 425.261 140.738 425.9C141.102 426.533 141.283 427.245 141.283 428.036C141.283 428.815 141.099 429.524 140.73 430.163C140.366 430.801 139.859 431.305 139.209 431.674C138.565 432.038 137.826 432.219 136.994 432.219C136.18 432.219 135.447 432.038 134.797 431.674C134.152 431.305 133.646 430.804 133.276 430.171C132.913 429.533 132.732 428.821 132.732 428.036ZM134.278 428.036C134.278 428.856 134.533 429.536 135.043 430.075C135.553 430.614 136.203 430.883 136.994 430.883C137.809 430.883 138.471 430.614 138.981 430.075C139.496 429.536 139.754 428.856 139.754 428.036C139.754 427.209 139.499 426.524 138.989 425.979C138.48 425.434 137.815 425.162 136.994 425.162C136.203 425.162 135.553 425.434 135.043 425.979C134.533 426.524 134.278 427.209 134.278 428.036ZM146.943 425.302H145.379V432H143.885V425.302H142.338V424.063H143.885V421.954H145.379V424.063H146.943V425.302ZM155.75 429.626C155.568 430.406 155.129 431.033 154.432 431.507C153.734 431.982 152.92 432.219 151.988 432.219C151.186 432.219 150.477 432.043 149.861 431.692C149.252 431.334 148.777 430.839 148.438 430.207C148.104 429.568 147.937 428.833 147.937 428C147.937 427.174 148.107 426.445 148.446 425.812C148.792 425.173 149.267 424.684 149.87 424.344C150.48 423.999 151.168 423.826 151.936 423.826C152.692 423.826 153.354 423.987 153.922 424.309C154.49 424.625 154.933 425.068 155.249 425.636C155.571 426.205 155.733 426.855 155.733 427.587C155.733 427.986 155.709 428.288 155.662 428.493H149.413C149.437 429.249 149.686 429.855 150.16 430.312C150.635 430.763 151.244 430.989 151.988 430.989C152.539 430.989 153.02 430.866 153.43 430.62C153.846 430.374 154.133 430.042 154.291 429.626H155.75ZM154.221 427.412C154.209 426.703 153.992 426.14 153.57 425.724C153.149 425.302 152.598 425.091 151.918 425.091C151.197 425.091 150.609 425.302 150.151 425.724C149.694 426.14 149.454 426.703 149.431 427.412H154.221ZM157.095 428.018C157.095 427.192 157.268 426.462 157.613 425.83C157.965 425.191 158.448 424.699 159.064 424.353C159.685 424.001 160.397 423.826 161.199 423.826C162.219 423.826 163.077 424.086 163.775 424.608C164.472 425.129 164.891 425.835 165.031 426.726H163.502C163.385 426.234 163.118 425.847 162.702 425.566C162.286 425.285 161.779 425.144 161.182 425.144C160.414 425.144 159.793 425.402 159.318 425.917C158.844 426.433 158.607 427.139 158.607 428.036C158.607 428.897 158.835 429.591 159.292 430.119C159.749 430.64 160.379 430.901 161.182 430.901C161.779 430.901 162.289 430.757 162.711 430.47C163.133 430.183 163.397 429.805 163.502 429.336H165.031C164.885 430.198 164.46 430.895 163.757 431.428C163.06 431.956 162.213 432.219 161.217 432.219C160.402 432.219 159.682 432.046 159.055 431.701C158.434 431.349 157.95 430.857 157.605 430.224C157.265 429.585 157.095 428.85 157.095 428.018ZM170.779 425.302H169.215V432H167.721V425.302H166.174V424.063H167.721V421.954H169.215V424.063H170.779V425.302ZM177.494 420.459L179.05 423.158C179.396 423.744 179.703 424.294 179.973 424.81C180.242 425.32 180.412 425.645 180.483 425.786C180.565 425.639 180.734 425.332 180.992 424.863C181.256 424.388 181.578 423.82 181.959 423.158L183.506 420.459H185.255L181.274 427.245V432H179.709V427.245L175.684 420.459H177.494ZM184.64 428.036C184.64 427.245 184.818 426.533 185.176 425.9C185.539 425.261 186.043 424.757 186.688 424.388C187.338 424.013 188.076 423.826 188.902 423.826C189.729 423.826 190.47 424.013 191.126 424.388C191.782 424.757 192.289 425.261 192.647 425.9C193.01 426.533 193.192 427.245 193.192 428.036C193.192 428.815 193.007 429.524 192.638 430.163C192.275 430.801 191.768 431.305 191.117 431.674C190.473 432.038 189.734 432.219 188.902 432.219C188.088 432.219 187.356 432.038 186.705 431.674C186.061 431.305 185.554 430.804 185.185 430.171C184.821 429.533 184.64 428.821 184.64 428.036ZM186.187 428.036C186.187 428.856 186.442 429.536 186.951 430.075C187.461 430.614 188.111 430.883 188.902 430.883C189.717 430.883 190.379 430.614 190.889 430.075C191.404 429.536 191.662 428.856 191.662 428.036C191.662 427.209 191.407 426.524 190.898 425.979C190.388 425.434 189.723 425.162 188.902 425.162C188.111 425.162 187.461 425.434 186.951 425.979C186.442 426.524 186.187 427.209 186.187 428.036ZM201.858 424.063V432H200.636L200.495 430.848C200.243 431.305 199.895 431.648 199.449 431.876C199.004 432.105 198.494 432.219 197.92 432.219C196.994 432.219 196.276 431.944 195.767 431.393C195.257 430.836 195.002 430.089 195.002 429.152V424.063H196.496V428.871C196.496 429.603 196.66 430.125 196.988 430.435C197.322 430.746 197.788 430.901 198.386 430.901C198.984 430.901 199.461 430.696 199.818 430.286C200.182 429.87 200.363 429.319 200.363 428.633V424.063H201.858ZM207.834 423.993C208.098 423.993 208.35 424.016 208.59 424.063V425.337C208.455 425.314 208.268 425.302 208.027 425.302C207.307 425.302 206.75 425.516 206.358 425.944C205.971 426.372 205.777 426.963 205.777 427.719V432H204.283V424.063H205.602L205.777 425.267C205.912 424.857 206.164 424.543 206.533 424.327C206.908 424.104 207.342 423.993 207.834 423.993ZM218.372 420.459C219.497 420.459 220.499 420.706 221.378 421.198C222.263 421.69 222.951 422.375 223.443 423.254C223.936 424.127 224.182 425.129 224.182 426.26C224.182 427.391 223.939 428.387 223.452 429.249C222.972 430.11 222.289 430.784 221.404 431.27C220.52 431.756 219.509 432 218.372 432H214.523V420.459H218.372ZM218.267 430.558C219.116 430.558 219.86 430.379 220.499 430.022C221.144 429.659 221.642 429.152 221.993 428.501C222.351 427.845 222.529 427.098 222.529 426.26C222.529 425.399 222.351 424.637 221.993 423.975C221.642 423.313 221.144 422.803 220.499 422.446C219.86 422.083 219.116 421.901 218.267 421.901H216.087V430.558H218.267ZM229.701 423.993C229.965 423.993 230.217 424.016 230.457 424.063V425.337C230.322 425.314 230.135 425.302 229.895 425.302C229.174 425.302 228.617 425.516 228.225 425.944C227.838 426.372 227.645 426.963 227.645 427.719V432H226.151V424.063H227.469L227.645 425.267C227.779 424.857 228.031 424.543 228.401 424.327C228.776 424.104 229.209 423.993 229.701 423.993ZM231.38 428.036C231.38 427.245 231.559 426.533 231.916 425.9C232.279 425.261 232.783 424.757 233.428 424.388C234.078 424.013 234.817 423.826 235.643 423.826C236.469 423.826 237.21 424.013 237.866 424.388C238.523 424.757 239.029 425.261 239.387 425.9C239.75 426.533 239.932 427.245 239.932 428.036C239.932 428.815 239.747 429.524 239.378 430.163C239.015 430.801 238.508 431.305 237.858 431.674C237.213 432.038 236.475 432.219 235.643 432.219C234.828 432.219 234.096 432.038 233.445 431.674C232.801 431.305 232.294 430.804 231.925 430.171C231.562 429.533 231.38 428.821 231.38 428.036ZM232.927 428.036C232.927 428.856 233.182 429.536 233.692 430.075C234.201 430.614 234.852 430.883 235.643 430.883C236.457 430.883 237.119 430.614 237.629 430.075C238.145 429.536 238.402 428.856 238.402 428.036C238.402 427.209 238.148 426.524 237.638 425.979C237.128 425.434 236.463 425.162 235.643 425.162C234.852 425.162 234.201 425.434 233.692 425.979C233.182 426.524 232.927 427.209 232.927 428.036ZM246.242 423.826C246.986 423.826 247.646 424.001 248.22 424.353C248.8 424.699 249.254 425.194 249.582 425.838C249.91 426.477 250.074 427.209 250.074 428.036C250.074 428.85 249.91 429.577 249.582 430.215C249.254 430.854 248.797 431.349 248.211 431.701C247.631 432.046 246.969 432.219 246.225 432.219C245.574 432.219 244.994 432.096 244.484 431.85C243.975 431.604 243.582 431.258 243.307 430.813V435.542H241.848V424.063H243.078L243.201 425.469C243.465 424.977 243.869 424.582 244.414 424.283C244.959 423.978 245.568 423.826 246.242 423.826ZM245.97 430.883C246.749 430.883 247.376 430.62 247.851 430.092C248.325 429.565 248.563 428.879 248.563 428.036C248.563 427.174 248.325 426.486 247.851 425.97C247.376 425.455 246.755 425.197 245.987 425.197C245.208 425.197 244.584 425.458 244.115 425.979C243.652 426.5 243.421 427.201 243.421 428.08C243.421 428.941 243.652 429.624 244.115 430.127C244.584 430.631 245.202 430.883 245.97 430.883ZM252.061 419.651H253.555V432H252.061V419.651ZM263.346 429.626C263.164 430.406 262.725 431.033 262.027 431.507C261.33 431.982 260.516 432.219 259.584 432.219C258.781 432.219 258.072 432.043 257.457 431.692C256.848 431.334 256.373 430.839 256.033 430.207C255.699 429.568 255.532 428.833 255.532 428C255.532 427.174 255.702 426.445 256.042 425.812C256.388 425.173 256.862 424.684 257.466 424.344C258.075 423.999 258.764 423.826 259.531 423.826C260.287 423.826 260.949 423.987 261.518 424.309C262.086 424.625 262.528 425.068 262.845 425.636C263.167 426.205 263.328 426.855 263.328 427.587C263.328 427.986 263.305 428.288 263.258 428.493H257.009C257.032 429.249 257.281 429.855 257.756 430.312C258.231 430.763 258.84 430.989 259.584 430.989C260.135 430.989 260.615 430.866 261.026 430.62C261.442 430.374 261.729 430.042 261.887 429.626H263.346ZM261.817 427.412C261.805 426.703 261.588 426.14 261.166 425.724C260.744 425.302 260.193 425.091 259.514 425.091C258.793 425.091 258.204 425.302 257.747 425.724C257.29 426.14 257.05 426.703 257.026 427.412H261.817ZM268.936 425.302H267.371V432H265.877V425.302H264.33V424.063H265.877V421.954H267.371V424.063H268.936V425.302ZM273.471 432.219C272.545 432.219 271.783 431.997 271.186 431.551C270.594 431.106 270.275 430.517 270.228 429.785H271.687C271.722 430.195 271.898 430.511 272.214 430.734C272.53 430.957 272.949 431.068 273.471 431.068C273.986 431.068 274.388 430.965 274.675 430.76C274.962 430.555 275.106 430.265 275.106 429.89C275.106 429.521 274.991 429.257 274.763 429.099C274.534 428.935 274.241 428.815 273.884 428.739L272.478 428.414C271.78 428.255 271.265 427.989 270.931 427.614C270.603 427.239 270.439 426.782 270.439 426.243C270.439 425.51 270.714 424.924 271.265 424.485C271.821 424.045 272.542 423.826 273.427 423.826C274.329 423.826 275.059 424.051 275.615 424.502C276.178 424.954 276.471 425.551 276.494 426.295H275.035C275.024 425.885 274.865 425.563 274.561 425.329C274.262 425.094 273.878 424.977 273.409 424.977C272.964 424.977 272.609 425.077 272.346 425.276C272.088 425.475 271.959 425.753 271.959 426.111C271.959 426.445 272.062 426.688 272.267 426.84C272.478 426.993 272.753 427.104 273.093 427.174L274.693 427.535C275.355 427.681 275.847 427.951 276.169 428.343C276.491 428.73 276.652 429.199 276.652 429.75C276.652 430.505 276.362 431.106 275.782 431.551C275.208 431.997 274.438 432.219 273.471 432.219ZM279.149 432.219C278.797 432.219 278.51 432.108 278.287 431.885C278.07 431.663 277.962 431.396 277.962 431.085C277.962 430.763 278.07 430.488 278.287 430.259C278.51 430.025 278.797 429.908 279.149 429.908C279.483 429.908 279.761 430.022 279.984 430.25C280.206 430.479 280.318 430.757 280.318 431.085C280.318 431.396 280.206 431.663 279.984 431.885C279.761 432.108 279.483 432.219 279.149 432.219Z" fill="#4B4F51"/>
<path d="M143.309 240.717C128.653 245.91 113.855 248.309 98.0703 245.31C80.4768 241.966 65.2167 226.91 56.5942 211.895C53.3905 206.318 50.84 200.086 51.1733 193.664C51.9488 178.829 65.9638 177.171 77.8604 179.571C84.5665 180.92 90.7242 183.992 96.8119 187.034C106.919 192.088 118.775 194.574 127.836 201.579C130.877 203.937 133.16 206.769 136.693 208.484C142.189 211.154 148.463 212.415 154.108 214.845C158.927 216.93 164.315 220.36 164.322 225.609C164.323 230.993 158.706 234.423 153.771 236.566C150.278 238.093 146.801 239.486 143.309 240.717Z" fill="url(#paint0_linear)"/>
<path d="M89.3637 49.3619C113.373 13.9796 163.019 -0.227089 203.261 13.0759C222.666 19.494 238.928 32.8583 253.928 46.7317C267.15 58.9592 279.976 72.1477 289.006 87.8668C295.171 98.5965 299.584 111.458 302.7 123.466C307.358 141.444 303.127 164.61 279.887 162.912C274.434 162.515 269.716 160.554 264.617 158.839C260.491 157.448 256.449 158.282 252.166 157.603C241.386 155.896 231 151.927 221.18 147.278C201.166 137.795 182.879 124.912 162.297 116.602C145.429 109.801 127.416 106.289 109.229 106.257C101.557 106.244 93.489 106.781 86.6256 103.351C69.7092 94.8869 77.3164 72.0646 83.6341 59.2263C85.3079 55.8066 87.2226 52.5101 89.3637 49.3619Z" fill="url(#paint1_linear)"/>
<path d="M277.61 54.7026C281.563 58.2826 297.093 68.0557 297.392 56.5869C297.462 53.7297 296.166 50.9555 294.403 48.8631C292.385 46.4614 290.097 45.2016 288.522 42.4036C286.594 39.0251 284.399 35.8499 281.966 32.919C276.993 26.8186 271.186 21.1821 264.14 18.6707C259.199 16.9114 250.832 17.3538 248.485 23.6872C245.065 32.9069 259.687 34.5962 264.147 37.9562C268.379 41.1365 270.776 46.6011 274.128 50.9441C275.188 52.3135 276.353 53.5717 277.61 54.7026Z" fill="url(#paint2_linear)"/>
<path d="M204.516 43.4884C212.888 48.4177 219.169 55.796 226.802 61.7382C239.511 71.6298 256.93 73.6535 271.504 80.5325C286.364 87.5511 297.585 98.4587 302.659 114.18C309.213 134.472 309.836 158.603 304.268 179.465C298.135 202.428 283.734 217.682 262.677 227.854C241.633 238.021 218.32 242.765 195.069 243.744C192.826 243.84 190.586 243.892 188.337 243.906C137.825 244.2 70.5916 226.42 53.3946 172.158C53.237 171.663 53.0859 171.167 52.9344 170.664C51.1624 164.619 50.1205 158.383 49.8309 152.09C48.7493 129.78 52.6539 105.156 60.4755 84.2414C65.7363 70.1611 77.0644 58.2556 89.0013 49.7727C105.772 37.8553 126.236 34.8139 146.603 33.384C161.684 32.3258 178.646 31.9392 192.908 37.708C196.917 39.3421 200.797 41.2743 204.516 43.4884Z" fill="url(#paint3_linear)"/>
<path d="M226.879 98.9624C226.879 98.9624 226.199 108.555 225.248 122.069C224.499 132.679 223.577 145.707 222.668 158.434C222.448 161.558 222.219 164.656 222.002 167.698C221.483 175.049 220.981 182.056 220.532 188.144C220.138 193.263 219.8 197.746 219.544 201.224C219.203 205.681 218.973 208.507 218.888 208.996C218.389 212.228 208.878 218.503 186.969 218.503C165.07 218.503 152.327 218.844 148.087 213.587C147.451 212.786 146.68 209.675 145.836 204.946C144.002 194.677 141.8 176.815 139.817 158.788C138.58 147.594 137.412 136.348 136.46 126.798C134.98 112.017 133.989 101.342 133.989 101.342L160.601 100.662L194.439 99.7927L226.879 98.9624Z" fill="#FB4C47"/>
<path d="M225.25 122.07C224.501 132.679 223.579 145.708 222.67 158.434C214.194 160.732 189.078 165.392 139.819 158.789C138.582 147.595 137.414 136.348 136.462 126.799C149.425 128.292 191.412 131.974 225.25 122.07Z" fill="#D9423D"/>
<path d="M219.544 201.225C219.202 205.679 218.973 208.507 218.891 208.996C218.388 212.229 208.878 218.504 186.969 218.504C165.07 218.504 152.33 218.845 148.09 213.588C147.45 212.783 146.679 209.676 145.836 204.947C157.397 207.027 189.916 211.343 219.544 201.225Z" fill="#D9423D"/>
<path d="M229.757 100.159C228.238 101.843 215.849 107.628 182.051 109.315C178.887 109.476 175.829 109.558 172.937 109.571C147.481 109.775 132.766 105.131 132.467 104.235C132.129 103.201 131.45 96.4082 132.306 95.5681L132.319 95.555C133.137 94.8593 142.834 99.8475 170.735 99.0303C174.175 98.9352 177.88 98.7448 181.887 98.4462C214.721 96.0144 225.248 91.0032 227.936 90.8391C228.251 90.8129 228.455 90.8523 228.579 90.977C229.757 92.1715 231.293 98.4462 229.757 100.159Z" fill="#FF807C"/>
<path d="M227.898 91.655C226.717 96.082 192.403 104.234 175.597 103.879C174.252 103.853 172.827 103.814 171.347 103.732C154.394 102.957 130.266 99.4655 132.304 95.5668L132.318 95.5537C132.534 95.2124 139.331 85.2293 166.402 82.4858C168.046 82.3217 169.769 82.1872 171.564 82.0789C172.499 82.01 173.451 81.9673 174.429 81.9148C174.606 81.9148 174.783 81.9148 174.96 81.9017C175.938 81.859 176.943 81.8327 177.976 81.8196C179.171 81.7934 180.339 81.7802 181.478 81.7802C214.039 81.5472 227.366 86.6963 227.937 90.8378C227.977 91.1233 227.967 91.3957 227.898 91.655Z" fill="#C63F3B"/>
<path d="M189.592 102.733C189.057 103.621 186.198 104.403 182.896 104.807C179.645 105.207 175.942 105.224 173.605 104.597C172.552 104.319 171.77 103.92 171.423 103.377C171.235 103.082 170.959 102.262 170.613 101.046C170.007 98.9556 169.175 95.6827 168.259 91.9009C168.155 91.4507 168.038 90.9964 167.929 90.5253C167.382 88.262 166.809 85.8263 166.22 83.3864C165.856 81.8552 165.472 80.3239 165.112 78.8095C164.903 77.9555 164.698 77.1184 164.506 76.3023C163.762 73.286 163.052 70.4507 162.412 68.0991C161.601 65.0492 160.908 62.786 160.439 61.9363C160.335 61.7596 160.247 61.6376 160.18 61.5871C160.076 61.5156 159.921 61.4819 159.7 61.4483C158.471 61.2548 155.495 61.4483 151.997 61.7091C144.971 62.2307 135.905 63.0132 135.094 61.3599C134.593 60.3335 134.213 58.0703 134.112 55.563C133.92 51.6592 134.384 47.2042 135.96 46.1399C137.155 45.3407 144.005 44.5414 151.478 44.188C155.357 44.0324 159.403 43.9819 162.914 44.1207C167.382 44.2932 170.976 44.7643 172.289 45.6856C172.861 46.0895 173.588 47.3262 174.437 49.173C175.649 51.8022 177.083 55.6472 178.587 60.1231C179.469 62.807 180.389 65.6971 181.308 68.6544C182.203 71.5991 183.084 74.6112 183.92 77.5895C184.058 78.0397 184.175 78.4772 184.297 78.9315C184.455 79.5036 184.631 80.0799 184.786 80.652C185.321 82.6208 185.839 84.5559 186.324 86.3984C186.616 87.5132 186.892 88.5775 187.135 89.6208C187.807 92.25 188.363 94.6184 188.798 96.604C189.504 100.032 189.835 102.317 189.592 102.733Z" fill="#F5C827"/>
<path d="M188.581 96.4313L180.904 98.2344L170.237 100.729C169.63 98.7066 168.791 95.54 167.868 91.8808L178.252 88.8485L186.086 86.557C187.114 90.3301 187.97 93.7531 188.581 96.4313Z" fill="#FFAE00"/>
<path d="M184.22 78.6666C182.045 79.2245 179.231 79.9654 176.363 80.6845C172.658 81.6433 168.866 82.6152 166.296 83.2864C165.936 81.6956 165.554 80.1092 165.194 78.5402C164.986 77.6555 164.788 76.7882 164.597 75.9427L173.86 71.5408L181.253 68.0237C182.144 71.0701 183.019 74.1907 183.843 77.2763C183.98 77.747 184.1 78.1959 184.22 78.6666Z" fill="#FFAE00"/>
<path d="M178.768 60.2151L171.383 63.7117L162.249 68.0238C161.421 65.0379 160.713 62.8221 160.234 61.9902L168.272 54.964L174.529 49.4905C175.767 52.0646 177.231 55.833 178.768 60.2151Z" fill="#FFAE00"/>
<path d="M162.414 44.1193C161.999 46.528 161.493 49.4848 160.931 52.5621C160.402 55.4816 159.856 58.4883 159.346 61.2251C158.178 61.034 155.341 61.2251 152.006 61.4825L151.775 53.1435L151.512 44.1899C155.206 44.0321 159.067 43.9822 162.414 44.1193Z" fill="#FFAE00"/>
<g opacity="0.309998">
<g opacity="0.309998">
<path opacity="0.309998" d="M189.206 89.0692C197.404 89.4302 205.516 90.3392 213.59 91.8258C216.153 92.2984 217.252 88.3735 214.673 87.8976C206.242 86.3421 197.768 85.3707 189.206 84.9933C186.584 84.8784 186.591 88.9543 189.206 89.0692Z" fill="white"/>
</g>
</g>
<g opacity="0.300003">
<g opacity="0.300003">
<path opacity="0.300003" d="M214.647 119.715C214.181 134.598 213.233 149.448 211.808 164.268C211.556 166.877 215.635 166.86 215.881 164.268C217.312 149.448 218.257 134.598 218.723 119.715C218.805 117.093 214.729 117.093 214.647 119.715Z" fill="#FFC7D3"/>
</g>
<g opacity="0.300003">
<path opacity="0.300003" d="M213.704 175.57C216.326 175.57 216.33 171.494 213.704 171.494C211.082 171.494 211.076 175.57 213.704 175.57Z" fill="#FFC7D3"/>
</g>
</g>
<defs>
<linearGradient id="paint0_linear" x1="49.8723" y1="195.712" x2="65.0784" y2="248.511" gradientUnits="userSpaceOnUse">
<stop stop-color="#FFD0D0"/>
<stop offset="1" stop-color="#FFF7F7"/>
</linearGradient>
<linearGradient id="paint1_linear" x1="333.898" y1="54.5159" x2="163.706" y2="15.2162" gradientUnits="userSpaceOnUse">
<stop stop-color="#FFF7F7"/>
<stop offset="1" stop-color="#FFD0D0"/>
</linearGradient>
<linearGradient id="paint2_linear" x1="297.795" y1="56.3858" x2="239.404" y2="31.446" gradientUnits="userSpaceOnUse">
<stop stop-color="#FFD0D0"/>
<stop offset="1" stop-color="#FFFBFC"/>
</linearGradient>
<linearGradient id="paint3_linear" x1="284.613" y1="220.85" x2="49.8789" y2="84.9166" gradientUnits="userSpaceOnUse">
<stop stop-color="#FFCFCF"/>
<stop offset="1" stop-color="#FFF8F8"/>
</linearGradient>
</defs>
</svg>
