<svg width="355" height="432" viewBox="0 0 355 432" fill="none" xmlns="http://www.w3.org/2000/svg">
<path d="M58.9297 320.919H63.2188L71.7793 344H67.3145L65.4512 338.744H56.627L54.6758 344H50.3164L58.9297 320.919ZM64.2207 335.246L62.7441 331.185C62.6035 330.798 62.2168 329.656 61.584 327.757L61.0918 326.316C60.998 326.632 60.7754 327.294 60.4238 328.302C60.0723 329.31 59.7148 330.271 59.3516 331.185L57.8398 335.246H64.2207ZM76.4375 324.804C75.6172 324.804 74.9434 324.546 74.416 324.031C73.8887 323.515 73.625 322.876 73.625 322.115C73.625 321.341 73.8887 320.703 74.416 320.199C74.9434 319.695 75.6172 319.443 76.4375 319.443C77.2578 319.443 77.9199 319.695 78.4238 320.199C78.9395 320.703 79.1973 321.341 79.1973 322.115C79.1973 322.853 78.9336 323.486 78.4062 324.013C77.8789 324.541 77.2227 324.804 76.4375 324.804ZM74.416 327.951H78.4414V344H74.416V327.951ZM90.8867 327.792C91.4141 327.804 91.918 327.857 92.3984 327.951V331.396C91.9648 331.349 91.6484 331.326 91.4492 331.326C90.0078 331.326 88.8945 331.73 88.1094 332.539C87.3359 333.335 86.9492 334.466 86.9492 335.931V344H82.9238V327.951H86.5625L86.9141 330.253C87.1484 329.457 87.623 328.847 88.3379 328.425C89.0527 328.003 89.9023 327.792 90.8867 327.792ZM120.295 324.734H113.316V344H109.098V324.734H102.049V320.919H120.295V324.734ZM128.715 327.792C129.242 327.804 129.746 327.857 130.227 327.951V331.396C129.793 331.349 129.477 331.326 129.277 331.326C127.836 331.326 126.723 331.73 125.938 332.539C125.164 333.335 124.777 334.466 124.777 335.931V344H120.752V327.951H124.391L124.742 330.253C124.977 329.457 125.451 328.847 126.166 328.425C126.881 328.003 127.73 327.792 128.715 327.792ZM149.193 327.951V344H145.344V341.732C144.793 342.576 144.002 343.244 142.971 343.736C141.951 344.228 140.809 344.474 139.543 344.474C138.055 344.474 136.73 344.128 135.57 343.437C134.422 342.734 133.531 341.75 132.898 340.484C132.266 339.207 131.949 337.724 131.949 336.037C131.949 334.337 132.283 332.837 132.951 331.537C133.619 330.224 134.551 329.216 135.746 328.513C136.953 327.798 138.336 327.441 139.895 327.441C141.113 327.441 142.209 327.664 143.182 328.109C144.166 328.554 144.945 329.181 145.52 329.99L145.836 327.951H149.193ZM140.545 340.835C141.893 340.835 142.988 340.378 143.832 339.464C144.688 338.55 145.115 337.361 145.115 335.896C145.115 334.431 144.699 333.259 143.867 332.38C143.047 331.49 141.951 331.044 140.58 331.044C139.209 331.044 138.107 331.496 137.275 332.398C136.455 333.289 136.045 334.466 136.045 335.931C136.045 337.396 136.461 338.58 137.293 339.482C138.125 340.384 139.209 340.835 140.545 340.835ZM162.377 327.441C164.24 327.441 165.711 328.033 166.789 329.216C167.879 330.388 168.424 332.005 168.424 334.068V344H164.381V335C164.381 332.386 163.314 331.08 161.182 331.08C160.033 331.08 159.143 331.414 158.51 332.082C157.889 332.75 157.578 333.652 157.578 334.789V344H153.588V327.951H156.928L157.227 329.884C157.73 329.146 158.445 328.554 159.371 328.109C160.297 327.664 161.299 327.441 162.377 327.441ZM178.514 344.474C176.521 344.474 174.898 344.005 173.645 343.068C172.402 342.13 171.734 340.871 171.641 339.289H175.596C175.643 339.98 175.93 340.513 176.457 340.888C176.984 341.263 177.658 341.451 178.479 341.451C179.299 341.451 179.932 341.292 180.377 340.976C180.834 340.66 181.062 340.203 181.062 339.605C181.062 339.054 180.881 338.656 180.518 338.41C180.166 338.152 179.703 337.964 179.129 337.847L176.422 337.197C174.91 336.857 173.797 336.289 173.082 335.492C172.379 334.683 172.027 333.716 172.027 332.591C172.027 331.033 172.619 329.785 173.803 328.847C174.998 327.91 176.545 327.441 178.443 327.441C180.342 327.441 181.877 327.91 183.049 328.847C184.221 329.785 184.83 331.021 184.877 332.556H180.922C180.922 331.912 180.688 331.402 180.219 331.027C179.75 330.652 179.135 330.464 178.373 330.464C177.682 330.464 177.131 330.617 176.721 330.921C176.311 331.214 176.105 331.636 176.105 332.187C176.105 332.738 176.264 333.125 176.58 333.347C176.908 333.558 177.383 333.74 178.004 333.892L181.098 334.595C182.492 334.935 183.523 335.515 184.191 336.335C184.871 337.144 185.211 338.117 185.211 339.253C185.211 340.835 184.602 342.101 183.383 343.05C182.176 344 180.553 344.474 178.514 344.474ZM207.605 327.441C209.34 327.441 210.74 327.974 211.807 329.041C212.873 330.107 213.406 331.566 213.406 333.417V344H209.416V334.384C209.416 333.236 209.141 332.375 208.59 331.8C208.051 331.226 207.33 330.939 206.428 330.939C205.373 330.939 204.547 331.279 203.949 331.958C203.363 332.638 203.07 333.505 203.07 334.56V344H199.115V334.384C199.115 333.306 198.84 332.462 198.289 331.853C197.738 331.244 196.982 330.939 196.021 330.939C195.037 330.939 194.246 331.285 193.648 331.976C193.062 332.667 192.77 333.529 192.77 334.56V344H188.744V327.951H192.418L192.629 329.673C193.109 328.982 193.76 328.437 194.58 328.039C195.412 327.64 196.297 327.441 197.234 327.441C198.406 327.441 199.455 327.71 200.381 328.25C201.307 328.789 201.975 329.527 202.385 330.464C202.865 329.503 203.557 328.759 204.459 328.232C205.361 327.705 206.41 327.441 207.605 327.441ZM219.734 324.804C218.914 324.804 218.24 324.546 217.713 324.031C217.186 323.515 216.922 322.876 216.922 322.115C216.922 321.341 217.186 320.703 217.713 320.199C218.24 319.695 218.914 319.443 219.734 319.443C220.555 319.443 221.217 319.695 221.721 320.199C222.236 320.703 222.494 321.341 222.494 322.115C222.494 322.853 222.23 323.486 221.703 324.013C221.176 324.541 220.52 324.804 219.734 324.804ZM217.713 327.951H221.738V344H217.713V327.951ZM231.986 344.474C229.994 344.474 228.371 344.005 227.117 343.068C225.875 342.13 225.207 340.871 225.113 339.289H229.068C229.115 339.98 229.402 340.513 229.93 340.888C230.457 341.263 231.131 341.451 231.951 341.451C232.771 341.451 233.404 341.292 233.85 340.976C234.307 340.66 234.535 340.203 234.535 339.605C234.535 339.054 234.354 338.656 233.99 338.41C233.639 338.152 233.176 337.964 232.602 337.847L229.895 337.197C228.383 336.857 227.27 336.289 226.555 335.492C225.852 334.683 225.5 333.716 225.5 332.591C225.5 331.033 226.092 329.785 227.275 328.847C228.471 327.91 230.018 327.441 231.916 327.441C233.814 327.441 235.35 327.91 236.521 328.847C237.693 329.785 238.303 331.021 238.35 332.556H234.395C234.395 331.912 234.16 331.402 233.691 331.027C233.223 330.652 232.607 330.464 231.846 330.464C231.154 330.464 230.604 330.617 230.193 330.921C229.783 331.214 229.578 331.636 229.578 332.187C229.578 332.738 229.736 333.125 230.053 333.347C230.381 333.558 230.855 333.74 231.477 333.892L234.57 334.595C235.965 334.935 236.996 335.515 237.664 336.335C238.344 337.144 238.684 338.117 238.684 339.253C238.684 340.835 238.074 342.101 236.855 343.05C235.648 344 234.025 344.474 231.986 344.474ZM248.158 344.474C246.166 344.474 244.543 344.005 243.289 343.068C242.047 342.13 241.379 340.871 241.285 339.289H245.24C245.287 339.98 245.574 340.513 246.102 340.888C246.629 341.263 247.303 341.451 248.123 341.451C248.943 341.451 249.576 341.292 250.021 340.976C250.479 340.66 250.707 340.203 250.707 339.605C250.707 339.054 250.525 338.656 250.162 338.41C249.811 338.152 249.348 337.964 248.773 337.847L246.066 337.197C244.555 336.857 243.441 336.289 242.727 335.492C242.023 334.683 241.672 333.716 241.672 332.591C241.672 331.033 242.264 329.785 243.447 328.847C244.643 327.91 246.189 327.441 248.088 327.441C249.986 327.441 251.521 327.91 252.693 328.847C253.865 329.785 254.475 331.021 254.521 332.556H250.566C250.566 331.912 250.332 331.402 249.863 331.027C249.395 330.652 248.779 330.464 248.018 330.464C247.326 330.464 246.775 330.617 246.365 330.921C245.955 331.214 245.75 331.636 245.75 332.187C245.75 332.738 245.908 333.125 246.225 333.347C246.553 333.558 247.027 333.74 247.648 333.892L250.742 334.595C252.137 334.935 253.168 335.515 253.836 336.335C254.516 337.144 254.855 338.117 254.855 339.253C254.855 340.835 254.246 342.101 253.027 343.05C251.82 344 250.197 344.474 248.158 344.474ZM260.445 324.804C259.625 324.804 258.951 324.546 258.424 324.031C257.896 323.515 257.633 322.876 257.633 322.115C257.633 321.341 257.896 320.703 258.424 320.199C258.951 319.695 259.625 319.443 260.445 319.443C261.266 319.443 261.928 319.695 262.432 320.199C262.947 320.703 263.205 321.341 263.205 322.115C263.205 322.853 262.941 323.486 262.414 324.013C261.887 324.541 261.23 324.804 260.445 324.804ZM258.424 327.951H262.449V344H258.424V327.951ZM266 335.966C266 334.337 266.369 332.878 267.107 331.589C267.857 330.289 268.895 329.275 270.219 328.548C271.555 327.81 273.072 327.441 274.771 327.441C276.471 327.441 277.988 327.81 279.324 328.548C280.66 329.275 281.697 330.289 282.436 331.589C283.186 332.878 283.561 334.337 283.561 335.966C283.561 337.572 283.186 339.025 282.436 340.326C281.697 341.626 280.66 342.646 279.324 343.384C278 344.111 276.482 344.474 274.771 344.474C273.072 344.474 271.555 344.111 270.219 343.384C268.895 342.646 267.857 341.632 267.107 340.343C266.369 339.042 266 337.583 266 335.966ZM270.131 335.931C270.131 337.373 270.564 338.556 271.432 339.482C272.299 340.408 273.412 340.871 274.771 340.871C276.166 340.871 277.297 340.408 278.164 339.482C279.031 338.556 279.465 337.373 279.465 335.931C279.465 334.49 279.031 333.312 278.164 332.398C277.297 331.472 276.166 331.009 274.771 331.009C273.4 331.009 272.281 331.472 271.414 332.398C270.559 333.312 270.131 334.49 270.131 335.931ZM295.795 327.441C297.658 327.441 299.129 328.033 300.207 329.216C301.297 330.388 301.842 332.005 301.842 334.068V344H297.799V335C297.799 332.386 296.732 331.08 294.6 331.08C293.451 331.08 292.561 331.414 291.928 332.082C291.307 332.75 290.996 333.652 290.996 334.789V344H287.006V327.951H290.346L290.645 329.884C291.148 329.146 291.863 328.554 292.789 328.109C293.715 327.664 294.717 327.441 295.795 327.441Z" fill="#035755"/>
<path d="M24.7021 387.243C24.7021 388.391 24.4385 389.419 23.9111 390.328C23.3896 391.23 22.6748 391.939 21.7666 392.455C20.8643 392.964 19.8564 393.219 18.7432 393.219C17.6299 393.219 16.6191 392.967 15.7109 392.463C14.8027 391.959 14.0879 391.253 13.5664 390.345C13.0449 389.437 12.7842 388.403 12.7842 387.243C12.7842 386.088 13.0449 385.057 13.5664 384.149C14.0879 383.235 14.7998 382.52 15.7021 382.004C16.6104 381.489 17.624 381.231 18.7432 381.231C19.8564 381.231 20.8643 381.486 21.7666 381.996C22.6748 382.505 23.3896 383.22 23.9111 384.14C24.4385 385.054 24.7021 386.088 24.7021 387.243ZM23.0586 387.243C23.0586 386.364 22.8682 385.584 22.4873 384.905C22.1123 384.219 21.5967 383.686 20.9404 383.305C20.29 382.918 19.5635 382.725 18.7607 382.725C17.9463 382.725 17.208 382.918 16.5459 383.305C15.8838 383.686 15.3623 384.219 14.9814 384.905C14.6064 385.584 14.4189 386.364 14.4189 387.243C14.4189 388.122 14.6064 388.904 14.9814 389.589C15.3623 390.269 15.8838 390.802 16.5459 391.189C17.208 391.57 17.9404 391.76 18.7432 391.76C19.5459 391.76 20.2754 391.57 20.9316 391.189C21.5938 390.802 22.1123 390.266 22.4873 389.581C22.8682 388.895 23.0586 388.116 23.0586 387.243ZM31.0215 384.826C31.7656 384.826 32.4277 385.001 33.0078 385.353C33.5938 385.699 34.0508 386.191 34.3789 386.83C34.707 387.462 34.8711 388.192 34.8711 389.018C34.8711 389.844 34.71 390.577 34.3877 391.215C34.0654 391.854 33.6113 392.349 33.0254 392.701C32.4453 393.046 31.7832 393.219 31.0391 393.219C30.3535 393.219 29.7441 393.073 29.2109 392.78C28.6777 392.481 28.2734 392.08 27.998 391.576L27.875 393H26.6445V380.651H28.1035V386.25C28.3789 385.804 28.7744 385.456 29.29 385.204C29.8057 384.952 30.3828 384.826 31.0215 384.826ZM30.7842 391.866C31.5518 391.866 32.1729 391.605 32.6475 391.083C33.1221 390.562 33.3594 389.874 33.3594 389.018C33.3594 388.168 33.1221 387.483 32.6475 386.961C32.1729 386.44 31.5459 386.179 30.7666 386.179C29.9873 386.179 29.3662 386.431 28.9033 386.935C28.4463 387.439 28.2178 388.122 28.2178 388.983C28.2178 389.862 28.4492 390.562 28.9121 391.083C29.3809 391.605 30.0049 391.866 30.7842 391.866ZM37.6309 383.121C37.3203 383.121 37.0596 383.015 36.8486 382.804C36.6377 382.593 36.5322 382.333 36.5322 382.022C36.5322 381.723 36.6377 381.471 36.8486 381.266C37.0596 381.061 37.3203 380.958 37.6309 380.958C37.9531 380.958 38.2168 381.061 38.4219 381.266C38.627 381.471 38.7295 381.723 38.7295 382.022C38.7295 382.321 38.627 382.579 38.4219 382.795C38.2227 383.012 37.959 383.121 37.6309 383.121ZM36.8926 385.063H38.3867V396.542H36.8926V385.063ZM48.1953 390.626C48.0137 391.406 47.5742 392.033 46.877 392.507C46.1797 392.982 45.3652 393.219 44.4336 393.219C43.6309 393.219 42.9219 393.043 42.3066 392.692C41.6973 392.334 41.2227 391.839 40.8828 391.207C40.5488 390.568 40.3818 389.833 40.3818 389C40.3818 388.174 40.5518 387.445 40.8916 386.812C41.2373 386.173 41.7119 385.684 42.3154 385.344C42.9248 384.999 43.6133 384.826 44.3809 384.826C45.1367 384.826 45.7988 384.987 46.3672 385.309C46.9355 385.625 47.3779 386.068 47.6943 386.636C48.0166 387.205 48.1777 387.855 48.1777 388.587C48.1777 388.986 48.1543 389.288 48.1074 389.493H41.8584C41.8818 390.249 42.1309 390.855 42.6055 391.312C43.0801 391.763 43.6895 391.989 44.4336 391.989C44.9844 391.989 45.4648 391.866 45.875 391.62C46.291 391.374 46.5781 391.042 46.7363 390.626H48.1953ZM46.666 388.412C46.6543 387.703 46.4375 387.14 46.0156 386.724C45.5938 386.302 45.043 386.091 44.3633 386.091C43.6426 386.091 43.0537 386.302 42.5967 386.724C42.1396 387.14 41.8994 387.703 41.876 388.412H46.666ZM49.54 389.018C49.54 388.192 49.7129 387.462 50.0586 386.83C50.4102 386.191 50.8936 385.699 51.5088 385.353C52.1299 385.001 52.8418 384.826 53.6445 384.826C54.6641 384.826 55.5225 385.086 56.2197 385.608C56.917 386.129 57.3359 386.835 57.4766 387.726H55.9473C55.8301 387.234 55.5635 386.847 55.1475 386.566C54.7314 386.285 54.2246 386.144 53.627 386.144C52.8594 386.144 52.2383 386.402 51.7637 386.917C51.2891 387.433 51.0518 388.139 51.0518 389.036C51.0518 389.897 51.2803 390.591 51.7373 391.119C52.1943 391.64 52.8242 391.901 53.627 391.901C54.2246 391.901 54.7344 391.757 55.1562 391.47C55.5781 391.183 55.8418 390.805 55.9473 390.336H57.4766C57.3301 391.198 56.9053 391.895 56.2021 392.428C55.5049 392.956 54.6582 393.219 53.6621 393.219C52.8477 393.219 52.127 393.046 51.5 392.701C50.8789 392.349 50.3955 391.857 50.0498 391.224C49.71 390.585 49.54 389.85 49.54 389.018ZM65.6592 380.923C65.9814 380.923 66.2451 381.026 66.4502 381.231C66.6553 381.43 66.7578 381.682 66.7578 381.987C66.7578 382.297 66.6553 382.558 66.4502 382.769C66.2451 382.98 65.9814 383.085 65.6592 383.085C65.3369 383.085 65.0703 382.98 64.8594 382.769C64.6484 382.558 64.543 382.297 64.543 381.987C64.543 381.688 64.6484 381.436 64.8594 381.231C65.0703 381.026 65.3369 380.923 65.6592 380.923ZM61.6777 385.063H66.3975V393H64.9033V386.302H61.6777V393H60.166V386.302H58.6191V385.063H60.166V382.954H61.6777V385.063ZM69.5527 385.063L70.4844 387.568C70.7715 388.335 71.0557 389.1 71.3369 389.862C71.624 390.624 71.8145 391.142 71.9082 391.417C72.0137 391.13 72.21 390.606 72.4971 389.844C72.79 389.083 73.0859 388.324 73.3848 387.568L74.3779 385.063H75.9424L72.6289 393H71.1348L67.9355 385.063H69.5527ZM84.3887 390.626C84.207 391.406 83.7676 392.033 83.0703 392.507C82.373 392.982 81.5586 393.219 80.627 393.219C79.8242 393.219 79.1152 393.043 78.5 392.692C77.8906 392.334 77.416 391.839 77.0762 391.207C76.7422 390.568 76.5752 389.833 76.5752 389C76.5752 388.174 76.7451 387.445 77.085 386.812C77.4307 386.173 77.9053 385.684 78.5088 385.344C79.1182 384.999 79.8066 384.826 80.5742 384.826C81.3301 384.826 81.9922 384.987 82.5605 385.309C83.1289 385.625 83.5713 386.068 83.8877 386.636C84.21 387.205 84.3711 387.855 84.3711 388.587C84.3711 388.986 84.3477 389.288 84.3008 389.493H78.0518C78.0752 390.249 78.3242 390.855 78.7988 391.312C79.2734 391.763 79.8828 391.989 80.627 391.989C81.1777 391.989 81.6582 391.866 82.0684 391.62C82.4844 391.374 82.7715 391.042 82.9297 390.626H84.3887ZM82.8594 388.412C82.8477 387.703 82.6309 387.14 82.209 386.724C81.7871 386.302 81.2363 386.091 80.5566 386.091C79.8359 386.091 79.2471 386.302 78.79 386.724C78.333 387.14 78.0928 387.703 78.0693 388.412H82.8594ZM86.2695 380.651H87.7637V393H86.2695V380.651ZM97.3701 385.063L93.7402 394.546C93.4531 395.255 93.0928 395.789 92.6592 396.146C92.2256 396.509 91.6309 396.691 90.875 396.691C90.4766 396.691 90.0635 396.629 89.6357 396.506V395.285C89.6826 395.296 89.7998 395.32 89.9873 395.355C90.1807 395.39 90.3975 395.408 90.6377 395.408C91.1533 395.408 91.5312 395.305 91.7715 395.1C92.0117 394.901 92.2109 394.59 92.3691 394.168L92.6592 393.413L89.2578 385.063H90.8574L93.3623 391.541L95.7881 385.063H97.3701ZM104.806 382.918V386.522H109.842V387.884H104.806V391.558H110.387V393H103.259V381.459H110.387V382.918H104.806ZM112.971 385.063L113.902 387.568C114.189 388.335 114.474 389.1 114.755 389.862C115.042 390.624 115.232 391.142 115.326 391.417C115.432 391.13 115.628 390.606 115.915 389.844C116.208 389.083 116.504 388.324 116.803 387.568L117.796 385.063H119.36L116.047 393H114.553L111.354 385.063H112.971ZM119.993 389.036C119.993 388.245 120.172 387.533 120.529 386.9C120.893 386.261 121.396 385.757 122.041 385.388C122.691 385.013 123.43 384.826 124.256 384.826C125.082 384.826 125.823 385.013 126.479 385.388C127.136 385.757 127.643 386.261 128 386.9C128.363 387.533 128.545 388.245 128.545 389.036C128.545 389.815 128.36 390.524 127.991 391.163C127.628 391.801 127.121 392.305 126.471 392.674C125.826 393.038 125.088 393.219 124.256 393.219C123.441 393.219 122.709 393.038 122.059 392.674C121.414 392.305 120.907 391.804 120.538 391.171C120.175 390.533 119.993 389.821 119.993 389.036ZM121.54 389.036C121.54 389.856 121.795 390.536 122.305 391.075C122.814 391.614 123.465 391.883 124.256 391.883C125.07 391.883 125.732 391.614 126.242 391.075C126.758 390.536 127.016 389.856 127.016 389.036C127.016 388.209 126.761 387.524 126.251 386.979C125.741 386.434 125.076 386.162 124.256 386.162C123.465 386.162 122.814 386.434 122.305 386.979C121.795 387.524 121.54 388.209 121.54 389.036ZM130.514 380.651H132.008V393H130.514V380.651ZM135.119 385.063L136.051 387.568C136.338 388.335 136.622 389.1 136.903 389.862C137.19 390.624 137.381 391.142 137.475 391.417C137.58 391.13 137.776 390.606 138.063 389.844C138.356 389.083 138.652 388.324 138.951 387.568L139.944 385.063H141.509L138.195 393H136.701L133.502 385.063H135.119ZM149.955 390.626C149.773 391.406 149.334 392.033 148.637 392.507C147.939 392.982 147.125 393.219 146.193 393.219C145.391 393.219 144.682 393.043 144.066 392.692C143.457 392.334 142.982 391.839 142.643 391.207C142.309 390.568 142.142 389.833 142.142 389C142.142 388.174 142.312 387.445 142.651 386.812C142.997 386.173 143.472 385.684 144.075 385.344C144.685 384.999 145.373 384.826 146.141 384.826C146.896 384.826 147.559 384.987 148.127 385.309C148.695 385.625 149.138 386.068 149.454 386.636C149.776 387.205 149.938 387.855 149.938 388.587C149.938 388.986 149.914 389.288 149.867 389.493H143.618C143.642 390.249 143.891 390.855 144.365 391.312C144.84 391.763 145.449 391.989 146.193 391.989C146.744 391.989 147.225 391.866 147.635 391.62C148.051 391.374 148.338 391.042 148.496 390.626H149.955ZM148.426 388.412C148.414 387.703 148.197 387.14 147.775 386.724C147.354 386.302 146.803 386.091 146.123 386.091C145.402 386.091 144.813 386.302 144.356 386.724C143.899 387.14 143.659 387.703 143.636 388.412H148.426ZM163.815 382.901H160.265V393H158.7V382.901H155.123V381.459H163.815V382.901ZM171.479 385.063V393H170.073V391.593C169.81 392.085 169.405 392.481 168.86 392.78C168.315 393.073 167.7 393.219 167.015 393.219C166.282 393.219 165.629 393.046 165.055 392.701C164.486 392.349 164.044 391.86 163.728 391.233C163.411 390.6 163.253 389.874 163.253 389.053C163.253 388.215 163.417 387.477 163.745 386.838C164.079 386.194 164.536 385.699 165.116 385.353C165.696 385.001 166.364 384.826 167.12 384.826C167.794 384.826 168.389 384.96 168.904 385.23C169.42 385.5 169.821 385.869 170.108 386.337L170.24 385.063H171.479ZM167.34 391.866C168.119 391.866 168.749 391.605 169.229 391.083C169.71 390.562 169.95 389.862 169.95 388.983C169.95 388.133 169.713 387.454 169.238 386.944C168.764 386.434 168.143 386.179 167.375 386.179C166.584 386.179 165.954 386.44 165.485 386.961C165.017 387.483 164.782 388.168 164.782 389.018C164.782 389.868 165.017 390.556 165.485 391.083C165.954 391.605 166.572 391.866 167.34 391.866ZM173.413 389.018C173.413 388.192 173.586 387.462 173.932 386.83C174.283 386.191 174.767 385.699 175.382 385.353C176.003 385.001 176.715 384.826 177.518 384.826C178.537 384.826 179.396 385.086 180.093 385.608C180.79 386.129 181.209 386.835 181.35 387.726H179.82C179.703 387.234 179.437 386.847 179.021 386.566C178.604 386.285 178.098 386.144 177.5 386.144C176.732 386.144 176.111 386.402 175.637 386.917C175.162 387.433 174.925 388.139 174.925 389.036C174.925 389.897 175.153 390.591 175.61 391.119C176.067 391.64 176.697 391.901 177.5 391.901C178.098 391.901 178.607 391.757 179.029 391.47C179.451 391.183 179.715 390.805 179.82 390.336H181.35C181.203 391.198 180.778 391.895 180.075 392.428C179.378 392.956 178.531 393.219 177.535 393.219C176.721 393.219 176 393.046 175.373 392.701C174.752 392.349 174.269 391.857 173.923 391.224C173.583 390.585 173.413 389.85 173.413 389.018ZM189.532 380.923C189.854 380.923 190.118 381.026 190.323 381.231C190.528 381.43 190.631 381.682 190.631 381.987C190.631 382.297 190.528 382.558 190.323 382.769C190.118 382.98 189.854 383.085 189.532 383.085C189.21 383.085 188.943 382.98 188.732 382.769C188.521 382.558 188.416 382.297 188.416 381.987C188.416 381.688 188.521 381.436 188.732 381.231C188.943 381.026 189.21 380.923 189.532 380.923ZM185.551 385.063H190.271V393H188.776V386.302H185.551V393H184.039V386.302H182.492V385.063H184.039V382.954H185.551V385.063ZM192.292 389.018C192.292 388.192 192.465 387.462 192.811 386.83C193.162 386.191 193.646 385.699 194.261 385.353C194.882 385.001 195.594 384.826 196.396 384.826C197.416 384.826 198.274 385.086 198.972 385.608C199.669 386.129 200.088 386.835 200.229 387.726H198.699C198.582 387.234 198.315 386.847 197.899 386.566C197.483 386.285 196.977 386.144 196.379 386.144C195.611 386.144 194.99 386.402 194.516 386.917C194.041 387.433 193.804 388.139 193.804 389.036C193.804 389.897 194.032 390.591 194.489 391.119C194.946 391.64 195.576 391.901 196.379 391.901C196.977 391.901 197.486 391.757 197.908 391.47C198.33 391.183 198.594 390.805 198.699 390.336H200.229C200.082 391.198 199.657 391.895 198.954 392.428C198.257 392.956 197.41 393.219 196.414 393.219C195.6 393.219 194.879 393.046 194.252 392.701C193.631 392.349 193.147 391.857 192.802 391.224C192.462 390.585 192.292 389.85 192.292 389.018ZM209.853 385.063V393H208.446V391.593C208.183 392.085 207.778 392.481 207.233 392.78C206.688 393.073 206.073 393.219 205.388 393.219C204.655 393.219 204.002 393.046 203.428 392.701C202.859 392.349 202.417 391.86 202.101 391.233C201.784 390.6 201.626 389.874 201.626 389.053C201.626 388.215 201.79 387.477 202.118 386.838C202.452 386.194 202.909 385.699 203.489 385.353C204.069 385.001 204.737 384.826 205.493 384.826C206.167 384.826 206.762 384.96 207.277 385.23C207.793 385.5 208.194 385.869 208.481 386.337L208.613 385.063H209.853ZM205.713 391.866C206.492 391.866 207.122 391.605 207.603 391.083C208.083 390.562 208.323 389.862 208.323 388.983C208.323 388.133 208.086 387.454 207.611 386.944C207.137 386.434 206.516 386.179 205.748 386.179C204.957 386.179 204.327 386.44 203.858 386.961C203.39 387.483 203.155 388.168 203.155 389.018C203.155 389.868 203.39 390.556 203.858 391.083C204.327 391.605 204.945 391.866 205.713 391.866ZM212.322 380.651H213.816V393H212.322V380.651ZM222.28 382.918V386.522H227.316V387.884H222.28V391.558H227.861V393H220.733V381.459H227.861V382.918H222.28ZM230.797 393H229.109L231.843 389.053L229.074 385.063H230.832L232.836 388.034L234.813 385.063H236.545L233.75 389.053L236.501 393H234.743C234.104 392.085 233.437 391.119 232.739 390.099L230.797 393ZM242.451 384.826C243.195 384.826 243.854 385.001 244.429 385.353C245.009 385.699 245.463 386.194 245.791 386.838C246.119 387.477 246.283 388.209 246.283 389.036C246.283 389.85 246.119 390.577 245.791 391.215C245.463 391.854 245.006 392.349 244.42 392.701C243.84 393.046 243.178 393.219 242.434 393.219C241.783 393.219 241.203 393.096 240.693 392.85C240.184 392.604 239.791 392.258 239.516 391.813V396.542H238.057V385.063H239.287L239.41 386.469C239.674 385.977 240.078 385.582 240.623 385.283C241.168 384.978 241.777 384.826 242.451 384.826ZM242.179 391.883C242.958 391.883 243.585 391.62 244.06 391.092C244.534 390.565 244.771 389.879 244.771 389.036C244.771 388.174 244.534 387.486 244.06 386.97C243.585 386.455 242.964 386.197 242.196 386.197C241.417 386.197 240.793 386.458 240.324 386.979C239.861 387.5 239.63 388.201 239.63 389.08C239.63 389.941 239.861 390.624 240.324 391.127C240.793 391.631 241.411 391.883 242.179 391.883ZM255.547 390.626C255.365 391.406 254.926 392.033 254.229 392.507C253.531 392.982 252.717 393.219 251.785 393.219C250.982 393.219 250.273 393.043 249.658 392.692C249.049 392.334 248.574 391.839 248.234 391.207C247.9 390.568 247.733 389.833 247.733 389C247.733 388.174 247.903 387.445 248.243 386.812C248.589 386.173 249.063 385.684 249.667 385.344C250.276 384.999 250.965 384.826 251.732 384.826C252.488 384.826 253.15 384.987 253.719 385.309C254.287 385.625 254.729 386.068 255.046 386.636C255.368 387.205 255.529 387.855 255.529 388.587C255.529 388.986 255.506 389.288 255.459 389.493H249.21C249.233 390.249 249.482 390.855 249.957 391.312C250.432 391.763 251.041 391.989 251.785 391.989C252.336 391.989 252.816 391.866 253.227 391.62C253.643 391.374 253.93 391.042 254.088 390.626H255.547ZM254.018 388.412C254.006 387.703 253.789 387.14 253.367 386.724C252.945 386.302 252.395 386.091 251.715 386.091C250.994 386.091 250.405 386.302 249.948 386.724C249.491 387.14 249.251 387.703 249.228 388.412H254.018ZM260.979 384.993C261.242 384.993 261.494 385.016 261.734 385.063V386.337C261.6 386.314 261.412 386.302 261.172 386.302C260.451 386.302 259.895 386.516 259.502 386.944C259.115 387.372 258.922 387.963 258.922 388.719V393H257.428V385.063H258.746L258.922 386.267C259.057 385.857 259.309 385.543 259.678 385.327C260.053 385.104 260.486 384.993 260.979 384.993ZM269.864 380.923C270.187 380.923 270.45 381.026 270.655 381.231C270.86 381.43 270.963 381.682 270.963 381.987C270.963 382.297 270.86 382.558 270.655 382.769C270.45 382.98 270.187 383.085 269.864 383.085C269.542 383.085 269.275 382.98 269.064 382.769C268.854 382.558 268.748 382.297 268.748 381.987C268.748 381.688 268.854 381.436 269.064 381.231C269.275 381.026 269.542 380.923 269.864 380.923ZM265.883 385.063H270.603V393H269.108V386.302H265.883V393H264.371V386.302H262.824V385.063H264.371V382.954H265.883V385.063ZM275.779 393.219C274.854 393.219 274.092 392.997 273.494 392.551C272.902 392.106 272.583 391.517 272.536 390.785H273.995C274.03 391.195 274.206 391.511 274.522 391.734C274.839 391.957 275.258 392.068 275.779 392.068C276.295 392.068 276.696 391.965 276.983 391.76C277.271 391.555 277.414 391.265 277.414 390.89C277.414 390.521 277.3 390.257 277.071 390.099C276.843 389.935 276.55 389.815 276.192 389.739L274.786 389.414C274.089 389.255 273.573 388.989 273.239 388.614C272.911 388.239 272.747 387.782 272.747 387.243C272.747 386.51 273.022 385.924 273.573 385.485C274.13 385.045 274.851 384.826 275.735 384.826C276.638 384.826 277.367 385.051 277.924 385.502C278.486 385.954 278.779 386.551 278.803 387.295H277.344C277.332 386.885 277.174 386.563 276.869 386.329C276.57 386.094 276.187 385.977 275.718 385.977C275.272 385.977 274.918 386.077 274.654 386.276C274.396 386.475 274.268 386.753 274.268 387.111C274.268 387.445 274.37 387.688 274.575 387.84C274.786 387.993 275.062 388.104 275.401 388.174L277.001 388.535C277.663 388.681 278.155 388.951 278.478 389.343C278.8 389.73 278.961 390.199 278.961 390.75C278.961 391.505 278.671 392.106 278.091 392.551C277.517 392.997 276.746 393.219 275.779 393.219ZM288.137 390.626C287.955 391.406 287.516 392.033 286.818 392.507C286.121 392.982 285.307 393.219 284.375 393.219C283.572 393.219 282.863 393.043 282.248 392.692C281.639 392.334 281.164 391.839 280.824 391.207C280.49 390.568 280.323 389.833 280.323 389C280.323 388.174 280.493 387.445 280.833 386.812C281.179 386.173 281.653 385.684 282.257 385.344C282.866 384.999 283.555 384.826 284.322 384.826C285.078 384.826 285.74 384.987 286.309 385.309C286.877 385.625 287.319 386.068 287.636 386.636C287.958 387.205 288.119 387.855 288.119 388.587C288.119 388.986 288.096 389.288 288.049 389.493H281.8C281.823 390.249 282.072 390.855 282.547 391.312C283.021 391.763 283.631 391.989 284.375 391.989C284.926 391.989 285.406 391.866 285.816 391.62C286.232 391.374 286.52 391.042 286.678 390.626H288.137ZM286.607 388.412C286.596 387.703 286.379 387.14 285.957 386.724C285.535 386.302 284.984 386.091 284.305 386.091C283.584 386.091 282.995 386.302 282.538 386.724C282.081 387.14 281.841 387.703 281.817 388.412H286.607ZM300.775 387.225C301.385 387.454 301.862 387.808 302.208 388.289C302.56 388.763 302.735 389.332 302.735 389.994C302.735 390.931 302.393 391.667 301.707 392.2C301.021 392.733 300.116 393 298.991 393H294.421V381.459H298.903C300.058 381.459 300.966 381.744 301.628 382.312C302.296 382.875 302.63 383.616 302.63 384.536C302.63 385.198 302.466 385.754 302.138 386.206C301.815 386.657 301.361 386.997 300.775 387.225ZM295.915 382.813V386.627H298.903C299.601 386.627 300.14 386.452 300.521 386.1C300.901 385.743 301.092 385.289 301.092 384.738C301.092 384.199 300.893 383.745 300.494 383.375C300.102 383 299.565 382.813 298.886 382.813H295.915ZM299.026 391.628C299.7 391.628 300.236 391.461 300.635 391.127C301.039 390.793 301.241 390.336 301.241 389.756C301.241 389.159 301.033 388.693 300.617 388.359C300.207 388.019 299.677 387.849 299.026 387.849H295.915V391.628H299.026ZM312.061 390.626C311.879 391.406 311.439 392.033 310.742 392.507C310.045 392.982 309.23 393.219 308.299 393.219C307.496 393.219 306.787 393.043 306.172 392.692C305.562 392.334 305.088 391.839 304.748 391.207C304.414 390.568 304.247 389.833 304.247 389C304.247 388.174 304.417 387.445 304.757 386.812C305.103 386.173 305.577 385.684 306.181 385.344C306.79 384.999 307.479 384.826 308.246 384.826C309.002 384.826 309.664 384.987 310.232 385.309C310.801 385.625 311.243 386.068 311.56 386.636C311.882 387.205 312.043 387.855 312.043 388.587C312.043 388.986 312.02 389.288 311.973 389.493H305.724C305.747 390.249 305.996 390.855 306.471 391.312C306.945 391.763 307.555 391.989 308.299 391.989C308.85 391.989 309.33 391.866 309.74 391.62C310.156 391.374 310.443 391.042 310.602 390.626H312.061ZM310.531 388.412C310.52 387.703 310.303 387.14 309.881 386.724C309.459 386.302 308.908 386.091 308.229 386.091C307.508 386.091 306.919 386.302 306.462 386.724C306.005 387.14 305.765 387.703 305.741 388.412H310.531ZM317.343 381.837C316.927 381.837 316.619 381.919 316.42 382.083C316.221 382.248 316.098 382.441 316.051 382.664C316.004 382.88 315.98 383.153 315.98 383.481V385.063H317.923V386.302H315.98V393H314.486V386.302H313.045V385.063H314.486V383.191C314.486 381.451 315.351 380.581 317.079 380.581C317.401 380.581 317.683 380.604 317.923 380.651V381.89C317.788 381.855 317.595 381.837 317.343 381.837ZM318.784 389.036C318.784 388.245 318.963 387.533 319.32 386.9C319.684 386.261 320.188 385.757 320.832 385.388C321.482 385.013 322.221 384.826 323.047 384.826C323.873 384.826 324.614 385.013 325.271 385.388C325.927 385.757 326.434 386.261 326.791 386.9C327.154 387.533 327.336 388.245 327.336 389.036C327.336 389.815 327.151 390.524 326.782 391.163C326.419 391.801 325.912 392.305 325.262 392.674C324.617 393.038 323.879 393.219 323.047 393.219C322.232 393.219 321.5 393.038 320.85 392.674C320.205 392.305 319.698 391.804 319.329 391.171C318.966 390.533 318.784 389.821 318.784 389.036ZM320.331 389.036C320.331 389.856 320.586 390.536 321.096 391.075C321.605 391.614 322.256 391.883 323.047 391.883C323.861 391.883 324.523 391.614 325.033 391.075C325.549 390.536 325.807 389.856 325.807 389.036C325.807 388.209 325.552 387.524 325.042 386.979C324.532 386.434 323.867 386.162 323.047 386.162C322.256 386.162 321.605 386.434 321.096 386.979C320.586 387.524 320.331 388.209 320.331 389.036ZM332.803 384.993C333.066 384.993 333.318 385.016 333.559 385.063V386.337C333.424 386.314 333.236 386.302 332.996 386.302C332.275 386.302 331.719 386.516 331.326 386.944C330.939 387.372 330.746 387.963 330.746 388.719V393H329.252V385.063H330.57L330.746 386.267C330.881 385.857 331.133 385.543 331.502 385.327C331.877 385.104 332.311 384.993 332.803 384.993ZM342.295 390.626C342.113 391.406 341.674 392.033 340.977 392.507C340.279 392.982 339.465 393.219 338.533 393.219C337.73 393.219 337.021 393.043 336.406 392.692C335.797 392.334 335.322 391.839 334.982 391.207C334.648 390.568 334.481 389.833 334.481 389C334.481 388.174 334.651 387.445 334.991 386.812C335.337 386.173 335.812 385.684 336.415 385.344C337.024 384.999 337.713 384.826 338.48 384.826C339.236 384.826 339.898 384.987 340.467 385.309C341.035 385.625 341.478 386.068 341.794 386.636C342.116 387.205 342.277 387.855 342.277 388.587C342.277 388.986 342.254 389.288 342.207 389.493H335.958C335.981 390.249 336.23 390.855 336.705 391.312C337.18 391.763 337.789 391.989 338.533 391.989C339.084 391.989 339.564 391.866 339.975 391.62C340.391 391.374 340.678 391.042 340.836 390.626H342.295ZM340.766 388.412C340.754 387.703 340.537 387.14 340.115 386.724C339.693 386.302 339.143 386.091 338.463 386.091C337.742 386.091 337.153 386.302 336.696 386.724C336.239 387.14 335.999 387.703 335.976 388.412H340.766ZM31.3906 415.918V419.522H36.4268V420.884H31.3906V424.558H36.9717V426H29.8438V414.459H36.9717V415.918H31.3906ZM39.9072 426H38.2197L40.9531 422.053L38.1846 418.063H39.9424L41.9463 421.034L43.9238 418.063H45.6553L42.8604 422.053L45.6113 426H43.8535C43.2148 425.085 42.5469 424.119 41.8496 423.099L39.9072 426ZM51.0518 419.302H49.4873V426H47.9932V419.302H46.4463V418.063H47.9932V415.954H49.4873V418.063H51.0518V419.302ZM59.8584 423.626C59.6768 424.406 59.2373 425.033 58.54 425.507C57.8428 425.982 57.0283 426.219 56.0967 426.219C55.2939 426.219 54.585 426.043 53.9697 425.692C53.3604 425.334 52.8857 424.839 52.5459 424.207C52.2119 423.568 52.0449 422.833 52.0449 422C52.0449 421.174 52.2148 420.445 52.5547 419.812C52.9004 419.173 53.375 418.684 53.9785 418.344C54.5879 417.999 55.2764 417.826 56.0439 417.826C56.7998 417.826 57.4619 417.987 58.0303 418.309C58.5986 418.625 59.041 419.068 59.3574 419.636C59.6797 420.205 59.8408 420.855 59.8408 421.587C59.8408 421.986 59.8174 422.288 59.7705 422.493H53.5215C53.5449 423.249 53.7939 423.855 54.2686 424.312C54.7432 424.763 55.3525 424.989 56.0967 424.989C56.6475 424.989 57.1279 424.866 57.5381 424.62C57.9541 424.374 58.2412 424.042 58.3994 423.626H59.8584ZM58.3291 421.412C58.3174 420.703 58.1006 420.14 57.6787 419.724C57.2568 419.302 56.7061 419.091 56.0264 419.091C55.3057 419.091 54.7168 419.302 54.2598 419.724C53.8027 420.14 53.5625 420.703 53.5391 421.412H58.3291ZM65.7383 417.826C66.6406 417.826 67.3613 418.113 67.9004 418.687C68.4395 419.255 68.709 420.055 68.709 421.086V426H67.1973V421.429C67.1973 419.929 66.5908 419.179 65.3779 419.179C64.7158 419.179 64.1914 419.378 63.8047 419.777C63.4238 420.169 63.2334 420.676 63.2334 421.297V425.982H61.7393V418.063H62.9873L63.1279 419.179C63.3682 418.769 63.7256 418.441 64.2002 418.195C64.6748 417.949 65.1875 417.826 65.7383 417.826ZM73.7979 426.219C72.8721 426.219 72.1104 425.997 71.5127 425.551C70.9209 425.106 70.6016 424.517 70.5547 423.785H72.0137C72.0488 424.195 72.2246 424.511 72.541 424.734C72.8574 424.957 73.2764 425.068 73.7979 425.068C74.3135 425.068 74.7148 424.965 75.002 424.76C75.2891 424.555 75.4326 424.265 75.4326 423.89C75.4326 423.521 75.3184 423.257 75.0898 423.099C74.8613 422.935 74.5684 422.815 74.2109 422.739L72.8047 422.414C72.1074 422.255 71.5918 421.989 71.2578 421.614C70.9297 421.239 70.7656 420.782 70.7656 420.243C70.7656 419.51 71.041 418.924 71.5918 418.485C72.1484 418.045 72.8691 417.826 73.7539 417.826C74.6562 417.826 75.3857 418.051 75.9424 418.502C76.5049 418.954 76.7979 419.551 76.8213 420.295H75.3623C75.3506 419.885 75.1924 419.563 74.8877 419.329C74.5889 419.094 74.2051 418.977 73.7363 418.977C73.291 418.977 72.9365 419.077 72.6729 419.276C72.415 419.475 72.2861 419.753 72.2861 420.111C72.2861 420.445 72.3887 420.688 72.5938 420.84C72.8047 420.993 73.0801 421.104 73.4199 421.174L75.0195 421.535C75.6816 421.681 76.1738 421.951 76.4961 422.343C76.8184 422.73 76.9795 423.199 76.9795 423.75C76.9795 424.505 76.6895 425.106 76.1094 425.551C75.5352 425.997 74.7646 426.219 73.7979 426.219ZM79.7217 416.121C79.4111 416.121 79.1504 416.015 78.9395 415.804C78.7285 415.593 78.623 415.333 78.623 415.022C78.623 414.723 78.7285 414.471 78.9395 414.266C79.1504 414.061 79.4111 413.958 79.7217 413.958C80.0439 413.958 80.3076 414.061 80.5127 414.266C80.7178 414.471 80.8203 414.723 80.8203 415.022C80.8203 415.321 80.7178 415.579 80.5127 415.795C80.3135 416.012 80.0498 416.121 79.7217 416.121ZM78.9834 418.063H80.4775V426H78.9834V418.063ZM87.3857 417.826C88.1299 417.826 88.792 418.001 89.3721 418.353C89.958 418.699 90.415 419.191 90.7432 419.83C91.0713 420.462 91.2354 421.192 91.2354 422.018C91.2354 422.844 91.0742 423.577 90.752 424.215C90.4297 424.854 89.9756 425.349 89.3896 425.701C88.8096 426.046 88.1475 426.219 87.4033 426.219C86.7178 426.219 86.1084 426.073 85.5752 425.78C85.042 425.481 84.6377 425.08 84.3623 424.576L84.2393 426H83.0088V413.651H84.4678V419.25C84.7432 418.804 85.1387 418.456 85.6543 418.204C86.1699 417.952 86.7471 417.826 87.3857 417.826ZM87.1484 424.866C87.916 424.866 88.5371 424.605 89.0117 424.083C89.4863 423.562 89.7236 422.874 89.7236 422.018C89.7236 421.168 89.4863 420.483 89.0117 419.961C88.5371 419.44 87.9102 419.179 87.1309 419.179C86.3516 419.179 85.7305 419.431 85.2676 419.935C84.8105 420.439 84.582 421.122 84.582 421.983C84.582 422.862 84.8135 423.562 85.2764 424.083C85.7451 424.605 86.3691 424.866 87.1484 424.866ZM93.2217 413.651H94.7158V426H93.2217V413.651ZM104.507 423.626C104.325 424.406 103.886 425.033 103.188 425.507C102.491 425.982 101.677 426.219 100.745 426.219C99.9424 426.219 99.2334 426.043 98.6182 425.692C98.0088 425.334 97.5342 424.839 97.1943 424.207C96.8604 423.568 96.6934 422.833 96.6934 422C96.6934 421.174 96.8633 420.445 97.2031 419.812C97.5488 419.173 98.0234 418.684 98.627 418.344C99.2363 417.999 99.9248 417.826 100.692 417.826C101.448 417.826 102.11 417.987 102.679 418.309C103.247 418.625 103.689 419.068 104.006 419.636C104.328 420.205 104.489 420.855 104.489 421.587C104.489 421.986 104.466 422.288 104.419 422.493H98.1699C98.1934 423.249 98.4424 423.855 98.917 424.312C99.3916 424.763 100.001 424.989 100.745 424.989C101.296 424.989 101.776 424.866 102.187 424.62C102.603 424.374 102.89 424.042 103.048 423.626H104.507ZM102.978 421.412C102.966 420.703 102.749 420.14 102.327 419.724C101.905 419.302 101.354 419.091 100.675 419.091C99.9541 419.091 99.3652 419.302 98.9082 419.724C98.4512 420.14 98.2109 420.703 98.1875 421.412H102.978ZM110.791 426V414.459H112.355V426H110.791ZM118.912 417.826C119.814 417.826 120.535 418.113 121.074 418.687C121.613 419.255 121.883 420.055 121.883 421.086V426H120.371V421.429C120.371 419.929 119.765 419.179 118.552 419.179C117.89 419.179 117.365 419.378 116.979 419.777C116.598 420.169 116.407 420.676 116.407 421.297V425.982H114.913V418.063H116.161L116.302 419.179C116.542 418.769 116.899 418.441 117.374 418.195C117.849 417.949 118.361 417.826 118.912 417.826ZM134.565 413.923C134.888 413.923 135.151 414.026 135.356 414.231C135.562 414.43 135.664 414.682 135.664 414.987C135.664 415.297 135.562 415.558 135.356 415.769C135.151 415.98 134.888 416.085 134.565 416.085C134.243 416.085 133.977 415.98 133.766 415.769C133.555 415.558 133.449 415.297 133.449 414.987C133.449 414.688 133.552 414.436 133.757 414.231C133.968 414.026 134.237 413.923 134.565 413.923ZM126.172 415.022C126.172 415.321 126.069 415.579 125.864 415.795C125.665 416.012 125.401 416.121 125.073 416.121C124.763 416.121 124.502 416.015 124.291 415.804C124.08 415.593 123.975 415.333 123.975 415.022C123.975 414.723 124.08 414.471 124.291 414.266C124.502 414.061 124.763 413.958 125.073 413.958C125.396 413.958 125.659 414.061 125.864 414.266C126.069 414.471 126.172 414.723 126.172 415.022ZM130.566 418.063H135.304V426H133.81V419.302H130.566V426H129.072V419.302H125.829V426H124.335V418.063H129.072V415.954H130.566V418.063ZM145.525 418.063V426H144.119V424.593C143.855 425.085 143.451 425.481 142.906 425.78C142.361 426.073 141.746 426.219 141.061 426.219C140.328 426.219 139.675 426.046 139.101 425.701C138.532 425.349 138.09 424.86 137.773 424.233C137.457 423.6 137.299 422.874 137.299 422.053C137.299 421.215 137.463 420.477 137.791 419.838C138.125 419.194 138.582 418.699 139.162 418.353C139.742 418.001 140.41 417.826 141.166 417.826C141.84 417.826 142.435 417.96 142.95 418.23C143.466 418.5 143.867 418.869 144.154 419.337L144.286 418.063H145.525ZM141.386 424.866C142.165 424.866 142.795 424.605 143.275 424.083C143.756 423.562 143.996 422.862 143.996 421.983C143.996 421.133 143.759 420.454 143.284 419.944C142.81 419.434 142.188 419.179 141.421 419.179C140.63 419.179 140 419.44 139.531 419.961C139.062 420.483 138.828 421.168 138.828 422.018C138.828 422.868 139.062 423.556 139.531 424.083C140 424.605 140.618 424.866 141.386 424.866ZM154.191 413.923C154.514 413.923 154.777 414.026 154.982 414.231C155.188 414.43 155.29 414.682 155.29 414.987C155.29 415.297 155.188 415.558 154.982 415.769C154.777 415.98 154.514 416.085 154.191 416.085C153.869 416.085 153.603 415.98 153.392 415.769C153.181 415.558 153.075 415.297 153.075 414.987C153.075 414.688 153.181 414.436 153.392 414.231C153.603 414.026 153.869 413.923 154.191 413.923ZM150.21 418.063H154.93V426H153.436V419.302H150.21V426H148.698V419.302H147.151V418.063H148.698V415.954H150.21V418.063ZM158.085 418.063L159.017 420.568C159.304 421.335 159.588 422.1 159.869 422.862C160.156 423.624 160.347 424.142 160.44 424.417C160.546 424.13 160.742 423.606 161.029 422.844C161.322 422.083 161.618 421.324 161.917 420.568L162.91 418.063H164.475L161.161 426H159.667L156.468 418.063H158.085ZM172.921 423.626C172.739 424.406 172.3 425.033 171.603 425.507C170.905 425.982 170.091 426.219 169.159 426.219C168.356 426.219 167.647 426.043 167.032 425.692C166.423 425.334 165.948 424.839 165.608 424.207C165.274 423.568 165.107 422.833 165.107 422C165.107 421.174 165.277 420.445 165.617 419.812C165.963 419.173 166.438 418.684 167.041 418.344C167.65 417.999 168.339 417.826 169.106 417.826C169.862 417.826 170.524 417.987 171.093 418.309C171.661 418.625 172.104 419.068 172.42 419.636C172.742 420.205 172.903 420.855 172.903 421.587C172.903 421.986 172.88 422.288 172.833 422.493H166.584C166.607 423.249 166.856 423.855 167.331 424.312C167.806 424.763 168.415 424.989 169.159 424.989C169.71 424.989 170.19 424.866 170.601 424.62C171.017 424.374 171.304 424.042 171.462 423.626H172.921ZM171.392 421.412C171.38 420.703 171.163 420.14 170.741 419.724C170.319 419.302 169.769 419.091 169.089 419.091C168.368 419.091 167.779 419.302 167.322 419.724C166.865 420.14 166.625 420.703 166.602 421.412H171.392ZM177.509 426.219C176.583 426.219 175.821 425.997 175.224 425.551C174.632 425.106 174.312 424.517 174.266 423.785H175.725C175.76 424.195 175.936 424.511 176.252 424.734C176.568 424.957 176.987 425.068 177.509 425.068C178.024 425.068 178.426 424.965 178.713 424.76C179 424.555 179.144 424.265 179.144 423.89C179.144 423.521 179.029 423.257 178.801 423.099C178.572 422.935 178.279 422.815 177.922 422.739L176.516 422.414C175.818 422.255 175.303 421.989 174.969 421.614C174.641 421.239 174.477 420.782 174.477 420.243C174.477 419.51 174.752 418.924 175.303 418.485C175.859 418.045 176.58 417.826 177.465 417.826C178.367 417.826 179.097 418.051 179.653 418.502C180.216 418.954 180.509 419.551 180.532 420.295H179.073C179.062 419.885 178.903 419.563 178.599 419.329C178.3 419.094 177.916 418.977 177.447 418.977C177.002 418.977 176.647 419.077 176.384 419.276C176.126 419.475 175.997 419.753 175.997 420.111C175.997 420.445 176.1 420.688 176.305 420.84C176.516 420.993 176.791 421.104 177.131 421.174L178.73 421.535C179.393 421.681 179.885 421.951 180.207 422.343C180.529 422.73 180.69 423.199 180.69 423.75C180.69 424.505 180.4 425.106 179.82 425.551C179.246 425.997 178.476 426.219 177.509 426.219ZM183.187 426.219C182.835 426.219 182.548 426.108 182.325 425.885C182.108 425.663 182 425.396 182 425.085C182 424.763 182.108 424.488 182.325 424.259C182.548 424.025 182.835 423.908 183.187 423.908C183.521 423.908 183.799 424.022 184.021 424.25C184.244 424.479 184.355 424.757 184.355 425.085C184.355 425.396 184.244 425.663 184.021 425.885C183.799 426.108 183.521 426.219 183.187 426.219ZM192.178 415.918V419.522H197.214V420.884H192.178V424.558H197.759V426H190.631V414.459H197.759V415.918H192.178ZM206.785 418.063H212.182V426H210.688V419.302H206.785V426H205.291V419.302H201.564V426H200.088V419.302H199.007V418.063H200.088V416.639C200.088 415.678 200.39 414.902 200.993 414.31C201.603 413.712 202.411 413.414 203.419 413.414C203.993 413.414 204.512 413.528 204.975 413.756C205.438 413.985 205.795 414.298 206.047 414.697C206.633 413.847 207.538 413.419 208.763 413.414C209.771 413.414 210.579 413.695 211.188 414.257C211.804 414.814 212.135 415.59 212.182 416.586H210.74C210.693 415.977 210.488 415.517 210.125 415.207C209.768 414.89 209.308 414.732 208.745 414.732C208.147 414.732 207.67 414.911 207.312 415.268C206.961 415.62 206.785 416.118 206.785 416.762V418.063ZM205.291 416.569C205.291 415.983 205.127 415.532 204.799 415.215C204.477 414.893 204.028 414.732 203.454 414.732C202.88 414.732 202.42 414.899 202.074 415.233C201.734 415.561 201.564 416.024 201.564 416.622V418.063H205.291V416.569ZM213.834 422.018C213.834 421.192 214.007 420.462 214.353 419.83C214.704 419.191 215.188 418.699 215.803 418.353C216.424 418.001 217.136 417.826 217.938 417.826C218.958 417.826 219.816 418.086 220.514 418.608C221.211 419.129 221.63 419.835 221.771 420.726H220.241C220.124 420.234 219.857 419.847 219.441 419.566C219.025 419.285 218.519 419.144 217.921 419.144C217.153 419.144 216.532 419.402 216.058 419.917C215.583 420.433 215.346 421.139 215.346 422.036C215.346 422.897 215.574 423.591 216.031 424.119C216.488 424.64 217.118 424.901 217.921 424.901C218.519 424.901 219.028 424.757 219.45 424.47C219.872 424.183 220.136 423.805 220.241 423.336H221.771C221.624 424.198 221.199 424.895 220.496 425.428C219.799 425.956 218.952 426.219 217.956 426.219C217.142 426.219 216.421 426.046 215.794 425.701C215.173 425.349 214.689 424.857 214.344 424.224C214.004 423.585 213.834 422.85 213.834 422.018ZM224.53 416.121C224.22 416.121 223.959 416.015 223.748 415.804C223.537 415.593 223.432 415.333 223.432 415.022C223.432 414.723 223.537 414.471 223.748 414.266C223.959 414.061 224.22 413.958 224.53 413.958C224.853 413.958 225.116 414.061 225.321 414.266C225.526 414.471 225.629 414.723 225.629 415.022C225.629 415.321 225.526 415.579 225.321 415.795C225.122 416.012 224.858 416.121 224.53 416.121ZM223.792 418.063H225.286V426H223.792V418.063ZM235.095 423.626C234.913 424.406 234.474 425.033 233.776 425.507C233.079 425.982 232.265 426.219 231.333 426.219C230.53 426.219 229.821 426.043 229.206 425.692C228.597 425.334 228.122 424.839 227.782 424.207C227.448 423.568 227.281 422.833 227.281 422C227.281 421.174 227.451 420.445 227.791 419.812C228.137 419.173 228.611 418.684 229.215 418.344C229.824 417.999 230.513 417.826 231.28 417.826C232.036 417.826 232.698 417.987 233.267 418.309C233.835 418.625 234.277 419.068 234.594 419.636C234.916 420.205 235.077 420.855 235.077 421.587C235.077 421.986 235.054 422.288 235.007 422.493H228.758C228.781 423.249 229.03 423.855 229.505 424.312C229.979 424.763 230.589 424.989 231.333 424.989C231.884 424.989 232.364 424.866 232.774 424.62C233.19 424.374 233.478 424.042 233.636 423.626H235.095ZM233.565 421.412C233.554 420.703 233.337 420.14 232.915 419.724C232.493 419.302 231.942 419.091 231.263 419.091C230.542 419.091 229.953 419.302 229.496 419.724C229.039 420.14 228.799 420.703 228.775 421.412H233.565ZM240.975 417.826C241.877 417.826 242.598 418.113 243.137 418.687C243.676 419.255 243.945 420.055 243.945 421.086V426H242.434V421.429C242.434 419.929 241.827 419.179 240.614 419.179C239.952 419.179 239.428 419.378 239.041 419.777C238.66 420.169 238.47 420.676 238.47 421.297V425.982H236.976V418.063H238.224L238.364 419.179C238.604 418.769 238.962 418.441 239.437 418.195C239.911 417.949 240.424 417.826 240.975 417.826ZM250.124 419.302H248.56V426H247.065V419.302H245.519V418.063H247.065V415.954H248.56V418.063H250.124V419.302ZM251.794 413.651H253.288V426H251.794V413.651ZM262.895 418.063L259.265 427.546C258.978 428.255 258.617 428.789 258.184 429.146C257.75 429.509 257.155 429.691 256.399 429.691C256.001 429.691 255.588 429.629 255.16 429.506V428.285C255.207 428.296 255.324 428.32 255.512 428.355C255.705 428.39 255.922 428.408 256.162 428.408C256.678 428.408 257.056 428.305 257.296 428.1C257.536 427.901 257.735 427.59 257.894 427.168L258.184 426.413L254.782 418.063H256.382L258.887 424.541L261.312 418.063H262.895ZM268.344 417.615C268.344 416.595 268.704 415.778 269.425 415.163C270.146 414.542 271.095 414.231 272.272 414.231C273.04 414.231 273.72 414.369 274.312 414.644C274.909 414.919 275.372 415.306 275.7 415.804C276.028 416.302 276.192 416.874 276.192 417.518H274.593C274.581 416.932 274.358 416.463 273.925 416.112C273.497 415.754 272.929 415.576 272.22 415.576C271.534 415.576 270.986 415.749 270.576 416.094C270.172 416.434 269.97 416.879 269.97 417.43C269.97 417.993 270.143 418.397 270.488 418.643C270.84 418.889 271.285 419.08 271.824 419.214L273.767 419.733C274.499 419.915 275.135 420.254 275.674 420.752C276.213 421.25 276.482 421.945 276.482 422.835C276.482 423.867 276.104 424.69 275.349 425.305C274.593 425.915 273.585 426.219 272.325 426.219C271.112 426.219 270.122 425.926 269.354 425.34C268.587 424.749 268.168 423.937 268.098 422.906H269.732C269.744 423.527 269.996 424.016 270.488 424.374C270.98 424.725 271.61 424.901 272.378 424.901C273.146 424.901 273.752 424.728 274.197 424.382C274.643 424.031 274.865 423.562 274.865 422.976C274.865 422.437 274.701 422.042 274.373 421.79C274.051 421.538 273.644 421.338 273.151 421.192L271.191 420.691C270.377 420.486 269.697 420.137 269.152 419.645C268.613 419.153 268.344 418.476 268.344 417.615ZM279.128 416.121C278.817 416.121 278.557 416.015 278.346 415.804C278.135 415.593 278.029 415.333 278.029 415.022C278.029 414.723 278.135 414.471 278.346 414.266C278.557 414.061 278.817 413.958 279.128 413.958C279.45 413.958 279.714 414.061 279.919 414.266C280.124 414.471 280.227 414.723 280.227 415.022C280.227 415.321 280.124 415.579 279.919 415.795C279.72 416.012 279.456 416.121 279.128 416.121ZM278.39 418.063H279.884V426H278.39V418.063ZM291.31 417.826C292.147 417.826 292.827 418.081 293.349 418.59C293.876 419.1 294.14 419.824 294.14 420.761V426.017H292.663V421.086C292.663 420.424 292.508 419.932 292.197 419.61C291.893 419.288 291.471 419.126 290.932 419.126C290.346 419.126 289.88 419.326 289.534 419.724C289.194 420.117 289.024 420.594 289.024 421.157V426.017H287.548V421.086C287.548 420.477 287.393 420 287.082 419.654C286.771 419.302 286.338 419.126 285.781 419.126C285.219 419.126 284.765 419.326 284.419 419.724C284.079 420.117 283.909 420.588 283.909 421.139V426.017H282.415V418.063H283.751L283.856 419.074C284.085 418.687 284.404 418.382 284.814 418.16C285.23 417.937 285.685 417.826 286.177 417.826C286.774 417.826 287.302 417.972 287.759 418.265C288.216 418.552 288.541 418.939 288.734 419.425C288.951 418.921 289.288 418.529 289.745 418.248C290.202 417.966 290.724 417.826 291.31 417.826ZM300.96 417.826C301.704 417.826 302.363 418.001 302.938 418.353C303.518 418.699 303.972 419.194 304.3 419.838C304.628 420.477 304.792 421.209 304.792 422.036C304.792 422.85 304.628 423.577 304.3 424.215C303.972 424.854 303.515 425.349 302.929 425.701C302.349 426.046 301.687 426.219 300.942 426.219C300.292 426.219 299.712 426.096 299.202 425.85C298.692 425.604 298.3 425.258 298.024 424.813V429.542H296.565V418.063H297.796L297.919 419.469C298.183 418.977 298.587 418.582 299.132 418.283C299.677 417.978 300.286 417.826 300.96 417.826ZM300.688 424.883C301.467 424.883 302.094 424.62 302.568 424.092C303.043 423.565 303.28 422.879 303.28 422.036C303.28 421.174 303.043 420.486 302.568 419.97C302.094 419.455 301.473 419.197 300.705 419.197C299.926 419.197 299.302 419.458 298.833 419.979C298.37 420.5 298.139 421.201 298.139 422.08C298.139 422.941 298.37 423.624 298.833 424.127C299.302 424.631 299.92 424.883 300.688 424.883ZM306.778 413.651H308.272V426H306.778V413.651ZM311.56 416.121C311.249 416.121 310.988 416.015 310.777 415.804C310.566 415.593 310.461 415.333 310.461 415.022C310.461 414.723 310.566 414.471 310.777 414.266C310.988 414.061 311.249 413.958 311.56 413.958C311.882 413.958 312.146 414.061 312.351 414.266C312.556 414.471 312.658 414.723 312.658 415.022C312.658 415.321 312.556 415.579 312.351 415.795C312.151 416.012 311.888 416.121 311.56 416.121ZM310.821 418.063H312.315V426H310.821V418.063ZM326.299 418.063L322.66 427.546C322.373 428.255 322.013 428.789 321.579 429.146C321.146 429.503 320.554 429.685 319.804 429.691C319.405 429.691 318.989 429.629 318.556 429.506V428.285C318.603 428.296 318.723 428.32 318.916 428.355C319.109 428.39 319.326 428.408 319.566 428.408C320.082 428.408 320.46 428.308 320.7 428.109C320.94 427.904 321.14 427.59 321.298 427.168L321.579 426.413L318.178 418.063H319.786L322.282 424.541L324.717 418.063H326.299ZM318.248 414.837C317.832 414.837 317.524 414.919 317.325 415.083C317.126 415.248 317.003 415.438 316.956 415.655C316.909 415.877 316.886 416.153 316.886 416.481V418.063H318.828V419.302H316.886V426H315.392V419.302H313.95V418.063H315.392V416.191C315.392 414.451 316.256 413.581 317.984 413.581C318.307 413.581 318.588 413.604 318.828 413.651V414.89C318.693 414.855 318.5 414.837 318.248 414.837Z" fill="#4B4F51"/>
<path d="M144.298 236.075C129.924 241.168 115.411 243.521 99.9311 240.58C82.6768 237.3 67.711 222.534 59.2548 207.809C56.1129 202.339 53.6115 196.228 53.9384 189.93C54.6989 175.381 68.4437 173.755 80.1109 176.108C86.6877 177.432 92.7266 180.444 98.6969 183.427C108.609 188.384 120.236 190.822 129.123 197.692C132.105 200.004 134.344 202.782 137.809 204.464C143.199 207.083 149.352 208.319 154.888 210.702C159.615 212.747 164.898 216.111 164.905 221.259C164.906 226.539 159.398 229.903 154.558 232.005C151.132 233.502 147.722 234.868 144.298 236.075Z" fill="url(#paint0_linear)"/>
<path d="M91.3907 48.41C114.937 13.71 163.626 -0.222703 203.092 12.8238C222.122 19.1181 238.071 32.2247 252.782 45.8306C265.748 57.8223 278.328 70.7565 287.183 86.1725C293.229 96.6952 297.557 109.309 300.613 121.085C305.181 138.717 301.032 161.436 278.24 159.771C272.892 159.381 268.266 157.458 263.264 155.776C259.219 154.412 255.254 155.23 251.054 154.564C240.481 152.89 230.296 148.997 220.665 144.438C201.037 135.138 183.103 122.503 162.917 114.353C146.375 107.683 128.709 104.24 110.873 104.208C103.348 104.196 95.4365 104.722 88.7054 101.358C72.1152 93.0571 79.5757 70.675 85.7716 58.0842C87.4131 54.7305 89.2909 51.4976 91.3907 48.41Z" fill="url(#paint1_linear)"/>
<path d="M276.007 53.6475C279.883 57.1585 295.114 66.7432 295.407 55.4955C295.476 52.6934 294.205 49.9727 292.475 47.9206C290.497 45.5653 288.253 44.3298 286.708 41.5857C284.817 38.2724 282.665 35.1584 280.279 32.284C275.401 26.3012 269.706 20.7734 262.797 18.3105C257.95 16.5851 249.745 17.019 247.443 23.2302C244.089 32.2721 258.43 33.9289 262.803 37.224C266.954 40.343 269.304 45.7023 272.592 49.9615C273.631 51.3045 274.774 52.5384 276.007 53.6475Z" fill="url(#paint2_linear)"/>
<path d="M204.324 42.6499C212.535 47.4841 218.694 54.7201 226.18 60.5477C238.644 70.2486 255.727 72.2333 270.02 78.9796C284.594 85.8629 295.598 96.5601 300.574 111.978C307.002 131.879 307.613 155.545 302.152 176.004C296.137 198.525 282.014 213.484 261.363 223.46C240.725 233.431 217.862 238.084 195.059 239.044C192.859 239.138 190.662 239.189 188.456 239.203C138.919 239.491 72.9818 222.054 56.1164 168.839C55.9618 168.352 55.8136 167.866 55.6651 167.373C53.9272 161.444 52.9054 155.329 52.6215 149.157C51.5606 127.278 55.39 103.128 63.0608 82.617C68.2201 68.8082 79.3298 57.1323 91.0364 48.813C107.484 37.1253 127.553 34.1426 147.527 32.7403C162.318 31.7025 178.953 31.3233 192.94 36.9809C196.871 38.5835 200.676 40.4784 204.324 42.6499Z" fill="url(#paint3_linear)"/>
<path d="M235.966 233.12C172.471 251.582 122.419 235.142 103.9 223.933L86.7029 210.745L92.6556 200.855L129.695 197.558L191.206 194.261L240.812 204.152L250.31 199.322L252.004 216.822C254.262 230.371 252.568 226.984 235.966 233.12Z" fill="#FB4C47"/>
<path d="M117.901 225.278H226.631C226.631 225.278 236.314 144.155 221.999 136.243C207.686 128.331 140.753 129.985 125.917 136.742C111.082 143.499 117.901 225.278 117.901 225.278Z" fill="#FB4C47"/>
<path d="M122.922 119.157C122.7 119.157 122.476 119.075 122.303 118.908C122.206 118.819 112.819 109.694 119.292 93.629C121.561 87.9958 123.673 84.0387 125.535 80.5493C128.898 74.253 131.326 69.7026 132.441 59.6806C132.496 59.1862 132.949 58.839 133.438 58.8824C133.934 58.9379 134.291 59.3864 134.235 59.8807C133.082 70.25 130.454 75.1718 127.13 81.4029C125.287 84.8513 123.201 88.7627 120.966 94.3042C114.951 109.238 123.456 117.512 123.541 117.596C123.904 117.939 123.921 118.51 123.577 118.872C123.401 119.06 123.163 119.157 122.922 119.157Z" fill="#000C3E"/>
<path d="M183.308 23.6795C183.05 30.5449 177.284 35.9031 170.426 35.6451C163.568 35.3871 158.216 29.6141 158.474 22.7487C158.732 15.8833 164.498 10.525 171.356 10.783C178.213 11.0411 183.566 16.8141 183.308 23.6795Z" fill="#000C3E"/>
<path d="M122.087 114.341C122.087 114.341 125.187 122.108 139.846 125.812C154.506 129.516 166.545 124.971 177.709 129.953C188.876 134.937 205.824 130.698 209.451 126.111C213.076 121.525 216.203 68.0749 207.804 58.4749C199.405 48.8725 152.581 38.009 141.569 47.7536C130.556 57.4983 116.007 107.861 122.087 114.341Z" fill="#000C3E"/>
<path d="M214.212 75.2881C213.364 97.9124 194.359 115.567 171.758 114.72C149.16 113.871 128.184 93.8298 129.032 71.2056C129.878 48.5813 149.061 32.1569 171.659 33.0058C194.261 33.8522 215.06 52.6639 214.212 75.2881Z" fill="#000C3E"/>
<path d="M190.088 109.565C190.088 109.565 192.745 141.49 190.088 145.037C187.431 148.584 170.599 145.925 166.172 145.037C161.742 144.152 159.969 109.565 162.629 109.565C165.285 109.565 189.578 102.446 190.088 109.565Z" fill="#FFCEB0"/>
<path d="M139.859 72.2155C139.859 72.2155 141.543 121.976 175.147 124.124C208.751 126.273 208.717 56.1624 196.556 49.4948C184.394 42.8247 133.647 44.0762 139.859 72.2155Z" fill="#FFCEB0"/>
<path d="M179.794 82.8679C179.794 82.8679 186.211 98.183 184.561 99.1983C182.909 100.213 178.077 100.033 176.774 98.9065C175.47 97.7803 177.169 81.1534 179.794 82.8679Z" fill="#EE9B68"/>
<path d="M166.319 45.6792C166.319 45.6792 154.27 51.5125 151.977 62.4629C149.684 73.4157 150.872 101.456 138.105 100.168C138.105 100.168 113.385 44.6761 166.319 45.6792Z" fill="#000C3E"/>
<path d="M172.671 45.9172C171.578 46.701 185.095 46.6696 192.823 56.0477C200.552 65.4259 202.388 88.8652 203.582 89.3017C204.777 89.7357 209.549 60.2557 201.077 51.3985C192.603 42.5436 178.893 41.4585 172.671 45.9172Z" fill="#000C3E"/>
<path d="M163.093 119.587C163.093 119.587 176.168 127.029 189.744 120.074C189.744 120.074 190.799 128.427 189.744 130.354C188.686 132.281 167.186 133.658 162.954 124.162C162.954 124.162 161.872 119.175 163.093 119.587Z" fill="#EE9B68"/>
<path d="M200.394 91.288C200.394 91.288 203.036 78.8087 207.444 83.1976C211.85 87.5864 207.728 100.64 203.33 101.865C198.932 103.09 197.92 97.7314 200.394 91.288Z" fill="#FFCEB0"/>
<path d="M147.683 89.311C147.683 89.311 145.407 76.6485 139.479 80.6491C133.551 84.6497 137.641 98.0115 143.085 99.6055C148.526 101.197 150.258 95.9449 147.683 89.311Z" fill="#FFCEB0"/>
<path d="M186.829 75.8663C186.829 75.8663 192.408 72.1165 196.524 76.2136C200.142 79.8163 192.497 77.3976 189.859 78.1958C187.222 78.9916 183.645 79.1459 186.829 75.8663Z" fill="#41294A"/>
<path d="M172.118 76.752C172.118 76.752 166.77 72.6791 162.42 76.5254C158.595 79.9086 166.371 77.9457 168.955 78.8982C171.54 79.8483 175.105 80.2149 172.118 76.752Z" fill="#41294A"/>
<path d="M166.309 80.8496C161.085 80.8496 156.838 84.9467 156.643 90.1771C156.443 95.516 160.62 100.023 165.955 100.223L166.324 100.23C171.548 100.23 175.795 96.1334 175.99 90.9029C176.086 88.3155 175.171 85.8461 173.413 83.9483C171.654 82.0505 169.262 80.9533 166.68 80.8568L166.309 80.8496ZM166.324 101.436C166.187 101.436 166.049 101.434 165.91 101.429C159.912 101.202 155.215 96.1358 155.439 90.1313C155.665 84.1123 160.702 79.4365 166.724 79.6511C169.629 79.7596 172.319 80.9943 174.294 83.1284C176.272 85.2626 177.3 88.0381 177.194 90.9463C176.973 96.8279 172.199 101.436 166.324 101.436Z" fill="#FFFCF6"/>
<path d="M156.045 90.7571C155.968 90.7571 155.891 90.7426 155.814 90.7113L146.706 86.9349C146.4 86.8071 146.253 86.4526 146.381 86.1464C146.509 85.8377 146.86 85.6906 147.166 85.8208L156.276 89.5972C156.582 89.725 156.729 90.077 156.601 90.3857C156.505 90.6172 156.281 90.7571 156.045 90.7571Z" fill="#FFFCF6"/>
<path d="M177.191 50.2929C177.191 50.2929 175.827 69.6134 183.254 72.0611C190.68 74.5111 205.021 74.2651 205.903 71.3135C206.784 68.3643 191.744 44.6236 180.951 40.8159C162.025 34.141 144.774 62.0777 146.935 69.5001C149.095 76.925 171.643 73.8938 175.112 72.9388C178.583 71.9839 176.497 55.6246 177.191 50.2929Z" fill="#000C3E"/>
<path d="M177.191 90.9487C176.88 90.9487 176.615 90.7076 176.591 90.3917C176.567 90.0589 176.815 89.7695 177.145 89.743L183.273 89.2776C183.61 89.2631 183.894 89.4994 183.921 89.8346C183.945 90.165 183.697 90.4544 183.364 90.4809L177.239 90.9487C177.222 90.9487 177.205 90.9487 177.191 90.9487Z" fill="#FFFCF6"/>
<path d="M163.128 35.5753C162.988 35.5753 162.848 35.544 162.716 35.474C159.108 33.6124 156.954 31.0153 156.323 27.7598C154.929 20.5978 161.439 12.9029 161.719 12.5797C162.044 12.2011 162.612 12.1601 162.991 12.4808C163.371 12.8064 163.415 13.3779 163.089 13.7565C163.027 13.8288 156.865 21.1187 158.096 27.4198C158.619 30.1013 160.452 32.2716 163.542 33.868C163.985 34.0971 164.161 34.6421 163.932 35.0858C163.771 35.3969 163.455 35.5753 163.128 35.5753Z" fill="#000C3E"/>
<path d="M177.462 37.7909C177.204 37.7909 176.946 37.68 176.768 37.4678C176.448 37.0843 176.498 36.5128 176.881 36.1921C176.956 36.1318 184.228 29.9537 184.047 23.5368C183.97 20.8046 182.52 18.3618 179.733 16.2807C179.333 15.9817 179.251 15.415 179.55 15.0147C179.846 14.6168 180.417 14.5324 180.812 14.8315C184.067 17.2622 185.762 20.1776 185.854 23.4934C186.054 30.788 178.367 37.3062 178.04 37.5811C177.871 37.721 177.664 37.7909 177.462 37.7909Z" fill="#000C3E"/>
<path d="M206.34 124.286C206.048 124.286 205.762 124.144 205.588 123.884C205.309 123.469 205.422 122.909 205.836 122.63C206.195 122.386 214.689 116.55 213.359 105.59C212.841 101.312 211.67 96.5402 210.43 91.4858C208.274 82.6888 206.041 73.5929 206.605 65.0129C206.636 64.5161 207.079 64.1158 207.566 64.1689C208.065 64.2027 208.44 64.6319 208.407 65.1311C207.862 73.4337 210.059 82.3898 212.186 91.0542C213.436 96.1616 214.621 100.987 215.151 105.371C216.62 117.46 207.238 123.867 206.838 124.134C206.687 124.236 206.511 124.286 206.34 124.286Z" fill="#000C3E"/>
<path d="M214.131 79.4308C214.091 79.4308 214.05 79.4284 214.004 79.4211C213.51 79.3512 213.168 78.8954 213.238 78.4011C215.211 64.3906 211.272 53.2738 201.536 45.3618C194.252 39.4417 186.313 37.6355 186.234 37.6186C185.747 37.5125 185.439 37.0302 185.547 36.5407C185.653 36.0536 186.137 35.7473 186.624 35.8534C186.956 35.9258 219.958 43.6376 215.025 78.6519C214.962 79.1052 214.577 79.4308 214.131 79.4308Z" fill="#000C3E"/>
<path d="M181.458 114.902C179.623 114.902 178.202 114.319 178.11 114.28C177.653 114.087 177.436 113.559 177.628 113.099C177.819 112.641 178.346 112.423 178.806 112.612C178.835 112.624 181.572 113.726 183.961 112.542C184.409 112.315 184.949 112.498 185.173 112.947C185.394 113.393 185.214 113.935 184.766 114.157C183.641 114.719 182.485 114.902 181.458 114.902Z" fill="#EE9B68"/>
<path d="M144.261 96.4225C144.174 96.4225 144.085 96.4104 143.998 96.3839C143.519 96.2368 143.252 95.7328 143.396 95.2553C145.215 89.2798 140.865 85.3105 140.821 85.2695C140.448 84.9367 140.417 84.3652 140.749 83.9939C141.079 83.6201 141.655 83.5863 142.023 83.9191C142.24 84.112 147.277 88.7131 145.126 95.781C145.008 96.1717 144.649 96.4225 144.261 96.4225Z" fill="#EE9B68"/>
<path d="M203.356 96.5991C203.334 96.5991 203.313 96.5991 203.294 96.5967C202.795 96.5605 202.419 96.1289 202.455 95.6321C202.865 89.8519 206.471 86.9244 206.622 86.8038C207.02 86.4927 207.576 86.5578 207.889 86.9485C208.2 87.3367 208.135 87.9058 207.75 88.2169C207.718 88.2434 204.609 90.8068 204.257 95.7575C204.223 96.235 203.826 96.5991 203.356 96.5991Z" fill="#EE9B68"/>
<path d="M143.086 139.504C143.086 139.504 174.187 167.134 191.525 159.934C208.861 152.733 213.984 135.817 205.269 133.227C196.555 130.637 129.457 128.679 143.086 139.504Z" fill="#FFCEB0"/>
<path d="M183.255 111.661C183.154 111.661 183.05 111.645 182.949 111.608C180.119 110.581 178.719 109.33 178.666 107.777C178.582 105.242 182.45 103.465 182.891 103.27C183.344 103.069 183.879 103.274 184.081 103.733C184.281 104.188 184.076 104.724 183.618 104.926C182.33 105.495 180.439 106.778 180.473 107.716C180.494 108.396 181.651 109.214 183.561 109.906C184.03 110.077 184.274 110.596 184.105 111.063C183.97 111.432 183.623 111.661 183.255 111.661Z" fill="#EE9B68"/>
<path d="M168.957 93.0385C168.673 93.0385 168.389 92.9372 168.16 92.737C164.128 89.1681 161.321 90.0941 161.203 90.1326C160.584 90.3545 159.895 90.0338 159.667 89.4189C159.438 88.8015 159.736 88.1191 160.348 87.8803C160.517 87.8128 164.547 86.3201 169.754 90.9284C170.253 91.3697 170.301 92.1342 169.86 92.6309C169.622 92.901 169.289 93.0385 168.957 93.0385Z" fill="#41294A"/>
<path d="M190.215 93.2639C189.882 93.2639 189.552 93.1265 189.311 92.8564C188.871 92.3572 188.919 91.5952 189.417 91.1539C194.632 86.5408 198.655 88.0383 198.823 88.1058C199.442 88.347 199.751 89.0463 199.507 89.666C199.269 90.2834 198.58 90.5872 197.966 90.3581C197.821 90.3075 195.022 89.4153 191.012 92.9625C190.783 93.1626 190.499 93.2639 190.215 93.2639Z" fill="#41294A"/>
<path d="M265.55 112.262L242.715 105.659L236.031 114.309L219.883 112.602L238.912 121.939L245.555 111.063L265.55 112.262Z" fill="#000C3E"/>
<path d="M245.717 95.6281L231.298 95.8524L228.95 102.057L219.276 103.933L231.973 105.973L233.902 98.4833L245.717 95.6281Z" fill="#000C3E"/>
<path d="M193.53 79.3136C188.305 79.3136 184.059 83.4106 183.864 88.6411C183.664 93.9824 187.84 98.487 193.176 98.6872L193.544 98.6944C198.769 98.6944 203.016 94.5974 203.211 89.3669C203.411 84.028 199.231 79.521 193.898 79.3208L193.53 79.3136ZM193.544 99.9001C193.405 99.9001 193.267 99.8977 193.128 99.8929C187.132 99.6662 182.435 94.5998 182.659 88.5977C182.886 82.5763 187.918 77.9053 193.947 78.1151C199.942 78.3418 204.637 83.4082 204.415 89.4103C204.196 95.2919 199.419 99.9001 193.544 99.9001Z" fill="#FFFCF6"/>
<path d="M158.465 181.964C158.465 181.964 176.774 160.37 192.763 130.962C199.028 119.436 210.766 116.636 211.192 118.252C211.618 119.87 204.371 126.617 204.371 126.617C204.371 126.617 214.03 119.489 215.595 121.813C217.161 124.138 209.275 131.199 209.275 131.199C209.275 131.199 216.308 127.126 219.293 128.833C222.277 130.54 210.978 132.708 211.192 138.65C214.473 229.899 171.487 222.788 171.487 222.788L158.465 181.964Z" fill="#FFBD96"/>
<path d="M176.778 161.273C176.665 161.273 176.549 161.252 176.436 161.206C175.976 161.018 175.754 160.49 175.942 160.027C186.463 134.241 192.936 130.472 193.205 130.325C193.644 130.084 194.19 130.25 194.431 130.684C194.67 131.121 194.511 131.666 194.082 131.907C193.959 131.981 187.718 135.946 177.614 160.711C177.471 161.061 177.132 161.273 176.778 161.273Z" fill="#EE9B68"/>
<path d="M148.854 198.223L86.7807 203.179C86.7807 203.179 84.6972 173.426 93.6504 158.065C102.604 142.704 127.565 135.755 131.74 134.894C135.914 134.033 148.854 198.223 148.854 198.223Z" fill="#FB4C47"/>
<path d="M220.28 135.379C220.28 135.379 242.62 140.218 246.915 163.873C249.663 178.996 253.52 227.337 253.52 227.337L243.534 231.165L234.358 233.899L215.039 238.274L220.28 135.379Z" fill="#D9423D"/>
<path d="M156.038 178.12C156.038 178.12 182.578 221.634 173.35 222.84C164.122 224.046 117.152 227.663 104.506 222.84C91.86 218.017 85.4167 212.051 87.0257 198.774C85.6064 178.12 92.3813 152.836 95.7487 158.561C112.87 187.669 156.038 178.12 156.038 178.12Z" fill="#D9423D"/>
<path d="M153.388 179.326C135.852 179.326 119.976 161.918 119.309 161.177C118.863 160.683 118.902 159.919 119.396 159.475C119.89 159.029 120.651 159.067 121.096 159.562C121.253 159.735 136.931 176.915 153.388 176.915C154.052 176.915 154.592 177.455 154.592 178.12C154.592 178.786 154.052 179.326 153.388 179.326Z" fill="#B43936"/>
<path d="M223.789 222.37H223.76C223.096 222.353 222.568 221.801 222.585 221.136C222.592 220.827 223.31 190.187 222.587 176.444C221.908 163.536 218.57 160.637 218.536 160.608C218.032 160.193 217.938 159.444 218.338 158.927C218.733 158.416 219.458 158.298 219.988 158.684C220.422 159.005 224.249 162.205 224.991 176.316C225.721 190.153 225.001 220.885 224.994 221.194C224.977 221.849 224.442 222.37 223.789 222.37Z" fill="#B43936"/>
<path d="M174.501 13.1987C174.184 13.1987 173.84 13.2356 173.467 13.3092C172.558 13.4916 171.969 13.9333 171.616 14.7C170.039 18.1121 173.363 26.2392 175.738 31.0406C177.206 25.7143 178.965 16.811 176.479 14.0054C176.001 13.466 175.349 13.1987 174.501 13.1987ZM176.015 35.0481C175.62 35.0481 175.25 34.8352 175.055 34.4831C174.215 32.9771 166.929 19.6021 169.618 13.7781C170.265 12.3777 171.447 11.4687 173.037 11.1518C175.745 10.6124 177.3 11.6127 178.126 12.5458C182.444 17.4207 177.625 32.5802 177.062 34.2927C176.924 34.7072 176.556 35.0017 176.121 35.0433C176.086 35.0465 176.05 35.0481 176.015 35.0481Z" fill="#FFD310"/>
<path d="M189.333 18.611C189.229 18.611 189.124 18.6174 189.018 18.6334C185.3 19.1279 180.808 27.0134 178.433 32.002C183.37 29.923 191.201 25.9523 192.241 22.3416C192.475 21.5286 192.318 20.81 191.75 20.077C190.985 19.0927 190.193 18.611 189.333 18.611ZM176.322 35.118C176.026 35.118 175.736 34.9996 175.526 34.7787C175.224 34.4619 175.137 33.9977 175.305 33.5944C176 31.9315 182.271 17.313 188.727 16.452C189.964 16.2871 191.793 16.5464 193.486 18.7262C194.482 20.0066 194.783 21.4678 194.356 22.9498C192.579 29.1132 178.317 34.4619 176.698 35.0524C176.575 35.0972 176.448 35.118 176.322 35.118Z" fill="#FFD310"/>
<path d="M155.666 31.2317C161.011 34.6673 173.226 37.3395 182.77 31.2317" stroke="#FFD310" stroke-width="1.63065"/>
<defs>
<linearGradient id="paint0_linear" x1="52.6625" y1="191.938" x2="67.5753" y2="243.719" gradientUnits="userSpaceOnUse">
<stop stop-color="#FFD8D8"/>
<stop offset="1" stop-color="#FFF8F8"/>
</linearGradient>
<linearGradient id="paint1_linear" x1="301.25" y1="79.4139" x2="144.754" y2="-19.38" gradientUnits="userSpaceOnUse">
<stop stop-color="#FFF8F8"/>
<stop offset="1" stop-color="#FFCFCF"/>
</linearGradient>
<linearGradient id="paint2_linear" x1="295.802" y1="55.2982" x2="238.538" y2="30.8394" gradientUnits="userSpaceOnUse">
<stop stop-color="#FFD7D7"/>
<stop offset="1" stop-color="#FFF9F9"/>
</linearGradient>
<linearGradient id="paint3_linear" x1="282.876" y1="216.592" x2="52.6684" y2="83.2792" gradientUnits="userSpaceOnUse">
<stop stop-color="#FFCFCF"/>
<stop offset="1" stop-color="#FFF8F8"/>
</linearGradient>
</defs>
</svg>
