<svg width="340" height="479" viewBox="0 0 340 479" fill="none" xmlns="http://www.w3.org/2000/svg">
<path d="M40.584 363.919H44.8027V373.5L55.0332 373.535V363.919H59.2695V387H55.0332V377.173H44.8027V387H40.584V363.919ZM78.3594 370.951V387H75.0195L74.7207 384.978C74.1465 385.798 73.4258 386.419 72.5586 386.841C71.7031 387.263 70.7363 387.474 69.6582 387.474C67.7598 387.474 66.2949 386.906 65.2637 385.769C64.2324 384.621 63.7168 383.085 63.7168 381.164V370.951H67.7422V380.478C67.7422 381.697 68.0234 382.582 68.5859 383.132C69.1484 383.671 69.9453 383.941 70.9766 383.941C72.0078 383.941 72.8223 383.607 73.4199 382.939C74.0293 382.259 74.334 381.345 74.334 380.197V370.951H78.3594ZM101.527 370.441C103.262 370.441 104.662 370.974 105.729 372.041C106.795 373.107 107.328 374.566 107.328 376.417V387H103.338V377.384C103.338 376.236 103.062 375.375 102.512 374.8C101.973 374.226 101.252 373.939 100.35 373.939C99.2949 373.939 98.4688 374.279 97.8711 374.958C97.2852 375.638 96.9922 376.505 96.9922 377.56V387H93.0371V377.384C93.0371 376.306 92.7617 375.462 92.2109 374.853C91.6602 374.244 90.9043 373.939 89.9434 373.939C88.959 373.939 88.168 374.285 87.5703 374.976C86.9844 375.667 86.6914 376.529 86.6914 377.56V387H82.666V370.951H86.3398L86.5508 372.673C87.0312 371.982 87.6816 371.437 88.502 371.039C89.334 370.64 90.2188 370.441 91.1562 370.441C92.3281 370.441 93.377 370.71 94.3027 371.25C95.2285 371.789 95.8965 372.527 96.3066 373.464C96.7871 372.503 97.4785 371.759 98.3809 371.232C99.2832 370.705 100.332 370.441 101.527 370.441ZM127.912 370.951V387H124.062V384.732C123.512 385.576 122.721 386.244 121.689 386.736C120.67 387.228 119.527 387.474 118.262 387.474C116.773 387.474 115.449 387.128 114.289 386.437C113.141 385.734 112.25 384.75 111.617 383.484C110.984 382.207 110.668 380.724 110.668 379.037C110.668 377.337 111.002 375.837 111.67 374.537C112.338 373.224 113.27 372.216 114.465 371.513C115.672 370.798 117.055 370.441 118.613 370.441C119.832 370.441 120.928 370.664 121.9 371.109C122.885 371.554 123.664 372.181 124.238 372.99L124.555 370.951H127.912ZM119.264 383.835C120.611 383.835 121.707 383.378 122.551 382.464C123.406 381.55 123.834 380.361 123.834 378.896C123.834 377.431 123.418 376.259 122.586 375.38C121.766 374.49 120.67 374.044 119.299 374.044C117.928 374.044 116.826 374.496 115.994 375.398C115.174 376.289 114.764 377.466 114.764 378.931C114.764 380.396 115.18 381.58 116.012 382.482C116.844 383.384 117.928 383.835 119.264 383.835ZM141.096 370.441C142.959 370.441 144.43 371.033 145.508 372.216C146.598 373.388 147.143 375.005 147.143 377.068V387H143.1V378C143.1 375.386 142.033 374.08 139.9 374.08C138.752 374.08 137.861 374.414 137.229 375.082C136.607 375.75 136.297 376.652 136.297 377.789V387H132.307V370.951H135.646L135.945 372.884C136.449 372.146 137.164 371.554 138.09 371.109C139.016 370.664 140.018 370.441 141.096 370.441ZM170.926 387.474C168.617 387.474 166.561 386.976 164.756 385.98C162.963 384.984 161.562 383.572 160.555 381.744C159.547 379.916 159.043 377.818 159.043 375.451C159.043 373.095 159.541 371.009 160.537 369.193C161.533 367.365 162.928 365.953 164.721 364.957C166.525 363.96 168.594 363.462 170.926 363.462C172.848 363.462 174.605 363.791 176.199 364.447C177.793 365.103 179.111 366.052 180.154 367.294C181.197 368.525 181.865 369.955 182.158 371.583H177.465C177.102 370.341 176.328 369.328 175.145 368.542C173.961 367.746 172.543 367.347 170.891 367.347C169.402 367.347 168.09 367.681 166.953 368.349C165.828 369.017 164.961 369.972 164.352 371.214C163.742 372.445 163.438 373.869 163.438 375.486C163.438 377.115 163.748 378.544 164.369 379.775C164.99 380.994 165.863 381.925 166.988 382.57C168.125 383.214 169.426 383.537 170.891 383.537C172.496 383.537 173.896 383.15 175.092 382.376C176.299 381.591 177.09 380.554 177.465 379.265H182.158C181.889 380.871 181.238 382.3 180.207 383.554C179.176 384.796 177.863 385.763 176.27 386.455C174.676 387.134 172.895 387.474 170.926 387.474ZM184.109 378.966C184.109 377.337 184.479 375.878 185.217 374.589C185.967 373.289 187.004 372.275 188.328 371.548C189.664 370.81 191.182 370.441 192.881 370.441C194.58 370.441 196.098 370.81 197.434 371.548C198.77 372.275 199.807 373.289 200.545 374.589C201.295 375.878 201.67 377.337 201.67 378.966C201.67 380.572 201.295 382.025 200.545 383.326C199.807 384.626 198.77 385.646 197.434 386.384C196.109 387.111 194.592 387.474 192.881 387.474C191.182 387.474 189.664 387.111 188.328 386.384C187.004 385.646 185.967 384.632 185.217 383.343C184.479 382.042 184.109 380.583 184.109 378.966ZM188.24 378.931C188.24 380.373 188.674 381.556 189.541 382.482C190.408 383.408 191.521 383.871 192.881 383.871C194.275 383.871 195.406 383.408 196.273 382.482C197.141 381.556 197.574 380.373 197.574 378.931C197.574 377.49 197.141 376.312 196.273 375.398C195.406 374.472 194.275 374.009 192.881 374.009C191.51 374.009 190.391 374.472 189.523 375.398C188.668 376.312 188.24 377.49 188.24 378.931ZM213.904 370.441C215.768 370.441 217.238 371.033 218.316 372.216C219.406 373.388 219.951 375.005 219.951 377.068V387H215.908V378C215.908 375.386 214.842 374.08 212.709 374.08C211.561 374.08 210.67 374.414 210.037 375.082C209.416 375.75 209.105 376.652 209.105 377.789V387H205.115V370.951H208.455L208.754 372.884C209.258 372.146 209.973 371.554 210.898 371.109C211.824 370.664 212.826 370.441 213.904 370.441ZM232.766 374.255H229.707V387H225.682V374.255H222.623V370.951H225.682V366.732H229.707V370.951H232.766V374.255ZM251.732 370.951V387H247.883V384.732C247.332 385.576 246.541 386.244 245.51 386.736C244.49 387.228 243.348 387.474 242.082 387.474C240.594 387.474 239.27 387.128 238.109 386.437C236.961 385.734 236.07 384.75 235.438 383.484C234.805 382.207 234.488 380.724 234.488 379.037C234.488 377.337 234.822 375.837 235.49 374.537C236.158 373.224 237.09 372.216 238.285 371.513C239.492 370.798 240.875 370.441 242.434 370.441C243.652 370.441 244.748 370.664 245.721 371.109C246.705 371.554 247.484 372.181 248.059 372.99L248.375 370.951H251.732ZM243.084 383.835C244.432 383.835 245.527 383.378 246.371 382.464C247.227 381.55 247.654 380.361 247.654 378.896C247.654 377.431 247.238 376.259 246.406 375.38C245.586 374.49 244.49 374.044 243.119 374.044C241.748 374.044 240.646 374.496 239.814 375.398C238.994 376.289 238.584 377.466 238.584 378.931C238.584 380.396 239 381.58 239.832 382.482C240.664 383.384 241.748 383.835 243.084 383.835ZM255.195 378.931C255.195 377.255 255.547 375.779 256.25 374.501C256.965 373.212 257.967 372.216 259.256 371.513C260.557 370.798 262.033 370.441 263.686 370.441C265.889 370.441 267.723 371.021 269.188 372.181C270.652 373.33 271.496 374.871 271.719 376.804H267.605C267.371 375.89 266.902 375.193 266.199 374.712C265.508 374.22 264.658 373.974 263.65 373.974C262.326 373.974 261.26 374.425 260.451 375.328C259.654 376.218 259.256 377.431 259.256 378.966C259.256 380.455 259.643 381.65 260.416 382.552C261.201 383.455 262.268 383.906 263.615 383.906C264.67 383.906 265.549 383.648 266.252 383.132C266.967 382.617 267.418 381.949 267.605 381.128H271.719C271.484 383.027 270.629 384.562 269.152 385.734C267.688 386.894 265.877 387.474 263.721 387.474C262.045 387.474 260.557 387.123 259.256 386.419C257.967 385.705 256.965 384.703 256.25 383.414C255.547 382.113 255.195 380.619 255.195 378.931ZM283.812 374.255H280.754V387H276.729V374.255H273.67V370.951H276.729V366.732H280.754V370.951H283.812V374.255ZM293.111 387.474C291.119 387.474 289.496 387.005 288.242 386.068C287 385.13 286.332 383.871 286.238 382.289H290.193C290.24 382.98 290.527 383.513 291.055 383.888C291.582 384.263 292.256 384.451 293.076 384.451C293.896 384.451 294.529 384.292 294.975 383.976C295.432 383.66 295.66 383.203 295.66 382.605C295.66 382.054 295.479 381.656 295.115 381.41C294.764 381.152 294.301 380.964 293.727 380.847L291.02 380.197C289.508 379.857 288.395 379.289 287.68 378.492C286.977 377.683 286.625 376.716 286.625 375.591C286.625 374.033 287.217 372.785 288.4 371.847C289.596 370.91 291.143 370.441 293.041 370.441C294.939 370.441 296.475 370.91 297.646 371.847C298.818 372.785 299.428 374.021 299.475 375.556H295.52C295.52 374.912 295.285 374.402 294.816 374.027C294.348 373.652 293.732 373.464 292.971 373.464C292.279 373.464 291.729 373.617 291.318 373.921C290.908 374.214 290.703 374.636 290.703 375.187C290.703 375.738 290.861 376.125 291.178 376.347C291.506 376.558 291.98 376.74 292.602 376.892L295.695 377.595C297.09 377.935 298.121 378.515 298.789 379.335C299.469 380.144 299.809 381.117 299.809 382.253C299.809 383.835 299.199 385.101 297.98 386.05C296.773 387 295.15 387.474 293.111 387.474Z" fill="#035755"/>
<path d="M7.74512 424.459L9.34473 429.882C9.63184 430.843 9.86621 431.664 10.0479 432.343C10.2295 433.017 10.3379 433.439 10.373 433.609C10.8887 432.003 11.3809 430.442 11.8496 428.924L13.168 424.767H14.8379C15.2246 425.945 15.6816 427.386 16.209 429.091C16.7363 430.791 17.1963 432.296 17.5889 433.609C17.6357 433.427 17.7559 432.985 17.9492 432.282C18.1426 431.579 18.377 430.767 18.6523 429.847L20.2344 424.459H21.8955L18.3447 436H16.8506L16.1562 433.75C16.1094 433.58 16.0303 433.331 15.9189 433.002C15.8076 432.674 15.6758 432.252 15.5234 431.737C15.1777 430.659 14.8584 429.663 14.5654 428.749C14.2783 427.834 14.0879 427.21 13.9941 426.876L11.832 433.75L11.1289 436H9.61719L6.09277 424.459H7.74512ZM30.5176 428.063V436H29.1113V434.593C28.8477 435.085 28.4434 435.481 27.8984 435.78C27.3535 436.073 26.7383 436.219 26.0527 436.219C25.3203 436.219 24.667 436.046 24.0928 435.701C23.5244 435.349 23.082 434.86 22.7656 434.233C22.4492 433.6 22.291 432.874 22.291 432.053C22.291 431.215 22.4551 430.477 22.7832 429.838C23.1172 429.194 23.5742 428.699 24.1543 428.353C24.7344 428.001 25.4023 427.826 26.1582 427.826C26.832 427.826 27.4268 427.96 27.9424 428.23C28.458 428.5 28.8594 428.869 29.1465 429.337L29.2783 428.063H30.5176ZM26.3779 434.866C27.1572 434.866 27.7871 434.605 28.2676 434.083C28.748 433.562 28.9883 432.862 28.9883 431.983C28.9883 431.133 28.751 430.454 28.2764 429.944C27.8018 429.434 27.1807 429.179 26.4131 429.179C25.6221 429.179 24.9922 429.44 24.5234 429.961C24.0547 430.483 23.8203 431.168 23.8203 432.018C23.8203 432.868 24.0547 433.556 24.5234 434.083C24.9922 434.605 25.6104 434.866 26.3779 434.866ZM35.6064 436.219C34.6807 436.219 33.9189 435.997 33.3213 435.551C32.7295 435.106 32.4102 434.517 32.3633 433.785H33.8223C33.8574 434.195 34.0332 434.511 34.3496 434.734C34.666 434.957 35.085 435.068 35.6064 435.068C36.1221 435.068 36.5234 434.965 36.8105 434.76C37.0977 434.555 37.2412 434.265 37.2412 433.89C37.2412 433.521 37.127 433.257 36.8984 433.099C36.6699 432.935 36.377 432.815 36.0195 432.739L34.6133 432.414C33.916 432.255 33.4004 431.989 33.0664 431.614C32.7383 431.239 32.5742 430.782 32.5742 430.243C32.5742 429.51 32.8496 428.924 33.4004 428.485C33.957 428.045 34.6777 427.826 35.5625 427.826C36.4648 427.826 37.1943 428.051 37.751 428.502C38.3135 428.954 38.6064 429.551 38.6299 430.295H37.1709C37.1592 429.885 37.001 429.563 36.6963 429.329C36.3975 429.094 36.0137 428.977 35.5449 428.977C35.0996 428.977 34.7451 429.077 34.4814 429.276C34.2236 429.475 34.0947 429.753 34.0947 430.111C34.0947 430.445 34.1973 430.688 34.4023 430.84C34.6133 430.993 34.8887 431.104 35.2285 431.174L36.8281 431.535C37.4902 431.681 37.9824 431.951 38.3047 432.343C38.627 432.73 38.7881 433.199 38.7881 433.75C38.7881 434.505 38.498 435.106 37.918 435.551C37.3438 435.997 36.5732 436.219 35.6064 436.219ZM40.7568 423.651H42.251V429.144C42.4912 428.734 42.8428 428.412 43.3057 428.177C43.7686 427.943 44.2695 427.826 44.8086 427.826C45.7109 427.826 46.4258 428.113 46.9531 428.687C47.4805 429.255 47.7441 430.055 47.7441 431.086V436H46.25V431.429C46.25 430.615 46.0771 430.038 45.7314 429.698C45.3916 429.352 44.958 429.179 44.4307 429.179C43.833 429.179 43.3203 429.364 42.8926 429.733C42.4648 430.096 42.251 430.618 42.251 431.297V436H40.7568V423.651ZM50.9521 426.121C50.6416 426.121 50.3809 426.015 50.1699 425.804C49.959 425.593 49.8535 425.333 49.8535 425.022C49.8535 424.723 49.959 424.471 50.1699 424.266C50.3809 424.061 50.6416 423.958 50.9521 423.958C51.2744 423.958 51.5381 424.061 51.7432 424.266C51.9482 424.471 52.0508 424.723 52.0508 425.022C52.0508 425.321 51.9482 425.579 51.7432 425.795C51.5439 426.012 51.2803 426.121 50.9521 426.121ZM50.2139 428.063H51.708V436H50.2139V428.063ZM58.2383 427.826C59.1406 427.826 59.8613 428.113 60.4004 428.687C60.9395 429.255 61.209 430.055 61.209 431.086V436H59.6973V431.429C59.6973 429.929 59.0908 429.179 57.8779 429.179C57.2158 429.179 56.6914 429.378 56.3047 429.777C55.9238 430.169 55.7334 430.676 55.7334 431.297V435.982H54.2393V428.063H55.4873L55.6279 429.179C55.8682 428.769 56.2256 428.441 56.7002 428.195C57.1748 427.949 57.6875 427.826 58.2383 427.826ZM71.2285 428.063V435.964C71.2285 437.119 70.8623 438.042 70.1299 438.733C69.3975 439.43 68.4131 439.779 67.1768 439.779C66.0986 439.779 65.2051 439.5 64.4961 438.944C63.7871 438.387 63.3652 437.623 63.2305 436.65H64.707C64.8242 437.224 65.1025 437.669 65.542 437.986C65.9814 438.308 66.5264 438.469 67.1768 438.469C67.9912 438.469 68.6211 438.247 69.0664 437.801C69.5117 437.356 69.7344 436.755 69.7344 436V434.33C69.459 434.787 69.0664 435.144 68.5566 435.402C68.0527 435.654 67.4785 435.78 66.834 435.78C66.0898 435.78 65.4307 435.61 64.8564 435.27C64.2881 434.93 63.8516 434.461 63.5469 433.864C63.2422 433.26 63.0898 432.586 63.0898 431.842C63.0898 431.086 63.2451 430.404 63.5557 429.794C63.8662 429.179 64.3086 428.699 64.8828 428.353C65.4629 428.001 66.1309 427.826 66.8867 427.826C67.5488 427.826 68.1289 427.96 68.627 428.23C69.125 428.5 69.5117 428.875 69.7871 429.355L69.875 428.063H71.2285ZM67.0889 434.47C67.8447 434.47 68.457 434.215 68.9258 433.706C69.4004 433.196 69.6377 432.563 69.6377 431.807C69.6377 431.051 69.4033 430.418 68.9346 429.909C68.4717 429.399 67.8564 429.144 67.0889 429.144C66.333 429.144 65.7324 429.399 65.2871 429.909C64.8418 430.418 64.6191 431.057 64.6191 431.825C64.6191 432.592 64.8447 433.225 65.2959 433.723C65.7471 434.221 66.3447 434.47 67.0889 434.47ZM78.6904 424.459L80.2461 427.158C80.5918 427.744 80.8994 428.294 81.1689 428.81C81.4385 429.32 81.6084 429.645 81.6787 429.786C81.7607 429.639 81.9307 429.332 82.1885 428.863C82.4521 428.388 82.7744 427.82 83.1553 427.158L84.7021 424.459H86.4512L82.4697 431.245V436H80.9053V431.245L76.8799 424.459H78.6904ZM85.8359 432.036C85.8359 431.245 86.0146 430.533 86.3721 429.9C86.7354 429.261 87.2393 428.757 87.8838 428.388C88.5342 428.013 89.2725 427.826 90.0986 427.826C90.9248 427.826 91.666 428.013 92.3223 428.388C92.9785 428.757 93.4854 429.261 93.8428 429.9C94.2061 430.533 94.3877 431.245 94.3877 432.036C94.3877 432.815 94.2031 433.524 93.834 434.163C93.4707 434.801 92.9639 435.305 92.3135 435.674C91.6689 436.038 90.9307 436.219 90.0986 436.219C89.2842 436.219 88.5518 436.038 87.9014 435.674C87.2568 435.305 86.75 434.804 86.3809 434.171C86.0176 433.533 85.8359 432.821 85.8359 432.036ZM87.3828 432.036C87.3828 432.856 87.6377 433.536 88.1475 434.075C88.6572 434.614 89.3076 434.883 90.0986 434.883C90.9131 434.883 91.5752 434.614 92.085 434.075C92.6006 433.536 92.8584 432.856 92.8584 432.036C92.8584 431.209 92.6035 430.524 92.0938 429.979C91.584 429.434 90.9189 429.162 90.0986 429.162C89.3076 429.162 88.6572 429.434 88.1475 429.979C87.6377 430.524 87.3828 431.209 87.3828 432.036ZM103.054 428.063V436H101.832L101.691 434.848C101.439 435.305 101.091 435.648 100.646 435.876C100.2 436.105 99.6904 436.219 99.1162 436.219C98.1904 436.219 97.4727 435.944 96.9629 435.393C96.4531 434.836 96.1982 434.089 96.1982 433.152V428.063H97.6924V432.871C97.6924 433.603 97.8564 434.125 98.1846 434.435C98.5186 434.746 98.9844 434.901 99.582 434.901C100.18 434.901 100.657 434.696 101.015 434.286C101.378 433.87 101.56 433.319 101.56 432.633V428.063H103.054ZM109.03 427.993C109.294 427.993 109.546 428.016 109.786 428.063V429.337C109.651 429.314 109.464 429.302 109.224 429.302C108.503 429.302 107.946 429.516 107.554 429.944C107.167 430.372 106.974 430.963 106.974 431.719V436H105.479V428.063H106.798L106.974 429.267C107.108 428.857 107.36 428.543 107.729 428.327C108.104 428.104 108.538 427.993 109.03 427.993ZM115.719 424.459H117.283V429.487H123.04V424.459H124.604V436H123.04V430.832H117.283V436H115.719V424.459ZM134.809 428.063V436H133.402V434.593C133.139 435.085 132.734 435.481 132.189 435.78C131.645 436.073 131.029 436.219 130.344 436.219C129.611 436.219 128.958 436.046 128.384 435.701C127.815 435.349 127.373 434.86 127.057 434.233C126.74 433.6 126.582 432.874 126.582 432.053C126.582 431.215 126.746 430.477 127.074 429.838C127.408 429.194 127.865 428.699 128.445 428.353C129.025 428.001 129.693 427.826 130.449 427.826C131.123 427.826 131.718 427.96 132.233 428.23C132.749 428.5 133.15 428.869 133.438 429.337L133.569 428.063H134.809ZM130.669 434.866C131.448 434.866 132.078 434.605 132.559 434.083C133.039 433.562 133.279 432.862 133.279 431.983C133.279 431.133 133.042 430.454 132.567 429.944C132.093 429.434 131.472 429.179 130.704 429.179C129.913 429.179 129.283 429.44 128.814 429.961C128.346 430.483 128.111 431.168 128.111 432.018C128.111 432.868 128.346 433.556 128.814 434.083C129.283 434.605 129.901 434.866 130.669 434.866ZM141.277 427.826C142.18 427.826 142.9 428.113 143.439 428.687C143.979 429.255 144.248 430.055 144.248 431.086V436H142.736V431.429C142.736 429.929 142.13 429.179 140.917 429.179C140.255 429.179 139.73 429.378 139.344 429.777C138.963 430.169 138.772 430.676 138.772 431.297V435.982H137.278V428.063H138.526L138.667 429.179C138.907 428.769 139.265 428.441 139.739 428.195C140.214 427.949 140.727 427.826 141.277 427.826ZM154.355 423.651V436H153.134L153.002 434.576C152.75 435.068 152.352 435.466 151.807 435.771C151.262 436.07 150.646 436.219 149.961 436.219C149.217 436.219 148.555 436.046 147.975 435.701C147.395 435.349 146.94 434.857 146.612 434.224C146.29 433.585 146.129 432.85 146.129 432.018C146.129 431.192 146.293 430.462 146.621 429.83C146.955 429.191 147.412 428.699 147.992 428.353C148.572 428.001 149.234 427.826 149.979 427.826C150.641 427.826 151.227 427.952 151.736 428.204C152.246 428.456 152.639 428.804 152.914 429.25V423.651H154.355ZM150.216 434.866C150.995 434.866 151.625 434.605 152.105 434.083C152.586 433.562 152.826 432.862 152.826 431.983C152.826 431.133 152.589 430.454 152.114 429.944C151.64 429.434 151.019 429.179 150.251 429.179C149.46 429.179 148.83 429.44 148.361 429.961C147.893 430.483 147.658 431.168 147.658 432.018C147.658 432.868 147.893 433.556 148.361 434.083C148.83 434.605 149.448 434.866 150.216 434.866ZM159.479 436.219C158.554 436.219 157.792 435.997 157.194 435.551C156.603 435.106 156.283 434.517 156.236 433.785H157.695C157.73 434.195 157.906 434.511 158.223 434.734C158.539 434.957 158.958 435.068 159.479 435.068C159.995 435.068 160.396 434.965 160.684 434.76C160.971 434.555 161.114 434.265 161.114 433.89C161.114 433.521 161 433.257 160.771 433.099C160.543 432.935 160.25 432.815 159.893 432.739L158.486 432.414C157.789 432.255 157.273 431.989 156.939 431.614C156.611 431.239 156.447 430.782 156.447 430.243C156.447 429.51 156.723 428.924 157.273 428.485C157.83 428.045 158.551 427.826 159.436 427.826C160.338 427.826 161.067 428.051 161.624 428.502C162.187 428.954 162.479 429.551 162.503 430.295H161.044C161.032 429.885 160.874 429.563 160.569 429.329C160.271 429.094 159.887 428.977 159.418 428.977C158.973 428.977 158.618 429.077 158.354 429.276C158.097 429.475 157.968 429.753 157.968 430.111C157.968 430.445 158.07 430.688 158.275 430.84C158.486 430.993 158.762 431.104 159.102 431.174L160.701 431.535C161.363 431.681 161.855 431.951 162.178 432.343C162.5 432.73 162.661 433.199 162.661 433.75C162.661 434.505 162.371 435.106 161.791 435.551C161.217 435.997 160.446 436.219 159.479 436.219ZM169.033 436V424.459H170.598V436H169.033ZM175.862 436.219C174.937 436.219 174.175 435.997 173.577 435.551C172.985 435.106 172.666 434.517 172.619 433.785H174.078C174.113 434.195 174.289 434.511 174.605 434.734C174.922 434.957 175.341 435.068 175.862 435.068C176.378 435.068 176.779 434.965 177.066 434.76C177.354 434.555 177.497 434.265 177.497 433.89C177.497 433.521 177.383 433.257 177.154 433.099C176.926 432.935 176.633 432.815 176.275 432.739L174.869 432.414C174.172 432.255 173.656 431.989 173.322 431.614C172.994 431.239 172.83 430.782 172.83 430.243C172.83 429.51 173.105 428.924 173.656 428.485C174.213 428.045 174.934 427.826 175.818 427.826C176.721 427.826 177.45 428.051 178.007 428.502C178.569 428.954 178.862 429.551 178.886 430.295H177.427C177.415 429.885 177.257 429.563 176.952 429.329C176.653 429.094 176.27 428.977 175.801 428.977C175.355 428.977 175.001 429.077 174.737 429.276C174.479 429.475 174.351 429.753 174.351 430.111C174.351 430.445 174.453 430.688 174.658 430.84C174.869 430.993 175.145 431.104 175.484 431.174L177.084 431.535C177.746 431.681 178.238 431.951 178.561 432.343C178.883 432.73 179.044 433.199 179.044 433.75C179.044 434.505 178.754 435.106 178.174 435.551C177.6 435.997 176.829 436.219 175.862 436.219ZM196.666 430.243C196.666 431.391 196.402 432.419 195.875 433.328C195.354 434.23 194.639 434.939 193.73 435.455C192.828 435.964 191.82 436.219 190.707 436.219C189.594 436.219 188.583 435.967 187.675 435.463C186.767 434.959 186.052 434.253 185.53 433.345C185.009 432.437 184.748 431.403 184.748 430.243C184.748 429.088 185.009 428.057 185.53 427.149C186.052 426.235 186.764 425.52 187.666 425.004C188.574 424.489 189.588 424.231 190.707 424.231C191.82 424.231 192.828 424.486 193.73 424.996C194.639 425.505 195.354 426.22 195.875 427.14C196.402 428.054 196.666 429.088 196.666 430.243ZM195.022 430.243C195.022 429.364 194.832 428.584 194.451 427.905C194.076 427.219 193.561 426.686 192.904 426.305C192.254 425.918 191.527 425.725 190.725 425.725C189.91 425.725 189.172 425.918 188.51 426.305C187.848 426.686 187.326 427.219 186.945 427.905C186.57 428.584 186.383 429.364 186.383 430.243C186.383 431.122 186.57 431.904 186.945 432.589C187.326 433.269 187.848 433.802 188.51 434.189C189.172 434.57 189.904 434.76 190.707 434.76C191.51 434.76 192.239 434.57 192.896 434.189C193.558 433.802 194.076 433.266 194.451 432.581C194.832 431.895 195.022 431.116 195.022 430.243ZM202.643 427.826C203.545 427.826 204.266 428.113 204.805 428.687C205.344 429.255 205.613 430.055 205.613 431.086V436H204.102V431.429C204.102 429.929 203.495 429.179 202.282 429.179C201.62 429.179 201.096 429.378 200.709 429.777C200.328 430.169 200.138 430.676 200.138 431.297V435.982H198.644V428.063H199.892L200.032 429.179C200.272 428.769 200.63 428.441 201.104 428.195C201.579 427.949 202.092 427.826 202.643 427.826ZM215.308 433.626C215.126 434.406 214.687 435.033 213.989 435.507C213.292 435.982 212.478 436.219 211.546 436.219C210.743 436.219 210.034 436.043 209.419 435.692C208.81 435.334 208.335 434.839 207.995 434.207C207.661 433.568 207.494 432.833 207.494 432C207.494 431.174 207.664 430.445 208.004 429.812C208.35 429.173 208.824 428.684 209.428 428.344C210.037 427.999 210.726 427.826 211.493 427.826C212.249 427.826 212.911 427.987 213.479 428.309C214.048 428.625 214.49 429.068 214.807 429.636C215.129 430.205 215.29 430.855 215.29 431.587C215.29 431.986 215.267 432.288 215.22 432.493H208.971C208.994 433.249 209.243 433.855 209.718 434.312C210.192 434.763 210.802 434.989 211.546 434.989C212.097 434.989 212.577 434.866 212.987 434.62C213.403 434.374 213.69 434.042 213.849 433.626H215.308ZM213.778 431.412C213.767 430.703 213.55 430.14 213.128 429.724C212.706 429.302 212.155 429.091 211.476 429.091C210.755 429.091 210.166 429.302 209.709 429.724C209.252 430.14 209.012 430.703 208.988 431.412H213.778ZM232.842 430.243C232.842 431.391 232.578 432.419 232.051 433.328C231.529 434.23 230.814 434.939 229.906 435.455C229.004 435.964 227.996 436.219 226.883 436.219C225.77 436.219 224.759 435.967 223.851 435.463C222.942 434.959 222.228 434.253 221.706 433.345C221.185 432.437 220.924 431.403 220.924 430.243C220.924 429.088 221.185 428.057 221.706 427.149C222.228 426.235 222.939 425.52 223.842 425.004C224.75 424.489 225.764 424.231 226.883 424.231C227.996 424.231 229.004 424.486 229.906 424.996C230.814 425.505 231.529 426.22 232.051 427.14C232.578 428.054 232.842 429.088 232.842 430.243ZM231.198 430.243C231.198 429.364 231.008 428.584 230.627 427.905C230.252 427.219 229.736 426.686 229.08 426.305C228.43 425.918 227.703 425.725 226.9 425.725C226.086 425.725 225.348 425.918 224.686 426.305C224.023 426.686 223.502 427.219 223.121 427.905C222.746 428.584 222.559 429.364 222.559 430.243C222.559 431.122 222.746 431.904 223.121 432.589C223.502 433.269 224.023 433.802 224.686 434.189C225.348 434.57 226.08 434.76 226.883 434.76C227.686 434.76 228.415 434.57 229.071 434.189C229.733 433.802 230.252 433.266 230.627 432.581C231.008 431.895 231.198 431.116 231.198 430.243ZM238.344 424.837C237.928 424.837 237.62 424.919 237.421 425.083C237.222 425.248 237.099 425.441 237.052 425.664C237.005 425.88 236.981 426.153 236.981 426.481V428.063H238.924V429.302H236.981V436H235.487V429.302H234.046V428.063H235.487V426.191C235.487 424.451 236.352 423.581 238.08 423.581C238.402 423.581 238.684 423.604 238.924 423.651V424.89C238.789 424.855 238.596 424.837 238.344 424.837ZM252.564 425.901H249.014V436H247.449V425.901H243.872V424.459H252.564V425.901ZM254.12 423.651H255.614V429.144C255.854 428.734 256.206 428.412 256.669 428.177C257.132 427.943 257.633 427.826 258.172 427.826C259.074 427.826 259.789 428.113 260.316 428.687C260.844 429.255 261.107 430.055 261.107 431.086V436H259.613V431.429C259.613 430.615 259.44 430.038 259.095 429.698C258.755 429.352 258.321 429.179 257.794 429.179C257.196 429.179 256.684 429.364 256.256 429.733C255.828 430.096 255.614 430.618 255.614 431.297V436H254.12V423.651ZM270.819 433.626C270.638 434.406 270.198 435.033 269.501 435.507C268.804 435.982 267.989 436.219 267.058 436.219C266.255 436.219 265.546 436.043 264.931 435.692C264.321 435.334 263.847 434.839 263.507 434.207C263.173 433.568 263.006 432.833 263.006 432C263.006 431.174 263.176 430.445 263.516 429.812C263.861 429.173 264.336 428.684 264.939 428.344C265.549 427.999 266.237 427.826 267.005 427.826C267.761 427.826 268.423 427.987 268.991 428.309C269.56 428.625 270.002 429.068 270.318 429.636C270.641 430.205 270.802 430.855 270.802 431.587C270.802 431.986 270.778 432.288 270.731 432.493H264.482C264.506 433.249 264.755 433.855 265.229 434.312C265.704 434.763 266.313 434.989 267.058 434.989C267.608 434.989 268.089 434.866 268.499 434.62C268.915 434.374 269.202 434.042 269.36 433.626H270.819ZM269.29 431.412C269.278 430.703 269.062 430.14 268.64 429.724C268.218 429.302 267.667 429.091 266.987 429.091C266.267 429.091 265.678 429.302 265.221 429.724C264.764 430.14 264.523 430.703 264.5 431.412H269.29ZM275.407 436.219C274.481 436.219 273.72 435.997 273.122 435.551C272.53 435.106 272.211 434.517 272.164 433.785H273.623C273.658 434.195 273.834 434.511 274.15 434.734C274.467 434.957 274.886 435.068 275.407 435.068C275.923 435.068 276.324 434.965 276.611 434.76C276.898 434.555 277.042 434.265 277.042 433.89C277.042 433.521 276.928 433.257 276.699 433.099C276.471 432.935 276.178 432.815 275.82 432.739L274.414 432.414C273.717 432.255 273.201 431.989 272.867 431.614C272.539 431.239 272.375 430.782 272.375 430.243C272.375 429.51 272.65 428.924 273.201 428.485C273.758 428.045 274.479 427.826 275.363 427.826C276.266 427.826 276.995 428.051 277.552 428.502C278.114 428.954 278.407 429.551 278.431 430.295H276.972C276.96 429.885 276.802 429.563 276.497 429.329C276.198 429.094 275.814 428.977 275.346 428.977C274.9 428.977 274.546 429.077 274.282 429.276C274.024 429.475 273.896 429.753 273.896 430.111C273.896 430.445 273.998 430.688 274.203 430.84C274.414 430.993 274.689 431.104 275.029 431.174L276.629 431.535C277.291 431.681 277.783 431.951 278.105 432.343C278.428 432.73 278.589 433.199 278.589 433.75C278.589 434.505 278.299 435.106 277.719 435.551C277.145 435.997 276.374 436.219 275.407 436.219ZM281.331 426.121C281.021 426.121 280.76 426.015 280.549 425.804C280.338 425.593 280.232 425.333 280.232 425.022C280.232 424.723 280.338 424.471 280.549 424.266C280.76 424.061 281.021 423.958 281.331 423.958C281.653 423.958 281.917 424.061 282.122 424.266C282.327 424.471 282.43 424.723 282.43 425.022C282.43 425.321 282.327 425.579 282.122 425.795C281.923 426.012 281.659 426.121 281.331 426.121ZM280.593 428.063H282.087V436H280.593V428.063ZM293.513 427.826C294.351 427.826 295.03 428.081 295.552 428.59C296.079 429.1 296.343 429.824 296.343 430.761V436.017H294.866V431.086C294.866 430.424 294.711 429.932 294.4 429.61C294.096 429.288 293.674 429.126 293.135 429.126C292.549 429.126 292.083 429.326 291.737 429.724C291.397 430.117 291.228 430.594 291.228 431.157V436.017H289.751V431.086C289.751 430.477 289.596 430 289.285 429.654C288.975 429.302 288.541 429.126 287.984 429.126C287.422 429.126 286.968 429.326 286.622 429.724C286.282 430.117 286.112 430.588 286.112 431.139V436.017H284.618V428.063H285.954L286.06 429.074C286.288 428.687 286.607 428.382 287.018 428.16C287.434 427.937 287.888 427.826 288.38 427.826C288.978 427.826 289.505 427.972 289.962 428.265C290.419 428.552 290.744 428.939 290.938 429.425C291.154 428.921 291.491 428.529 291.948 428.248C292.405 427.966 292.927 427.826 293.513 427.826ZM303.163 427.826C303.907 427.826 304.566 428.001 305.141 428.353C305.721 428.699 306.175 429.194 306.503 429.838C306.831 430.477 306.995 431.209 306.995 432.036C306.995 432.85 306.831 433.577 306.503 434.215C306.175 434.854 305.718 435.349 305.132 435.701C304.552 436.046 303.89 436.219 303.146 436.219C302.495 436.219 301.915 436.096 301.405 435.85C300.896 435.604 300.503 435.258 300.228 434.813V439.542H298.769V428.063H299.999L300.122 429.469C300.386 428.977 300.79 428.582 301.335 428.283C301.88 427.978 302.489 427.826 303.163 427.826ZM302.891 434.883C303.67 434.883 304.297 434.62 304.771 434.092C305.246 433.565 305.483 432.879 305.483 432.036C305.483 431.174 305.246 430.486 304.771 429.97C304.297 429.455 303.676 429.197 302.908 429.197C302.129 429.197 301.505 429.458 301.036 429.979C300.573 430.5 300.342 431.201 300.342 432.08C300.342 432.941 300.573 433.624 301.036 434.127C301.505 434.631 302.123 434.883 302.891 434.883ZM308.981 423.651H310.476V436H308.981V423.651ZM320.267 433.626C320.085 434.406 319.646 435.033 318.948 435.507C318.251 435.982 317.437 436.219 316.505 436.219C315.702 436.219 314.993 436.043 314.378 435.692C313.769 435.334 313.294 434.839 312.954 434.207C312.62 433.568 312.453 432.833 312.453 432C312.453 431.174 312.623 430.445 312.963 429.812C313.309 429.173 313.783 428.684 314.387 428.344C314.996 427.999 315.685 427.826 316.452 427.826C317.208 427.826 317.87 427.987 318.438 428.309C319.007 428.625 319.449 429.068 319.766 429.636C320.088 430.205 320.249 430.855 320.249 431.587C320.249 431.986 320.226 432.288 320.179 432.493H313.93C313.953 433.249 314.202 433.855 314.677 434.312C315.151 434.763 315.761 434.989 316.505 434.989C317.056 434.989 317.536 434.866 317.946 434.62C318.362 434.374 318.649 434.042 318.808 433.626H320.267ZM318.737 431.412C318.726 430.703 318.509 430.14 318.087 429.724C317.665 429.302 317.114 429.091 316.435 429.091C315.714 429.091 315.125 429.302 314.668 429.724C314.211 430.14 313.971 430.703 313.947 431.412H318.737ZM324.854 436.219C323.929 436.219 323.167 435.997 322.569 435.551C321.978 435.106 321.658 434.517 321.611 433.785H323.07C323.105 434.195 323.281 434.511 323.598 434.734C323.914 434.957 324.333 435.068 324.854 435.068C325.37 435.068 325.771 434.965 326.059 434.76C326.346 434.555 326.489 434.265 326.489 433.89C326.489 433.521 326.375 433.257 326.146 433.099C325.918 432.935 325.625 432.815 325.268 432.739L323.861 432.414C323.164 432.255 322.648 431.989 322.314 431.614C321.986 431.239 321.822 430.782 321.822 430.243C321.822 429.51 322.098 428.924 322.648 428.485C323.205 428.045 323.926 427.826 324.811 427.826C325.713 427.826 326.442 428.051 326.999 428.502C327.562 428.954 327.854 429.551 327.878 430.295H326.419C326.407 429.885 326.249 429.563 325.944 429.329C325.646 429.094 325.262 428.977 324.793 428.977C324.348 428.977 323.993 429.077 323.729 429.276C323.472 429.475 323.343 429.753 323.343 430.111C323.343 430.445 323.445 430.688 323.65 430.84C323.861 430.993 324.137 431.104 324.477 431.174L326.076 431.535C326.738 431.681 327.23 431.951 327.553 432.343C327.875 432.73 328.036 433.199 328.036 433.75C328.036 434.505 327.746 435.106 327.166 435.551C326.592 435.997 325.821 436.219 324.854 436.219ZM333.767 429.302H332.202V436H330.708V429.302H329.161V428.063H330.708V425.954H332.202V428.063H333.767V429.302ZM87.2422 457.459L88.8418 462.882C89.1289 463.843 89.3633 464.664 89.5449 465.343C89.7266 466.017 89.835 466.439 89.8701 466.609C90.3857 465.003 90.8779 463.442 91.3467 461.924L92.665 457.767H94.335C94.7217 458.945 95.1787 460.386 95.7061 462.091C96.2334 463.791 96.6934 465.296 97.0859 466.609C97.1328 466.427 97.2529 465.985 97.4463 465.282C97.6396 464.579 97.874 463.767 98.1494 462.847L99.7314 457.459H101.393L97.8418 469H96.3477L95.6533 466.75C95.6064 466.58 95.5273 466.331 95.416 466.002C95.3047 465.674 95.1729 465.252 95.0205 464.737C94.6748 463.659 94.3555 462.663 94.0625 461.749C93.7754 460.834 93.585 460.21 93.4912 459.876L91.3291 466.75L90.626 469H89.1143L85.5898 457.459H87.2422ZM110.015 461.063V469H108.608V467.593C108.345 468.085 107.94 468.481 107.396 468.78C106.851 469.073 106.235 469.219 105.55 469.219C104.817 469.219 104.164 469.046 103.59 468.701C103.021 468.349 102.579 467.86 102.263 467.233C101.946 466.6 101.788 465.874 101.788 465.053C101.788 464.215 101.952 463.477 102.28 462.838C102.614 462.194 103.071 461.699 103.651 461.353C104.231 461.001 104.899 460.826 105.655 460.826C106.329 460.826 106.924 460.96 107.439 461.23C107.955 461.5 108.356 461.869 108.644 462.337L108.775 461.063H110.015ZM105.875 467.866C106.654 467.866 107.284 467.605 107.765 467.083C108.245 466.562 108.485 465.862 108.485 464.983C108.485 464.133 108.248 463.454 107.773 462.944C107.299 462.434 106.678 462.179 105.91 462.179C105.119 462.179 104.489 462.44 104.021 462.961C103.552 463.483 103.317 464.168 103.317 465.018C103.317 465.868 103.552 466.556 104.021 467.083C104.489 467.605 105.107 467.866 105.875 467.866ZM119.577 461.063L115.947 470.546C115.66 471.255 115.3 471.789 114.866 472.146C114.433 472.509 113.838 472.691 113.082 472.691C112.684 472.691 112.271 472.629 111.843 472.506V471.285C111.89 471.296 112.007 471.32 112.194 471.355C112.388 471.39 112.604 471.408 112.845 471.408C113.36 471.408 113.738 471.305 113.979 471.1C114.219 470.901 114.418 470.59 114.576 470.168L114.866 469.413L111.465 461.063H113.064L115.569 467.541L117.995 461.063H119.577ZM123.541 469.219C122.615 469.219 121.854 468.997 121.256 468.551C120.664 468.106 120.345 467.517 120.298 466.785H121.757C121.792 467.195 121.968 467.511 122.284 467.734C122.601 467.957 123.02 468.068 123.541 468.068C124.057 468.068 124.458 467.965 124.745 467.76C125.032 467.555 125.176 467.265 125.176 466.89C125.176 466.521 125.062 466.257 124.833 466.099C124.604 465.935 124.312 465.815 123.954 465.739L122.548 465.414C121.851 465.255 121.335 464.989 121.001 464.614C120.673 464.239 120.509 463.782 120.509 463.243C120.509 462.51 120.784 461.924 121.335 461.485C121.892 461.045 122.612 460.826 123.497 460.826C124.399 460.826 125.129 461.051 125.686 461.502C126.248 461.954 126.541 462.551 126.564 463.295H125.105C125.094 462.885 124.936 462.563 124.631 462.329C124.332 462.094 123.948 461.977 123.479 461.977C123.034 461.977 122.68 462.077 122.416 462.276C122.158 462.475 122.029 462.753 122.029 463.111C122.029 463.445 122.132 463.688 122.337 463.84C122.548 463.993 122.823 464.104 123.163 464.174L124.763 464.535C125.425 464.681 125.917 464.951 126.239 465.343C126.562 465.73 126.723 466.199 126.723 466.75C126.723 467.505 126.433 468.106 125.853 468.551C125.278 468.997 124.508 469.219 123.541 469.219ZM133.736 457.459L135.292 460.158C135.638 460.744 135.945 461.294 136.215 461.81C136.484 462.32 136.654 462.645 136.725 462.786C136.807 462.639 136.977 462.332 137.234 461.863C137.498 461.388 137.82 460.82 138.201 460.158L139.748 457.459H141.497L137.516 464.245V469H135.951V464.245L131.926 457.459H133.736ZM140.882 465.036C140.882 464.245 141.061 463.533 141.418 462.9C141.781 462.261 142.285 461.757 142.93 461.388C143.58 461.013 144.318 460.826 145.145 460.826C145.971 460.826 146.712 461.013 147.368 461.388C148.024 461.757 148.531 462.261 148.889 462.9C149.252 463.533 149.434 464.245 149.434 465.036C149.434 465.815 149.249 466.524 148.88 467.163C148.517 467.801 148.01 468.305 147.359 468.674C146.715 469.038 145.977 469.219 145.145 469.219C144.33 469.219 143.598 469.038 142.947 468.674C142.303 468.305 141.796 467.804 141.427 467.171C141.063 466.533 140.882 465.821 140.882 465.036ZM142.429 465.036C142.429 465.856 142.684 466.536 143.193 467.075C143.703 467.614 144.354 467.883 145.145 467.883C145.959 467.883 146.621 467.614 147.131 467.075C147.646 466.536 147.904 465.856 147.904 465.036C147.904 464.209 147.649 463.524 147.14 462.979C146.63 462.434 145.965 462.162 145.145 462.162C144.354 462.162 143.703 462.434 143.193 462.979C142.684 463.524 142.429 464.209 142.429 465.036ZM158.1 461.063V469H156.878L156.737 467.848C156.485 468.305 156.137 468.648 155.691 468.876C155.246 469.105 154.736 469.219 154.162 469.219C153.236 469.219 152.519 468.944 152.009 468.393C151.499 467.836 151.244 467.089 151.244 466.152V461.063H152.738V465.871C152.738 466.603 152.902 467.125 153.23 467.435C153.564 467.746 154.03 467.901 154.628 467.901C155.226 467.901 155.703 467.696 156.061 467.286C156.424 466.87 156.605 466.319 156.605 465.633V461.063H158.1ZM170.088 469.219C168.951 469.219 167.94 468.967 167.056 468.463C166.177 467.959 165.491 467.253 164.999 466.345C164.507 465.437 164.261 464.397 164.261 463.225C164.261 462.047 164.504 461.007 164.99 460.105C165.477 459.197 166.162 458.491 167.047 457.987C167.938 457.483 168.951 457.231 170.088 457.231C170.99 457.231 171.822 457.386 172.584 457.697C173.346 458.007 173.981 458.453 174.491 459.033C175.001 459.607 175.341 460.278 175.511 461.045H173.779C173.562 460.348 173.114 459.78 172.435 459.34C171.761 458.901 170.967 458.681 170.053 458.681C169.238 458.681 168.515 458.872 167.882 459.252C167.255 459.633 166.766 460.167 166.414 460.852C166.068 461.532 165.896 462.329 165.896 463.243C165.896 464.157 166.068 464.957 166.414 465.642C166.766 466.322 167.255 466.846 167.882 467.215C168.515 467.579 169.238 467.76 170.053 467.76C170.955 467.76 171.743 467.546 172.417 467.119C173.097 466.691 173.551 466.117 173.779 465.396H175.511C175.353 466.152 175.021 466.82 174.518 467.4C174.014 467.974 173.378 468.422 172.61 468.745C171.843 469.061 171.002 469.219 170.088 469.219ZM184.845 461.063V469H183.438V467.593C183.175 468.085 182.771 468.481 182.226 468.78C181.681 469.073 181.065 469.219 180.38 469.219C179.647 469.219 178.994 469.046 178.42 468.701C177.852 468.349 177.409 467.86 177.093 467.233C176.776 466.6 176.618 465.874 176.618 465.053C176.618 464.215 176.782 463.477 177.11 462.838C177.444 462.194 177.901 461.699 178.481 461.353C179.062 461.001 179.729 460.826 180.485 460.826C181.159 460.826 181.754 460.96 182.27 461.23C182.785 461.5 183.187 461.869 183.474 462.337L183.605 461.063H184.845ZM180.705 467.866C181.484 467.866 182.114 467.605 182.595 467.083C183.075 466.562 183.315 465.862 183.315 464.983C183.315 464.133 183.078 463.454 182.604 462.944C182.129 462.434 181.508 462.179 180.74 462.179C179.949 462.179 179.319 462.44 178.851 462.961C178.382 463.483 178.147 464.168 178.147 465.018C178.147 465.868 178.382 466.556 178.851 467.083C179.319 467.605 179.938 467.866 180.705 467.866ZM191.313 460.826C192.216 460.826 192.937 461.113 193.476 461.687C194.015 462.255 194.284 463.055 194.284 464.086V469H192.772V464.429C192.772 462.929 192.166 462.179 190.953 462.179C190.291 462.179 189.767 462.378 189.38 462.777C188.999 463.169 188.809 463.676 188.809 464.297V468.982H187.314V461.063H188.562L188.703 462.179C188.943 461.769 189.301 461.441 189.775 461.195C190.25 460.949 190.763 460.826 191.313 460.826ZM205.657 457.459C206.806 457.459 207.717 457.796 208.391 458.47C209.064 459.144 209.401 460.043 209.401 461.168C209.401 461.877 209.246 462.513 208.936 463.076C208.631 463.638 208.194 464.081 207.626 464.403C207.058 464.719 206.39 464.877 205.622 464.877H202.669V469H201.104V457.459H205.657ZM205.35 463.506C206.117 463.506 206.712 463.284 207.134 462.838C207.562 462.387 207.775 461.813 207.775 461.116C207.775 460.454 207.567 459.915 207.151 459.499C206.741 459.077 206.164 458.866 205.42 458.866H202.669V463.506H205.35ZM214.543 460.993C214.807 460.993 215.059 461.016 215.299 461.063V462.337C215.164 462.314 214.977 462.302 214.736 462.302C214.016 462.302 213.459 462.516 213.066 462.944C212.68 463.372 212.486 463.963 212.486 464.719V469H210.992V461.063H212.311L212.486 462.267C212.621 461.857 212.873 461.543 213.242 461.327C213.617 461.104 214.051 460.993 214.543 460.993ZM216.222 465.036C216.222 464.245 216.4 463.533 216.758 462.9C217.121 462.261 217.625 461.757 218.27 461.388C218.92 461.013 219.658 460.826 220.484 460.826C221.311 460.826 222.052 461.013 222.708 461.388C223.364 461.757 223.871 462.261 224.229 462.9C224.592 463.533 224.773 464.245 224.773 465.036C224.773 465.815 224.589 466.524 224.22 467.163C223.856 467.801 223.35 468.305 222.699 468.674C222.055 469.038 221.316 469.219 220.484 469.219C219.67 469.219 218.938 469.038 218.287 468.674C217.643 468.305 217.136 467.804 216.767 467.171C216.403 466.533 216.222 465.821 216.222 465.036ZM217.769 465.036C217.769 465.856 218.023 466.536 218.533 467.075C219.043 467.614 219.693 467.883 220.484 467.883C221.299 467.883 221.961 467.614 222.471 467.075C222.986 466.536 223.244 465.856 223.244 465.036C223.244 464.209 222.989 463.524 222.479 462.979C221.97 462.434 221.305 462.162 220.484 462.162C219.693 462.162 219.043 462.434 218.533 462.979C218.023 463.524 217.769 464.209 217.769 465.036ZM230.434 462.302H228.869V469H227.375V462.302H225.828V461.063H227.375V458.954H228.869V461.063H230.434V462.302ZM239.24 466.626C239.059 467.406 238.619 468.033 237.922 468.507C237.225 468.982 236.41 469.219 235.479 469.219C234.676 469.219 233.967 469.043 233.352 468.692C232.742 468.334 232.268 467.839 231.928 467.207C231.594 466.568 231.427 465.833 231.427 465C231.427 464.174 231.597 463.445 231.937 462.812C232.282 462.173 232.757 461.684 233.36 461.344C233.97 460.999 234.658 460.826 235.426 460.826C236.182 460.826 236.844 460.987 237.412 461.309C237.98 461.625 238.423 462.068 238.739 462.636C239.062 463.205 239.223 463.855 239.223 464.587C239.223 464.986 239.199 465.288 239.152 465.493H232.903C232.927 466.249 233.176 466.855 233.65 467.312C234.125 467.763 234.734 467.989 235.479 467.989C236.029 467.989 236.51 467.866 236.92 467.62C237.336 467.374 237.623 467.042 237.781 466.626H239.24ZM237.711 464.412C237.699 463.703 237.482 463.14 237.061 462.724C236.639 462.302 236.088 462.091 235.408 462.091C234.688 462.091 234.099 462.302 233.642 462.724C233.185 463.14 232.944 463.703 232.921 464.412H237.711ZM240.585 465.018C240.585 464.192 240.758 463.462 241.104 462.83C241.455 462.191 241.938 461.699 242.554 461.353C243.175 461.001 243.887 460.826 244.689 460.826C245.709 460.826 246.567 461.086 247.265 461.608C247.962 462.129 248.381 462.835 248.521 463.726H246.992C246.875 463.234 246.608 462.847 246.192 462.566C245.776 462.285 245.27 462.144 244.672 462.144C243.904 462.144 243.283 462.402 242.809 462.917C242.334 463.433 242.097 464.139 242.097 465.036C242.097 465.897 242.325 466.591 242.782 467.119C243.239 467.64 243.869 467.901 244.672 467.901C245.27 467.901 245.779 467.757 246.201 467.47C246.623 467.183 246.887 466.805 246.992 466.336H248.521C248.375 467.198 247.95 467.895 247.247 468.428C246.55 468.956 245.703 469.219 244.707 469.219C243.893 469.219 243.172 469.046 242.545 468.701C241.924 468.349 241.44 467.857 241.095 467.224C240.755 466.585 240.585 465.85 240.585 465.018ZM254.27 462.302H252.705V469H251.211V462.302H249.664V461.063H251.211V458.954H252.705V461.063H254.27V462.302Z" fill="#4B4F51"/>
<path d="M135.802 280.258C120.655 285.625 105.361 288.104 89.0481 285.005C70.8654 281.549 55.0944 265.989 46.1832 250.471C42.8722 244.707 40.2363 238.267 40.5807 231.63C41.3822 216.298 55.8665 214.585 68.1614 217.065C75.0921 218.459 81.4559 221.634 87.7475 224.778C98.193 230.001 110.446 232.57 119.811 239.81C122.953 242.246 125.313 245.174 128.964 246.946C134.644 249.706 141.128 251.009 146.962 253.52C151.943 255.675 157.511 259.22 157.518 264.645C157.519 270.208 151.714 273.754 146.614 275.969C143.004 277.547 139.41 278.986 135.802 280.258Z" fill="url(#paint0_linear)"/>
<path d="M80.0501 82.4956C104.863 45.9285 156.172 31.2462 197.761 44.9946C217.816 51.6276 234.623 65.4394 250.125 79.7773C263.789 92.4143 277.045 106.044 286.377 122.29C292.748 133.379 297.309 146.671 300.529 159.081C305.344 177.661 300.971 201.602 276.952 199.848C271.317 199.437 266.442 197.411 261.171 195.638C256.908 194.201 252.73 195.063 248.304 194.361C237.162 192.597 226.429 188.495 216.28 183.69C195.596 173.89 176.697 160.575 155.425 151.987C137.993 144.958 119.377 141.329 100.581 141.296C92.6512 141.283 84.3135 141.838 77.2203 138.292C59.7374 129.545 67.5993 105.958 74.1286 92.6903C75.8584 89.1561 77.8372 85.7492 80.0501 82.4956Z" fill="url(#paint1_linear)"/>
<path d="M274.597 88.015C278.682 91.7149 294.732 101.815 295.041 89.9624C295.114 87.0096 293.775 84.1425 291.952 81.98C289.867 79.4979 287.502 78.196 285.874 75.3042C283.881 71.8126 281.613 68.5311 279.099 65.502C273.959 59.1974 267.958 53.3722 260.676 50.7767C255.569 48.9585 246.922 49.4157 244.496 55.9612C240.962 65.4895 256.074 67.2354 260.683 70.7079C265.057 73.9947 267.534 79.6423 270.999 84.1307C272.094 85.546 273.298 86.8463 274.597 88.015Z" fill="url(#paint2_linear)"/>
<path d="M199.059 76.4252C207.712 81.5195 214.202 89.1448 222.091 95.286C235.225 105.509 253.228 107.6 268.29 114.71C283.648 121.963 295.245 133.236 300.488 149.483C307.262 170.455 307.906 195.395 302.151 216.955C295.813 240.687 280.929 256.451 259.168 266.964C237.419 277.471 213.326 282.374 189.296 283.386C186.977 283.485 184.662 283.539 182.338 283.554C130.135 283.857 60.6502 265.482 42.8773 209.404C42.7144 208.891 42.5583 208.379 42.4017 207.859C40.5704 201.611 39.4936 195.167 39.1944 188.663C38.0765 165.606 42.1118 140.157 50.1954 118.543C55.6323 103.991 67.3397 91.6869 79.6763 82.9199C97.009 70.6034 118.157 67.4602 139.206 65.9824C154.793 64.8888 172.323 64.4892 187.063 70.4512C191.205 72.14 195.215 74.1369 199.059 76.4252Z" fill="url(#paint3_linear)"/>
<path d="M101.39 111.76C101.39 111.76 154.466 182.627 167.743 188.487C181.024 194.35 197.672 193.03 199.128 199.828C200.584 206.63 171.255 195.125 175.934 205.617C180.612 216.113 198.846 228.093 198.932 238.659C199.021 249.229 169.917 215.972 169.917 215.972C169.917 215.972 197.339 246.399 188.259 247.118C179.175 247.838 155.688 218.09 155.688 218.09C155.688 218.09 181.961 257.114 173.251 253.549C164.546 249.985 83.8046 156.617 71.3535 146.737C58.9025 136.861 101.39 111.76 101.39 111.76Z" fill="#E27B5A"/>
<path d="M255.787 128.962C255.787 128.962 195.251 193.554 181.407 197.919C167.563 202.281 151.163 199.139 148.966 205.734C146.773 212.331 177.187 204.128 171.382 214.045C165.581 223.958 146.143 233.857 144.894 244.353C143.65 254.845 176.228 224.997 176.228 224.997C176.228 224.997 145.628 252.219 154.574 253.933C163.525 255.65 190.138 228.669 190.138 228.669C190.138 228.669 159.735 264.566 168.781 261.981C177.828 259.396 268.338 175.485 281.797 167.036C295.259 158.588 255.787 128.962 255.787 128.962Z" fill="#FFCEB0"/>
<path d="M204.25 173.812C204.25 173.812 222.869 209.069 239.985 212.82C257.099 216.571 294.071 183.104 302.138 166.527C310.208 149.953 270.877 99.7967 262.46 92.5826C250.301 91.0982 195.618 142.385 204.25 173.812Z" fill="#FB4C47"/>
<path d="M88.721 77.5534C88.721 77.5534 149.959 137.906 147.057 153.577C144.159 169.251 120.776 188.026 101.917 194.174C83.0585 200.32 41.8298 175.563 41.8298 157.51C38.8234 126.85 54.4547 94.9875 88.721 77.5534Z" fill="#128E5A"/>
<defs>
<linearGradient id="paint0_linear" x1="39.2362" y1="233.746" x2="54.9514" y2="288.313" gradientUnits="userSpaceOnUse">
<stop stop-color="#FFD0D0"/>
<stop offset="1" stop-color="#FFF8F8"/>
</linearGradient>
<linearGradient id="paint1_linear" x1="332.772" y1="87.8221" x2="156.881" y2="47.2066" gradientUnits="userSpaceOnUse">
<stop stop-color="#FFF8F8"/>
<stop offset="1" stop-color="#FFD0D0"/>
</linearGradient>
<linearGradient id="paint2_linear" x1="295.458" y1="89.7546" x2="235.112" y2="63.9798" gradientUnits="userSpaceOnUse">
<stop stop-color="#FFD0D0"/>
<stop offset="1" stop-color="#FFF7F7"/>
</linearGradient>
<linearGradient id="paint3_linear" x1="281.838" y1="259.726" x2="39.2439" y2="119.24" gradientUnits="userSpaceOnUse">
<stop stop-color="#FFCFCF"/>
<stop offset="1" stop-color="#FFF8F8"/>
</linearGradient>
</defs>
</svg>
